# Blender 4.4.3
# www.blender.org
mtllib earth.mtl
o earth_placeholder
v -40.000000 -2.581887 40.000000
v 40.000000 3.746001 40.000000
v -40.000000 0.000000 -40.000000
v 40.000000 0.000000 -40.000000
v -40.000000 0.000000 -32.727272
v -40.000000 0.000000 -25.454544
v -40.000000 0.000000 -18.181816
v -40.000000 0.000000 -10.909089
v -40.000000 -1.133819 -3.636362
v -40.000000 -2.581887 3.636365
v -40.000000 -2.581887 10.909092
v -40.000000 -2.581887 18.181820
v -40.000000 -2.581887 25.454548
v -40.000000 -2.581887 32.727272
v -32.727272 -2.581887 40.000000
v -25.454544 -2.581887 40.000000
v -18.181816 -2.581887 40.000000
v -10.909089 -1.133819 40.000000
v -3.636362 0.000000 40.000000
v 3.636365 0.000000 40.000000
v 10.909092 0.227977 40.000000
v 18.181820 3.746001 40.000000
v 25.454548 6.151756 40.000000
v 32.727272 6.151756 40.000000
v 40.000000 6.151756 32.727272
v 40.000000 6.151756 25.454544
v 40.000000 6.151756 18.181816
v 40.000000 6.151756 10.909089
v 40.000000 3.746002 3.636362
v 40.000000 0.227977 -3.636365
v 40.000000 0.000000 -10.909092
v 40.000000 0.000000 -18.181820
v 40.000000 0.000000 -25.454548
v 40.000000 0.000000 -32.727272
v 32.727272 0.000000 -40.000000
v 25.454544 0.000000 -40.000000
v 18.181816 0.000000 -40.000000
v 10.909089 0.000000 -40.000000
v 3.636362 0.000000 -40.000000
v -3.636365 0.000000 -40.000000
v -10.909092 0.000000 -40.000000
v -18.181820 0.000000 -40.000000
v -25.454548 0.000000 -40.000000
v -32.727272 0.000000 -40.000000
v -32.727272 -2.581887 32.727272
v -32.727272 -2.581887 25.454544
v -32.727272 -2.581887 18.181816
v -32.727272 -2.581887 10.909089
v -32.727272 -2.581887 3.636362
v -32.727272 -1.133819 -3.636365
v -32.727272 0.000000 -10.909092
v -32.727272 0.000000 -18.181820
v -32.727272 0.000000 -25.454548
v -32.727272 0.000000 -32.727272
v -25.454544 -2.581887 32.727272
v -25.454544 -2.581887 25.454544
v -25.454544 -2.581887 18.181816
v -25.454544 -1.133819 10.909089
v -25.454544 -1.133819 3.636362
v -25.454544 -0.361828 -3.636365
v -25.454544 0.000000 -10.909092
v -25.454544 0.000000 -18.181820
v -25.454546 0.000000 -25.454548
v -25.454548 0.000000 -32.727272
v -18.181816 -2.581887 32.727272
v -18.181816 -1.133819 25.454544
v -18.181816 -1.133819 18.181816
v -18.181816 -0.361828 10.909089
v -18.181816 0.000000 3.636362
v -18.181816 0.000000 -3.636365
v -18.181816 0.000000 -10.909092
v -18.181816 0.000000 -18.181820
v -18.181818 0.000000 -25.454548
v -18.181820 0.000000 -32.727272
v -10.909089 -1.133819 32.727272
v -10.909089 -0.361828 25.454544
v -10.909089 0.000000 18.181816
v -10.909089 0.000000 10.909089
v -10.909089 0.000000 3.636362
v -10.909090 0.000000 -3.636365
v -10.909090 0.000000 -10.909092
v -10.909090 0.000000 -18.181820
v -10.909091 0.000000 -25.454548
v -10.909092 0.000000 -32.727272
v -3.636362 0.000000 32.727272
v -3.636363 0.000000 25.454544
v -3.636363 0.000000 18.181816
v -3.636363 0.000000 10.909089
v -3.636363 0.000000 3.636362
v -3.636364 0.000000 -3.636365
v -3.636364 0.000000 -10.909092
v -3.636364 0.000000 -18.181820
v -3.636364 0.000000 -25.454548
v -3.636364 0.000000 -32.727272
v 3.636365 0.000000 32.727272
v 3.636364 0.000000 25.454544
v 3.636364 0.000000 18.181816
v 3.636364 0.000000 10.909089
v 3.636364 0.000000 3.636362
v 3.636364 0.000000 -3.636365
v 3.636363 0.000000 -10.909092
v 3.636363 0.000000 -18.181820
v 3.636363 0.000000 -25.454548
v 3.636363 0.000000 -32.727272
v 10.909092 0.889157 32.727272
v 10.909092 0.889157 25.454544
v 10.909092 0.889157 18.181816
v 10.909092 0.889157 10.909089
v 10.909092 0.227977 3.636362
v 10.909092 0.000000 -3.636365
v 10.909091 0.000000 -10.909092
v 10.909090 0.000000 -18.181820
v 10.909090 0.000000 -25.454548
v 10.909090 0.000000 -32.727272
v 18.181820 6.151756 32.727272
v 18.181820 6.151756 25.454544
v 18.181820 6.151756 18.181816
v 18.181820 6.151756 10.909089
v 18.181820 3.746002 3.636362
v 18.181820 0.227977 -3.636365
v 18.181820 0.000000 -10.909092
v 18.181820 0.000000 -18.181820
v 18.181818 0.000000 -25.454548
v 18.181816 0.000000 -32.727272
v 25.454548 9.626554 32.727272
v 25.454548 9.626554 25.454544
v 25.454548 9.626554 18.181816
v 25.454548 9.626554 10.909089
v 25.454548 6.151756 3.636362
v 25.454548 0.889158 -3.636365
v 25.454548 0.000000 -10.909092
v 25.454548 0.000000 -18.181820
v 25.454546 0.000000 -25.454548
v 25.454544 0.000000 -32.727272
v 32.727272 9.626554 32.727272
v 32.727272 9.626554 25.454544
v 32.727272 9.626554 18.181816
v 32.727272 9.626554 10.909089
v 32.727272 6.151756 3.636362
v 32.727272 0.889158 -3.636365
v 32.727272 0.000000 -10.909092
v 32.727272 0.000000 -18.181820
v 32.727272 0.000000 -25.454548
v 32.727272 0.000000 -32.727272
vn -0.0000 1.0000 -0.0000
vn 0.2996 0.9058 0.2996
vn -0.0000 0.9970 0.0773
vn -0.0000 0.9846 0.1747
vn -0.0000 0.9952 0.0981
vn -0.0981 0.9952 -0.0000
vn -0.1747 0.9846 -0.0000
vn -0.0773 0.9970 -0.0000
vn -0.0157 0.9999 -0.0000
vn -0.2573 0.9642 0.0643
vn -0.4174 0.8768 0.2388
vn -0.1854 0.8996 0.3954
vn 0.1854 0.8996 0.3954
vn 0.3954 0.8996 0.1854
vn 0.4311 0.9023 -0.0000
vn 0.3954 0.8996 -0.1854
vn 0.2388 0.8768 -0.4174
vn 0.0643 0.9642 -0.2573
vn -0.0000 0.9999 -0.0157
vn -0.0736 0.9970 0.0246
vn -0.0971 0.9905 0.0971
vn -0.0637 0.9845 0.1632
vn -0.0132 0.9979 0.0641
vn -0.1215 0.9900 0.0721
vn -0.1609 0.9833 0.0851
vn -0.1571 0.9851 0.0698
vn -0.0774 0.9940 0.0774
vn -0.0062 0.9998 0.0186
vn -0.0968 0.9936 0.0579
vn -0.0702 0.9970 0.0316
vn -0.0186 0.9998 0.0062
vn -0.1632 0.9845 0.0637
vn -0.0641 0.9979 0.0132
vn -0.0495 0.9987 0.0113
vn -0.0608 0.9982 -0.0000
vn -0.0495 0.9987 -0.0113
vn -0.0118 0.9999 -0.0039
vn -0.3442 0.9365 0.0672
vn -0.3654 0.9309 -0.0000
vn -0.3442 0.9365 -0.0672
vn -0.1960 0.9754 -0.1007
vn -0.0157 0.9998 -0.0157
vn -0.4871 0.8593 0.1563
vn -0.5107 0.8597 -0.0000
vn -0.4871 0.8593 -0.1563
vn -0.3536 0.8660 -0.3536
vn -0.1007 0.9754 -0.1960
vn -0.0039 0.9999 -0.0118
vn -0.2106 0.9546 0.2106
vn -0.2210 0.9753 -0.0000
vn -0.2106 0.9546 -0.2106
vn -0.1563 0.8593 -0.4871
vn -0.0672 0.9365 -0.3442
vn -0.0113 0.9987 -0.0495
vn 0.2106 0.9546 0.2106
vn 0.2210 0.9753 -0.0000
vn 0.2106 0.9546 -0.2106
vn 0.1563 0.8593 -0.4871
vn 0.0672 0.9365 -0.3442
vn 0.0113 0.9987 -0.0495
vt 1.000000 0.909091
vt 0.909091 1.000000
vt 0.909091 0.909091
vt 0.090909 0.909091
vt 0.000000 1.000000
vt 0.000000 0.909091
vt 0.181818 0.909091
vt 0.090909 1.000000
vt 0.272727 0.909091
vt 0.181818 1.000000
vt 0.363636 0.909091
vt 0.272727 1.000000
vt 0.454545 0.909091
vt 0.363636 1.000000
vt 0.545455 1.000000
vt 0.454545 1.000000
vt 0.545455 0.909091
vt 0.636364 1.000000
vt 0.727273 0.909091
vt 0.636364 0.909091
vt 0.818182 0.909091
vt 0.727273 1.000000
vt 0.818182 1.000000
vt 0.090909 0.000000
vt 0.000000 0.090909
vt 0.000000 0.000000
vt 0.090909 0.090909
vt 0.000000 0.181818
vt 0.090909 0.181818
vt 0.000000 0.272727
vt 0.090909 0.272727
vt 0.000000 0.363636
vt 0.090909 0.363636
vt 0.000000 0.454545
vt 0.090909 0.454545
vt 0.000000 0.545455
vt 0.090909 0.545455
vt 0.000000 0.636364
vt 0.090909 0.636364
vt 0.000000 0.727273
vt 0.090909 0.727273
vt 0.000000 0.818182
vt 0.090909 0.818182
vt 0.181818 0.000000
vt 0.181818 0.090909
vt 0.181818 0.181818
vt 0.181818 0.272727
vt 0.181818 0.363636
vt 0.181818 0.454545
vt 0.181818 0.545455
vt 0.181818 0.636364
vt 0.181818 0.727273
vt 0.272727 0.000000
vt 0.272727 0.090909
vt 0.272727 0.181818
vt 0.272727 0.272727
vt 0.272727 0.363636
vt 0.272727 0.454545
vt 0.272727 0.545455
vt 0.272727 0.636364
vt 0.272727 0.818182
vt 0.181818 0.818182
vt 0.363636 0.000000
vt 0.363636 0.090909
vt 0.363636 0.181818
vt 0.363636 0.272727
vt 0.363636 0.363636
vt 0.363636 0.454545
vt 0.363636 0.545455
vt 0.363636 0.636364
vt 0.272727 0.727273
vt 0.363636 0.818182
vt 0.454545 0.000000
vt 0.454545 0.090909
vt 0.454545 0.181818
vt 0.454545 0.272727
vt 0.454545 0.363636
vt 0.454545 0.545455
vt 0.454545 0.636364
vt 0.363636 0.727273
vt 0.454545 0.727273
vt 0.454545 0.818182
vt 0.545455 0.000000
vt 0.545455 0.090909
vt 0.545455 0.181818
vt 0.545455 0.272727
vt 0.545455 0.363636
vt 0.454545 0.454545
vt 0.545455 0.454545
vt 0.545455 0.545455
vt 0.545455 0.636364
vt 0.545455 0.727273
vt 0.545455 0.818182
vt 0.636364 0.000000
vt 0.636364 0.090909
vt 0.636364 0.181818
vt 0.636364 0.272727
vt 0.636364 0.454545
vt 0.636364 0.545455
vt 0.636364 0.636364
vt 0.636364 0.727273
vt 0.636364 0.818182
vt 0.727273 0.000000
vt 0.727273 0.090909
vt 0.727273 0.181818
vt 0.727273 0.272727
vt 0.636364 0.363636
vt 0.727273 0.454545
vt 0.727273 0.545455
vt 0.727273 0.636364
vt 0.727273 0.818182
vt 0.818182 0.000000
vt 0.818182 0.090909
vt 0.818182 0.181818
vt 0.818182 0.272727
vt 0.727273 0.363636
vt 0.818182 0.454545
vt 0.818182 0.545455
vt 0.818182 0.636364
vt 0.727273 0.727273
vt 0.818182 0.818182
vt 0.909091 0.000000
vt 0.909091 0.090909
vt 0.909091 0.181818
vt 0.909091 0.272727
vt 0.818182 0.363636
vt 0.909091 0.363636
vt 0.909091 0.454545
vt 0.909091 0.545455
vt 0.909091 0.636364
vt 0.818182 0.727273
vt 0.909091 0.727273
vt 1.000000 0.090909
vt 1.000000 0.181818
vt 1.000000 0.272727
vt 1.000000 0.363636
vt 1.000000 0.454545
vt 1.000000 0.545455
vt 1.000000 0.636364
vt 1.000000 0.727273
vt 0.909091 0.818182
vt 1.000000 0.818182
vt 1.000000 1.000000
vt 1.000000 0.000000
s 1
usemtl Grass
f 34/1/1 35/2/1 144/3/1
f 54/4/1 3/5/1 5/6/1
f 64/7/1 44/8/1 54/4/1
f 74/9/1 43/10/1 64/7/1
f 84/11/1 42/12/1 74/9/1
f 94/13/1 41/14/1 84/11/1
f 104/17/1 38/18/1 39/15/1
f 124/19/1 38/18/1 114/20/1
f 134/21/1 37/22/1 124/19/1
f 144/3/1 36/23/1 134/21/1
f 15/24/1 14/25/1 1/26/1
f 45/27/1 13/28/1 14/25/1
f 46/29/1 12/30/1 13/28/1
f 47/31/1 11/32/1 12/30/1
f 48/33/20 10/34/5 11/32/1
f 49/35/21 9/36/4 10/34/5
f 50/37/22 8/38/3 9/36/4
f 51/39/23 7/40/1 8/38/3
f 52/41/1 6/42/1 7/40/1
f 53/43/1 5/6/1 6/42/1
f 16/44/1 45/27/1 15/24/1
f 55/45/1 46/29/1 45/27/1
f 56/46/20 47/31/1 46/29/1
f 57/47/24 48/33/20 47/31/1
f 58/48/25 49/35/21 48/33/20
f 59/49/26 50/37/22 49/35/21
f 60/50/27 51/39/23 50/37/22
f 61/51/28 52/41/1 51/39/23
f 62/52/1 53/43/1 52/41/1
f 53/43/1 64/7/1 54/4/1
f 17/53/6 55/45/1 16/44/1
f 65/54/24 56/46/20 55/45/1
f 66/55/25 57/47/24 56/46/20
f 67/56/26 58/48/25 57/47/24
f 68/57/29 59/49/26 58/48/25
f 69/58/30 60/50/27 59/49/26
f 70/59/31 61/51/28 60/50/27
f 71/60/1 62/52/1 61/51/28
f 62/52/1 73/61/1 63/62/1
f 63/62/1 74/9/1 64/7/1
f 18/63/7 65/54/24 17/53/6
f 75/64/32 66/55/25 65/54/24
f 76/65/29 67/56/26 66/55/25
f 77/66/30 68/57/29 67/56/26
f 78/67/31 69/58/30 68/57/29
f 79/68/1 70/59/31 69/58/30
f 80/69/1 71/60/1 70/59/31
f 81/70/1 72/71/1 71/60/1
f 72/71/1 83/72/1 73/61/1
f 73/61/1 84/11/1 74/9/1
f 19/73/8 75/64/32 18/63/7
f 85/74/33 76/65/29 75/64/32
f 86/75/31 77/66/30 76/65/29
f 87/76/1 78/67/31 77/66/30
f 88/77/1 79/68/1 78/67/31
f 79/68/1 90/78/1 80/69/1
f 90/78/1 81/70/1 80/69/1
f 91/79/1 82/80/1 81/70/1
f 92/81/1 83/72/1 82/80/1
f 93/82/1 84/11/1 83/72/1
f 21/94/10 95/84/34 20/83/9
f 105/95/38 96/85/35 95/84/34
f 106/96/39 97/86/35 96/85/35
f 107/97/39 98/87/36 97/86/35
f 98/87/36 109/98/41 99/89/37
f 99/89/37 110/99/42 100/90/1
f 110/99/42 101/91/1 100/90/1
f 111/100/1 102/92/1 101/91/1
f 112/101/1 103/93/1 102/92/1
f 113/102/1 104/17/1 103/93/1
f 22/103/11 105/95/38 21/94/10
f 115/104/43 106/96/39 105/95/38
f 116/105/44 107/97/39 106/96/39
f 117/106/44 108/107/40 107/97/39
f 108/107/40 119/108/46 109/98/41
f 109/98/41 120/109/47 110/99/42
f 110/99/42 121/110/48 111/100/1
f 121/110/48 112/101/1 111/100/1
f 112/101/1 123/111/1 113/102/1
f 113/102/1 124/19/1 114/20/1
f 23/112/12 115/104/43 22/103/11
f 125/113/49 116/105/44 115/104/43
f 126/114/50 117/106/44 116/105/44
f 127/115/50 118/116/45 117/106/44
f 118/116/45 129/117/52 119/108/46
f 119/108/46 130/118/53 120/109/47
f 120/109/47 131/119/54 121/110/48
f 131/119/54 122/120/1 121/110/48
f 122/120/1 133/121/1 123/111/1
f 123/111/1 134/21/1 124/19/1
f 24/122/13 125/113/49 23/112/12
f 135/123/55 126/114/50 125/113/49
f 136/124/56 127/115/50 126/114/50
f 137/125/56 128/126/51 127/115/50
f 138/127/57 129/117/52 128/126/51
f 139/128/58 130/118/53 129/117/52
f 140/129/59 131/119/54 130/118/53
f 141/130/60 132/131/1 131/119/54
f 142/132/1 133/121/1 132/131/1
f 133/121/1 144/3/1 134/21/1
f 24/122/13 25/133/14 135/123/55
f 25/133/14 136/124/56 135/123/55
f 26/134/15 137/125/56 136/124/56
f 27/135/15 138/127/57 137/125/56
f 28/136/16 139/128/58 138/127/57
f 29/137/17 140/129/59 139/128/58
f 30/138/18 141/130/60 140/129/59
f 31/139/19 142/132/1 141/130/60
f 32/140/1 143/141/1 142/132/1
f 33/142/1 144/3/1 143/141/1
f 34/1/1 4/143/1 35/2/1
f 54/4/1 44/8/1 3/5/1
f 64/7/1 43/10/1 44/8/1
f 74/9/1 42/12/1 43/10/1
f 84/11/1 41/14/1 42/12/1
f 94/13/1 40/16/1 41/14/1
f 104/17/1 114/20/1 38/18/1
f 124/19/1 37/22/1 38/18/1
f 134/21/1 36/23/1 37/22/1
f 144/3/1 35/2/1 36/23/1
f 15/24/1 45/27/1 14/25/1
f 45/27/1 46/29/1 13/28/1
f 46/29/1 47/31/1 12/30/1
f 47/31/1 48/33/20 11/32/1
f 48/33/20 49/35/21 10/34/5
f 49/35/21 50/37/22 9/36/4
f 50/37/22 51/39/23 8/38/3
f 51/39/23 52/41/1 7/40/1
f 52/41/1 53/43/1 6/42/1
f 53/43/1 54/4/1 5/6/1
f 16/44/1 55/45/1 45/27/1
f 55/45/1 56/46/20 46/29/1
f 56/46/20 57/47/24 47/31/1
f 57/47/24 58/48/25 48/33/20
f 58/48/25 59/49/26 49/35/21
f 59/49/26 60/50/27 50/37/22
f 60/50/27 61/51/28 51/39/23
f 61/51/28 62/52/1 52/41/1
f 62/52/1 63/62/1 53/43/1
f 53/43/1 63/62/1 64/7/1
f 17/53/6 65/54/24 55/45/1
f 65/54/24 66/55/25 56/46/20
f 66/55/25 67/56/26 57/47/24
f 67/56/26 68/57/29 58/48/25
f 68/57/29 69/58/30 59/49/26
f 69/58/30 70/59/31 60/50/27
f 70/59/31 71/60/1 61/51/28
f 71/60/1 72/71/1 62/52/1
f 62/52/1 72/71/1 73/61/1
f 63/62/1 73/61/1 74/9/1
f 18/63/7 75/64/32 65/54/24
f 75/64/32 76/65/29 66/55/25
f 76/65/29 77/66/30 67/56/26
f 77/66/30 78/67/31 68/57/29
f 78/67/31 79/68/1 69/58/30
f 79/68/1 80/69/1 70/59/31
f 80/69/1 81/70/1 71/60/1
f 81/70/1 82/80/1 72/71/1
f 72/71/1 82/80/1 83/72/1
f 73/61/1 83/72/1 84/11/1
f 19/73/8 85/74/33 75/64/32
f 85/74/33 86/75/31 76/65/29
f 86/75/31 87/76/1 77/66/30
f 87/76/1 88/77/1 78/67/31
f 88/77/1 89/88/1 79/68/1
f 79/68/1 89/88/1 90/78/1
f 90/78/1 91/79/1 81/70/1
f 91/79/1 92/81/1 82/80/1
f 92/81/1 93/82/1 83/72/1
f 93/82/1 94/13/1 84/11/1
f 21/94/10 105/95/38 95/84/34
f 105/95/38 106/96/39 96/85/35
f 106/96/39 107/97/39 97/86/35
f 107/97/39 108/107/40 98/87/36
f 98/87/36 108/107/40 109/98/41
f 99/89/37 109/98/41 110/99/42
f 110/99/42 111/100/1 101/91/1
f 111/100/1 112/101/1 102/92/1
f 112/101/1 113/102/1 103/93/1
f 113/102/1 114/20/1 104/17/1
f 22/103/11 115/104/43 105/95/38
f 115/104/43 116/105/44 106/96/39
f 116/105/44 117/106/44 107/97/39
f 117/106/44 118/116/45 108/107/40
f 108/107/40 118/116/45 119/108/46
f 109/98/41 119/108/46 120/109/47
f 110/99/42 120/109/47 121/110/48
f 121/110/48 122/120/1 112/101/1
f 112/101/1 122/120/1 123/111/1
f 113/102/1 123/111/1 124/19/1
f 23/112/12 125/113/49 115/104/43
f 125/113/49 126/114/50 116/105/44
f 126/114/50 127/115/50 117/106/44
f 127/115/50 128/126/51 118/116/45
f 118/116/45 128/126/51 129/117/52
f 119/108/46 129/117/52 130/118/53
f 120/109/47 130/118/53 131/119/54
f 131/119/54 132/131/1 122/120/1
f 122/120/1 132/131/1 133/121/1
f 123/111/1 133/121/1 134/21/1
f 24/122/13 135/123/55 125/113/49
f 135/123/55 136/124/56 126/114/50
f 136/124/56 137/125/56 127/115/50
f 137/125/56 138/127/57 128/126/51
f 138/127/57 139/128/58 129/117/52
f 139/128/58 140/129/59 130/118/53
f 140/129/59 141/130/60 131/119/54
f 141/130/60 142/132/1 132/131/1
f 142/132/1 143/141/1 133/121/1
f 133/121/1 143/141/1 144/3/1
f 24/122/13 2/144/2 25/133/14
f 25/133/14 26/134/15 136/124/56
f 26/134/15 27/135/15 137/125/56
f 27/135/15 28/136/16 138/127/57
f 28/136/16 29/137/17 139/128/58
f 29/137/17 30/138/18 140/129/59
f 30/138/18 31/139/19 141/130/60
f 31/139/19 32/140/1 142/132/1
f 32/140/1 33/142/1 143/141/1
f 33/142/1 34/1/1 144/3/1
usemtl Road
f 94/13/1 39/15/1 40/16/1
f 20/83/9 85/74/33 19/73/8
f 95/84/34 86/75/31 85/74/33
f 96/85/35 87/76/1 86/75/31
f 97/86/35 88/77/1 87/76/1
f 98/87/36 89/88/1 88/77/1
f 99/89/37 90/78/1 89/88/1
f 100/90/1 91/79/1 90/78/1
f 101/91/1 92/81/1 91/79/1
f 102/92/1 93/82/1 92/81/1
f 103/93/1 94/13/1 93/82/1
f 94/13/1 104/17/1 39/15/1
f 20/83/9 95/84/34 85/74/33
f 95/84/34 96/85/35 86/75/31
f 96/85/35 97/86/35 87/76/1
f 97/86/35 98/87/36 88/77/1
f 98/87/36 99/89/37 89/88/1
f 99/89/37 100/90/1 90/78/1
f 100/90/1 101/91/1 91/79/1
f 101/91/1 102/92/1 92/81/1
f 102/92/1 103/93/1 93/82/1
f 103/93/1 104/17/1 94/13/1
