# Blender 4.4.3
# www.blender.org
mtllib floor.mtl
o test_floor
v 100.000000 0.000000 -100.000000
v -100.000000 0.000000 -100.000000
v 100.000000 0.000000 100.000000
v -100.000000 0.000000 100.000000
v 75.000000 0.000000 -100.000000
v 50.000000 0.000000 -100.000000
v 25.000000 0.000000 -100.000000
v 0.000000 0.000000 -100.000000
v -25.000000 0.000000 -100.000000
v -50.000000 0.000000 -100.000000
v -75.000000 0.000000 -100.000000
v 100.000000 0.000000 75.000000
v 100.000000 0.000000 50.000000
v 100.000000 0.000000 25.000000
v 100.000000 0.000000 0.000000
v 100.000000 0.000000 -25.000000
v 100.000000 0.000000 -50.000000
v 100.000000 0.000000 -75.000000
v -75.000000 0.000000 100.000000
v -50.000000 0.000000 100.000000
v -25.000000 0.000000 100.000000
v 0.000000 0.000000 100.000000
v 25.000000 0.000000 100.000000
v 50.000000 0.000000 100.000000
v 75.000000 0.000000 100.000000
v -100.000000 0.000000 -75.000000
v -100.000000 0.000000 -50.000000
v -100.000000 0.000000 -25.000000
v -100.000000 0.000000 0.000000
v -100.000000 0.000000 25.000000
v -100.000000 0.000000 50.000000
v -100.000000 0.000000 75.000000
v -75.000000 0.000000 75.000000
v -75.000000 0.000000 50.000000
v -75.000000 0.000000 25.000000
v -75.000000 0.000000 0.000000
v -75.000000 0.000000 -25.000000
v -75.000000 0.000000 -50.000000
v -75.000000 0.000000 -75.000000
v -50.000000 0.000000 75.000000
v -50.000000 0.000000 50.000000
v -50.000000 0.000000 25.000000
v -50.000000 0.000000 0.000000
v -50.000000 0.000000 -25.000000
v -50.000000 0.000000 -50.000000
v -50.000000 0.000000 -75.000000
v -25.000000 0.000000 75.000000
v -25.000000 0.000000 50.000000
v -25.000000 0.000000 25.000000
v -25.000000 0.000000 0.000000
v -25.000000 0.000000 -25.000000
v -25.000000 0.000000 -50.000000
v -25.000000 0.000000 -75.000000
v 0.000000 0.000000 75.000000
v 0.000000 0.000000 50.000000
v 0.000000 0.000000 25.000000
v 0.000000 0.000000 0.000000
v 0.000000 0.000000 -25.000000
v 0.000000 0.000000 -50.000000
v 0.000000 0.000000 -75.000000
v 25.000000 0.000000 75.000000
v 25.000000 0.000000 50.000000
v 25.000000 0.000000 25.000000
v 25.000000 0.000000 0.000000
v 25.000000 0.000000 -25.000000
v 25.000000 0.000000 -50.000000
v 25.000000 0.000000 -75.000000
v 50.000000 0.000000 75.000000
v 50.000000 0.000000 50.000000
v 50.000000 0.000000 25.000000
v 50.000000 0.000000 0.000000
v 50.000000 0.000000 -25.000000
v 50.000000 0.000000 -50.000000
v 50.000000 0.000000 -75.000000
v 75.000000 0.000000 75.000000
v 75.000000 0.000000 50.000000
v 75.000000 0.000000 25.000000
v 75.000000 0.000000 0.000000
v 75.000000 0.000000 -25.000000
v 75.000000 0.000000 -50.000000
v 75.000000 0.000000 -75.000000
vn -0.0000 1.0000 -0.0000
vt 1.000000 0.875000
vt 0.875000 1.000000
vt 0.875000 0.875000
vt 0.125000 0.875000
vt 0.000000 1.000000
vt 0.000000 0.875000
vt 0.250000 0.875000
vt 0.125000 1.000000
vt 0.375000 0.875000
vt 0.250000 1.000000
vt 0.500000 0.875000
vt 0.375000 1.000000
vt 0.625000 0.875000
vt 0.500000 1.000000
vt 0.750000 0.875000
vt 0.625000 1.000000
vt 0.750000 1.000000
vt 0.125000 0.000000
vt 0.000000 0.125000
vt 0.000000 0.000000
vt 0.125000 0.125000
vt 0.000000 0.250000
vt 0.125000 0.250000
vt 0.000000 0.375000
vt 0.125000 0.375000
vt 0.000000 0.500000
vt 0.125000 0.500000
vt 0.000000 0.625000
vt 0.125000 0.625000
vt 0.000000 0.750000
vt 0.125000 0.750000
vt 0.250000 0.000000
vt 0.250000 0.125000
vt 0.250000 0.250000
vt 0.250000 0.375000
vt 0.250000 0.500000
vt 0.250000 0.625000
vt 0.250000 0.750000
vt 0.375000 0.000000
vt 0.375000 0.125000
vt 0.375000 0.250000
vt 0.375000 0.375000
vt 0.375000 0.500000
vt 0.375000 0.625000
vt 0.375000 0.750000
vt 0.500000 0.000000
vt 0.500000 0.125000
vt 0.500000 0.250000
vt 0.500000 0.375000
vt 0.500000 0.500000
vt 0.500000 0.625000
vt 0.500000 0.750000
vt 0.625000 0.000000
vt 0.625000 0.125000
vt 0.625000 0.250000
vt 0.625000 0.375000
vt 0.625000 0.500000
vt 0.625000 0.625000
vt 0.625000 0.750000
vt 0.750000 0.000000
vt 0.750000 0.125000
vt 0.750000 0.250000
vt 0.750000 0.375000
vt 0.750000 0.500000
vt 0.750000 0.625000
vt 0.750000 0.750000
vt 0.875000 0.000000
vt 0.875000 0.125000
vt 0.875000 0.250000
vt 0.875000 0.375000
vt 0.875000 0.500000
vt 0.875000 0.625000
vt 0.875000 0.750000
vt 1.000000 0.000000
vt 1.000000 0.125000
vt 1.000000 0.250000
vt 1.000000 0.375000
vt 1.000000 0.500000
vt 1.000000 0.625000
vt 1.000000 0.750000
vt 1.000000 1.000000
s 0
usemtl White
f 39/4/1 2/5/1 26/6/1
f 53/9/1 10/10/1 46/7/1
f 67/13/1 8/14/1 60/11/1
f 81/3/1 6/17/1 74/15/1
f 33/21/1 31/22/1 32/19/1
f 35/25/1 29/26/1 30/24/1
f 37/29/1 27/30/1 28/28/1
f 20/32/1 33/21/1 19/18/1
f 41/34/1 35/25/1 34/23/1
f 43/36/1 37/29/1 36/27/1
f 45/38/1 39/4/1 38/31/1
f 47/40/1 41/34/1 40/33/1
f 49/42/1 43/36/1 42/35/1
f 51/44/1 45/38/1 44/37/1
f 22/46/1 47/40/1 21/39/1
f 55/48/1 49/42/1 48/41/1
f 57/50/1 51/44/1 50/43/1
f 59/52/1 53/9/1 52/45/1
f 61/54/1 55/48/1 54/47/1
f 63/56/1 57/50/1 56/49/1
f 65/58/1 59/52/1 58/51/1
f 24/60/1 61/54/1 23/53/1
f 69/62/1 63/56/1 62/55/1
f 71/64/1 65/58/1 64/57/1
f 73/66/1 67/13/1 66/59/1
f 75/68/1 69/62/1 68/61/1
f 77/70/1 71/64/1 70/63/1
f 79/72/1 73/66/1 72/65/1
f 3/74/1 75/68/1 25/67/1
f 13/76/1 77/70/1 76/69/1
f 15/78/1 79/72/1 78/71/1
f 17/80/1 81/3/1 80/73/1
f 39/4/1 11/8/1 2/5/1
f 53/9/1 9/12/1 10/10/1
f 67/13/1 7/16/1 8/14/1
f 81/3/1 5/2/1 6/17/1
f 33/21/1 34/23/1 31/22/1
f 35/25/1 36/27/1 29/26/1
f 37/29/1 38/31/1 27/30/1
f 20/32/1 40/33/1 33/21/1
f 41/34/1 42/35/1 35/25/1
f 43/36/1 44/37/1 37/29/1
f 45/38/1 46/7/1 39/4/1
f 47/40/1 48/41/1 41/34/1
f 49/42/1 50/43/1 43/36/1
f 51/44/1 52/45/1 45/38/1
f 22/46/1 54/47/1 47/40/1
f 55/48/1 56/49/1 49/42/1
f 57/50/1 58/51/1 51/44/1
f 59/52/1 60/11/1 53/9/1
f 61/54/1 62/55/1 55/48/1
f 63/56/1 64/57/1 57/50/1
f 65/58/1 66/59/1 59/52/1
f 24/60/1 68/61/1 61/54/1
f 69/62/1 70/63/1 63/56/1
f 71/64/1 72/65/1 65/58/1
f 73/66/1 74/15/1 67/13/1
f 75/68/1 76/69/1 69/62/1
f 77/70/1 78/71/1 71/64/1
f 79/72/1 80/73/1 73/66/1
f 3/74/1 12/75/1 75/68/1
f 13/76/1 14/77/1 77/70/1
f 15/78/1 16/79/1 79/72/1
f 17/80/1 18/1/1 81/3/1
usemtl Light_purple
f 18/1/1 5/2/1 81/3/1
f 46/7/1 11/8/1 39/4/1
f 60/11/1 9/12/1 53/9/1
f 74/15/1 7/16/1 67/13/1
f 19/18/1 32/19/1 4/20/1
f 34/23/1 30/24/1 31/22/1
f 36/27/1 28/28/1 29/26/1
f 38/31/1 26/6/1 27/30/1
f 40/33/1 34/23/1 33/21/1
f 42/35/1 36/27/1 35/25/1
f 44/37/1 38/31/1 37/29/1
f 21/39/1 40/33/1 20/32/1
f 48/41/1 42/35/1 41/34/1
f 50/43/1 44/37/1 43/36/1
f 52/45/1 46/7/1 45/38/1
f 54/47/1 48/41/1 47/40/1
f 56/49/1 50/43/1 49/42/1
f 58/51/1 52/45/1 51/44/1
f 23/53/1 54/47/1 22/46/1
f 62/55/1 56/49/1 55/48/1
f 64/57/1 58/51/1 57/50/1
f 66/59/1 60/11/1 59/52/1
f 68/61/1 62/55/1 61/54/1
f 70/63/1 64/57/1 63/56/1
f 72/65/1 66/59/1 65/58/1
f 25/67/1 68/61/1 24/60/1
f 76/69/1 70/63/1 69/62/1
f 78/71/1 72/65/1 71/64/1
f 80/73/1 74/15/1 73/66/1
f 12/75/1 76/69/1 75/68/1
f 14/77/1 78/71/1 77/70/1
f 16/79/1 80/73/1 79/72/1
f 18/1/1 1/81/1 5/2/1
f 46/7/1 10/10/1 11/8/1
f 60/11/1 8/14/1 9/12/1
f 74/15/1 6/17/1 7/16/1
f 19/18/1 33/21/1 32/19/1
f 34/23/1 35/25/1 30/24/1
f 36/27/1 37/29/1 28/28/1
f 38/31/1 39/4/1 26/6/1
f 40/33/1 41/34/1 34/23/1
f 42/35/1 43/36/1 36/27/1
f 44/37/1 45/38/1 38/31/1
f 21/39/1 47/40/1 40/33/1
f 48/41/1 49/42/1 42/35/1
f 50/43/1 51/44/1 44/37/1
f 52/45/1 53/9/1 46/7/1
f 54/47/1 55/48/1 48/41/1
f 56/49/1 57/50/1 50/43/1
f 58/51/1 59/52/1 52/45/1
f 23/53/1 61/54/1 54/47/1
f 62/55/1 63/56/1 56/49/1
f 64/57/1 65/58/1 58/51/1
f 66/59/1 67/13/1 60/11/1
f 68/61/1 69/62/1 62/55/1
f 70/63/1 71/64/1 64/57/1
f 72/65/1 73/66/1 66/59/1
f 25/67/1 75/68/1 68/61/1
f 76/69/1 77/70/1 70/63/1
f 78/71/1 79/72/1 72/65/1
f 80/73/1 81/3/1 74/15/1
f 12/75/1 13/76/1 76/69/1
f 14/77/1 15/78/1 78/71/1
f 16/79/1 17/80/1 80/73/1
