# Blender 4.4.3
# www.blender.org
mtllib ground.mtl
o ground
v -26.683203 -1.708678 -412.737366
v -74.024368 -1.708678 -419.764740
v -119.392303 -1.708678 -422.787445
v -161.526520 -1.708678 -421.139954
v -201.082169 -1.708678 -414.952942
v -236.045990 -1.708678 -402.818604
v -267.272369 -1.708678 -384.467377
v -297.776031 -1.708678 -360.260590
v -328.074127 -1.708678 -330.294952
v -355.839111 -1.708678 -294.290833
v -378.368683 -1.708678 -252.223267
v -396.353790 -1.708678 -206.515762
v -409.433502 -1.708678 -159.168808
v -416.312958 -1.708678 -111.577774
v -420.738129 -1.708678 -67.076050
v -424.327942 -1.708678 -27.976942
v -422.818481 -1.708678 8.022773
v -415.200439 -1.708678 43.064056
v -405.057281 -1.708678 76.763588
v -393.291779 -1.708678 108.219742
v -377.978149 -1.708678 137.810608
v -357.600037 -1.708678 165.825775
v -332.755493 -1.708678 192.076340
v -304.160858 -1.708678 216.387665
v -272.239319 -1.708678 237.013596
v -237.643661 -1.708678 253.255753
v -201.917480 -1.708678 268.770172
v -165.964737 -1.708678 283.951660
v -130.581345 -1.708678 298.597168
v -96.313210 -1.708678 313.061249
v -62.585003 -1.708678 329.157532
v -28.588070 -1.708678 345.273865
v 6.224940 -1.708678 360.921692
v 41.143707 -1.708678 373.969543
v 75.458069 -1.708678 382.315552
v 108.460846 -1.708678 383.888062
v 140.172745 -1.708678 376.700867
v 176.083954 -1.708678 359.912323
v 215.399170 -1.708678 335.006226
v 258.258759 -1.708680 298.102234
v 287.232849 -1.708680 255.697189
v 299.054108 -1.708680 221.478119
v 303.334167 -1.708680 188.269394
v 307.631195 -1.708680 153.529083
v 309.600555 -1.708678 124.167702
v 316.742035 -1.708678 95.166237
v 327.186401 -1.708678 64.559166
v 336.455597 -1.708678 33.187634
v 342.496460 -1.708678 1.497725
v 344.313965 -1.708678 -30.302294
v 341.045380 -1.708678 -62.061729
v 333.377167 -1.708678 -94.302414
v 322.119354 -1.708678 -126.729698
v 308.063538 -1.708678 -158.728943
v 292.052612 -1.708678 -189.694763
v 274.885345 -1.708678 -219.043411
v 257.263641 -1.708678 -246.220657
v 238.665817 -1.708678 -270.820679
v 216.304443 -1.708678 -294.957153
v 188.502136 -1.708678 -320.320251
v 154.727356 -1.708678 -345.000793
v 114.706207 -1.708678 -367.240662
v 69.748764 -1.708678 -386.197388
v 21.891262 -1.708678 -401.462585
v -269.072998 -1.708678 15.087447
v 9.709899 -1.708678 15.087443
v -76.665695 -1.708678 -447.943848
v -26.303526 -1.708678 -440.468048
v -124.928711 -1.708678 -451.159454
v -169.751663 -1.708678 -449.406830
v -211.831497 -1.708678 -442.824982
v -249.026474 -1.708678 -429.916321
v -282.245514 -1.708678 -410.394043
v -314.695709 -1.708678 -384.642548
v -346.927246 -1.708678 -352.764679
v -376.464020 -1.708678 -314.463013
v -400.431274 -1.708678 -269.710968
v -419.564056 -1.708678 -221.086716
v -433.478455 -1.708678 -170.718399
v -440.796906 -1.708678 -120.090401
v -445.504456 -1.708678 -72.748878
v -449.323334 -1.708678 -31.154722
v -447.717560 -1.708678 7.142260
v -439.613373 -1.708678 44.419647
v -428.822968 -1.708678 80.269661
v -416.306671 -1.708678 113.733147
v -400.015808 -1.708678 145.212296
v -378.337311 -1.708678 175.015213
v -351.907349 -1.708678 202.940918
v -321.487976 -1.708678 228.803635
v -287.529419 -1.708678 250.745773
v -250.726105 -1.708678 268.024414
v -212.720108 -1.708678 284.528870
v -174.473099 -1.708678 300.679108
v -136.831772 -1.708678 316.259216
v -100.376862 -1.708678 331.646301
v -64.496346 -1.708678 348.769745
v -28.329948 -1.708678 365.914520
v 8.704601 -1.708678 382.560883
v 45.851650 -1.708678 396.441345
v 82.355728 -1.708678 405.319946
v 117.464523 -1.708678 406.992798
v 151.200073 -1.708678 399.346985
v 189.402908 -1.708680 381.487091
v 231.228317 -1.708680 354.990112
v 277.780762 -1.708680 314.640900
v 330.344513 -1.708680 271.251312
v 329.383484 -1.708680 229.272018
v 330.669647 -1.708680 197.049347
v 336.046509 -1.708680 160.363663
v 336.620270 -1.708678 129.485016
v 340.833130 -1.708678 99.425804
v 350.147705 -1.708678 67.286430
v 360.008423 -1.708678 33.912979
v 366.434753 -1.708678 0.200827
v 368.368256 -1.708678 -33.628464
v 364.891083 -1.708678 -67.414574
v 356.733551 -1.708678 -101.712646
v 344.757324 -1.708678 -136.209244
v 329.804565 -1.708678 -170.250458
v 312.771912 -1.708678 -203.192307
v 294.509155 -1.708678 -234.413803
v 275.762939 -1.708678 -263.325317
v 255.978333 -1.708678 -289.495148
v 232.190002 -1.708678 -315.171875
v 202.613525 -1.708678 -342.153473
v 166.683472 -1.708678 -368.408966
v 124.108429 -1.708678 -392.068024
v 76.282089 -1.708678 -412.234436
v 25.370644 -1.708678 -428.473785
v -91.259041 -39.352753 -540.085510
v -30.505148 -39.352753 -531.067200
v -149.480652 -39.352753 -543.964661
v -203.552368 -39.352753 -541.850403
v -254.314957 -39.352753 -533.910461
v -299.184723 -39.352753 -518.338196
v -339.258179 -39.352753 -494.787720
v -378.404114 -39.352753 -463.722656
v -417.286316 -39.352753 -425.267120
v -452.917694 -39.352753 -379.062286
v -481.830353 -39.352753 -325.076111
v -504.910980 -39.352753 -266.418732
v -521.696472 -39.352753 -205.657455
v -530.525024 -39.352753 -144.582855
v -536.203918 -39.352753 -87.472900
v -540.810791 -39.352753 -37.296211
v -538.873718 -39.352753 8.902965
v -529.097290 -39.352753 53.872154
v -516.080383 -39.352753 97.119461
v -500.981476 -39.352753 137.487793
v -481.329163 -39.352753 175.462326
v -455.177521 -39.352753 211.414795
v -423.294006 -39.352753 245.102707
v -386.597900 -39.352753 276.301910
v -345.632355 -39.352753 302.771545
v -301.235016 -39.352753 323.615479
v -255.386917 -39.352753 343.525482
v -209.248032 -39.352753 363.008148
v -163.839783 -39.352753 381.803040
v -119.862770 -39.352753 400.365112
v -76.578674 -39.352753 421.021790
v -32.949707 -39.352753 441.704224
v 11.726545 -39.352753 461.785400
v 56.538506 -39.352753 478.529938
v 100.574837 -39.352753 489.240570
v 142.927963 -39.352753 491.258606
v 209.022827 -39.352753 508.234344
v 427.071259 -39.352749 293.947937
v 418.192078 -39.352749 263.413910
v 410.698120 -39.352749 235.736404
v 410.874908 -39.352749 192.741333
v 412.060516 -39.352749 155.375565
v 413.948456 -39.352753 119.862312
v 423.622955 -39.352753 81.457275
v 435.518341 -39.352753 41.197548
v 443.270660 -39.352753 0.529238
v 445.603119 -39.352753 -40.280380
v 441.408508 -39.352753 -81.037910
v 431.567719 -39.352753 -122.413048
v 417.120331 -39.352753 -164.027679
v 399.082214 -39.352753 -205.092926
v 378.535034 -39.352753 -244.832001
v 356.503967 -39.352753 -282.495728
v 333.889648 -39.352753 -317.372833
v 310.022675 -39.352753 -348.942535
v 281.325897 -39.352753 -379.917389
v 245.646591 -39.352753 -412.466400
v 202.302750 -39.352753 -444.139435
v 150.942780 -39.352753 -472.680298
v 93.247955 -39.352753 -497.007843
v 31.831459 -39.352753 -516.598022
v 288.471222 -1.708680 458.299377
v 254.629456 -1.708678 455.055206
v 344.074341 -1.708680 443.074829
v 376.884460 -1.708680 402.890533
v 378.582703 -1.708677 353.669281
v 357.091736 -39.352749 526.740051
v 284.182831 -39.352753 522.671326
v 426.338531 -39.352749 515.214844
v 453.667816 -39.352749 452.548523
v 465.095154 -39.352753 383.233673
v 326.125214 -1.708680 360.140045
v 437.829620 -39.352753 342.340393
v 287.650635 -1.708680 399.033264
v 246.602814 -39.352753 515.452820
v 356.933655 -1.708678 299.957092
v 238.937073 -1.708680 419.893250
v 216.928589 -1.708678 439.661255
vn -0.0000 1.0000 -0.0000
vn 0.4397 0.8978 0.0251
vn -0.2805 0.9014 0.3299
vn 0.4346 0.8995 -0.0447
vn -0.2429 0.8943 0.3759
vn 0.4246 0.8997 -0.1010
vn -0.1974 0.8856 0.4204
vn 0.4128 0.8995 -0.1433
vn -0.1864 0.8838 0.4291
vn 0.4003 0.8994 -0.1758
vn -0.1823 0.8834 0.4318
vn 0.0572 0.9210 -0.3853
vn 0.3879 0.8996 -0.2006
vn -0.1794 0.8832 0.4333
vn 0.0254 0.9240 -0.3815
vn 0.3760 0.9001 -0.2199
vn -0.1824 0.8832 0.4321
vn -0.0146 0.9279 -0.3725
vn 0.3640 0.9010 -0.2360
vn -0.2031 0.8819 0.4255
vn -0.0561 0.9317 -0.3589
vn 0.3433 0.9027 -0.2595
vn -0.2018 0.8820 0.4258
vn -0.1155 0.9359 -0.3329
vn 0.3122 0.9049 -0.2892
vn -0.1920 0.8836 0.4272
vn -0.1760 0.9378 -0.2994
vn 0.2842 0.9067 -0.3115
vn -0.1602 0.8892 0.4286
vn -0.2161 0.9376 -0.2723
vn 0.2458 0.9091 -0.3363
vn -0.1035 0.8989 0.4257
vn -0.2455 0.9371 -0.2483
vn 0.1996 0.9116 -0.3593
vn -0.0197 0.9106 0.4127
vn -0.2790 0.9359 -0.2152
vn 0.1578 0.9138 -0.3742
vn 0.0871 0.9191 0.3843
vn -0.3164 0.9334 -0.1694
vn 0.1220 0.9159 -0.3823
vn -0.3397 0.9310 -0.1336
vn 0.0895 0.9183 -0.3857
vn -0.3572 0.9288 -0.0987
vn -0.3737 0.9260 -0.0540
vn -0.3779 0.9251 -0.0376
vn 0.3932 0.9194 -0.0090
vn -0.3783 0.9250 -0.0347
vn 0.4190 0.9079 0.0167
vn -0.3814 0.9243 0.0160
vn 0.4268 0.9022 0.0626
vn -0.3790 0.9217 0.0824
vn 0.4442 0.8959 0.0083
vn -0.3751 0.9201 0.1129
vn 0.4431 0.8943 0.0621
vn -0.3697 0.9188 0.1383
vn 0.4267 0.8959 0.1237
vn -0.3557 0.9163 0.1841
vn 0.4326 0.8925 0.1278
vn -0.3322 0.9117 0.2416
vn 0.4381 0.8950 0.0835
vn -0.3066 0.9065 0.2902
vn -0.0481 0.8636 0.5018
vn 0.1079 0.9128 0.3939
vn 0.2964 0.9239 0.2420
vn 0.3950 0.9186 0.0136
vn 0.4978 0.8438 -0.2006
vn -0.2035 0.8428 0.4983
vn -0.2695 0.8569 0.4394
vn 0.4116 0.8278 -0.3813
vn -0.0197 0.9106 0.4128
vn -0.0950 0.9242 0.3700
vn 0.3830 0.9170 -0.1114
vn 0.4248 0.8979 -0.1150
vn 0.4250 0.9052 0.0017
vn 0.4445 0.8957 0.0141
vn 0.4399 0.8977 0.0234
vn 0.4363 0.8930 0.1099
vn -0.0281 0.8637 0.5032
vn 0.0667 0.9138 0.4008
vn 0.3113 0.9406 0.1358
vn 0.4042 0.9123 0.0666
vn 0.4666 0.8280 -0.3111
vn -0.0993 0.8503 0.5168
vn -0.0905 0.8774 0.4712
vn 0.4635 0.8801 -0.1030
vt 0.000000 0.000000
s 0
usemtl sand
f 124/1/1 59/1/1 58/1/1
f 71/1/1 6/1/1 5/1/1
f 32/1/1 97/1/1 98/1/1
f 123/1/1 58/1/1 57/1/1
f 70/1/1 5/1/1 4/1/1
f 31/1/1 96/1/1 97/1/1
f 122/1/1 57/1/1 56/1/1
f 33/1/1 98/1/1 99/1/1
f 6/1/1 73/1/1 7/1/1
f 125/1/1 60/1/1 59/1/1
f 99/1/1 34/1/1 33/1/1
f 7/1/1 74/1/1 8/1/1
f 126/1/1 61/1/1 60/1/1
f 100/1/1 35/1/1 34/1/1
f 8/1/1 75/1/1 9/1/1
f 127/1/1 62/1/1 61/1/1
f 101/1/1 36/1/1 35/1/1
f 9/1/1 76/1/1 10/1/1
f 128/1/1 63/1/1 62/1/1
f 102/1/1 37/1/1 36/1/1
f 10/1/1 77/1/1 11/1/1
f 129/1/1 64/1/1 63/1/1
f 103/1/1 38/1/1 37/1/1
f 11/1/1 78/1/1 12/1/1
f 130/1/1 1/1/1 64/1/1
f 104/1/1 39/1/1 38/1/1
f 12/1/1 79/1/1 13/1/1
f 105/1/1 40/1/1 39/1/1
f 13/1/1 80/1/1 14/1/1
f 106/1/1 41/1/1 40/1/1
f 14/1/1 81/1/1 15/1/1
f 41/1/1 108/1/1 42/1/1
f 15/1/1 82/1/1 16/1/1
f 42/1/1 109/1/1 43/1/1
f 16/1/1 83/1/1 17/1/1
f 43/1/1 110/1/1 44/1/1
f 17/1/1 84/1/1 18/1/1
f 44/1/1 111/1/1 45/1/1
f 18/1/1 85/1/1 19/1/1
f 111/1/1 46/1/1 45/1/1
f 19/1/1 86/1/1 20/1/1
f 112/1/1 47/1/1 46/1/1
f 20/1/1 87/1/1 21/1/1
f 113/1/1 48/1/1 47/1/1
f 21/1/1 88/1/1 22/1/1
f 114/1/1 49/1/1 48/1/1
f 22/1/1 89/1/1 23/1/1
f 115/1/1 50/1/1 49/1/1
f 23/1/1 90/1/1 24/1/1
f 116/1/1 51/1/1 50/1/1
f 24/1/1 91/1/1 25/1/1
f 117/1/1 52/1/1 51/1/1
f 25/1/1 92/1/1 26/1/1
f 118/1/1 53/1/1 52/1/1
f 26/1/1 93/1/1 27/1/1
f 119/1/1 54/1/1 53/1/1
f 27/1/1 94/1/1 28/1/1
f 68/1/1 2/1/1 1/1/1
f 120/1/1 55/1/1 54/1/1
f 28/1/1 95/1/1 29/1/1
f 67/1/1 3/1/1 2/1/1
f 121/1/1 56/1/1 55/1/1
f 30/1/1 95/1/1 96/1/1
f 69/1/1 4/1/1 3/1/1
f 176/1/2 116/1/2 115/1/2
f 89/1/3 154/1/3 90/1/3
f 177/1/4 117/1/4 116/1/4
f 90/1/5 155/1/5 91/1/5
f 117/1/6 179/1/6 118/1/6
f 91/1/7 156/1/7 92/1/7
f 118/1/8 180/1/8 119/1/8
f 92/1/9 157/1/9 93/1/9
f 180/1/10 120/1/10 119/1/10
f 93/1/11 158/1/11 94/1/11
f 132/1/12 67/1/12 68/1/12
f 181/1/13 121/1/13 120/1/13
f 94/1/14 159/1/14 95/1/14
f 131/1/15 69/1/15 67/1/15
f 182/1/16 122/1/16 121/1/16
f 96/1/17 159/1/17 160/1/17
f 133/1/18 70/1/18 69/1/18
f 183/1/19 123/1/19 122/1/19
f 97/1/20 160/1/20 161/1/20
f 134/1/21 71/1/21 70/1/21
f 184/1/22 124/1/22 123/1/22
f 98/1/23 161/1/23 162/1/23
f 135/1/24 72/1/24 71/1/24
f 185/1/25 125/1/25 124/1/25
f 99/1/26 162/1/26 163/1/26
f 136/1/27 73/1/27 72/1/27
f 186/1/28 126/1/28 125/1/28
f 163/1/29 100/1/29 99/1/29
f 73/1/30 138/1/30 74/1/30
f 187/1/31 127/1/31 126/1/31
f 164/1/32 101/1/32 100/1/32
f 74/1/33 139/1/33 75/1/33
f 188/1/34 128/1/34 127/1/34
f 165/1/35 102/1/35 101/1/35
f 75/1/36 140/1/36 76/1/36
f 189/1/37 129/1/37 128/1/37
f 166/1/38 103/1/38 102/1/38
f 76/1/39 141/1/39 77/1/39
f 190/1/40 130/1/40 129/1/40
f 202/1/1 196/1/1 206/1/1
f 77/1/41 142/1/41 78/1/41
f 191/1/42 68/1/42 130/1/42
f 78/1/43 143/1/43 79/1/43
f 194/1/1 202/1/1 204/1/1
f 79/1/44 144/1/44 80/1/44
f 80/1/45 145/1/45 81/1/45
f 107/1/46 169/1/46 108/1/46
f 81/1/47 146/1/47 82/1/47
f 108/1/48 170/1/48 109/1/48
f 82/1/49 147/1/49 83/1/49
f 109/1/50 171/1/50 110/1/50
f 83/1/51 148/1/51 84/1/51
f 110/1/52 172/1/52 111/1/52
f 84/1/53 149/1/53 85/1/53
f 111/1/54 173/1/54 112/1/54
f 85/1/55 150/1/55 86/1/55
f 173/1/56 113/1/56 112/1/56
f 86/1/57 151/1/57 87/1/57
f 174/1/58 114/1/58 113/1/58
f 87/1/59 152/1/59 88/1/59
f 175/1/60 115/1/60 114/1/60
f 88/1/61 153/1/61 89/1/61
f 198/1/62 192/1/62 193/1/62
f 197/1/63 194/1/63 192/1/63
f 194/1/64 200/1/64 195/1/64
f 195/1/65 201/1/65 196/1/65
f 196/1/66 203/1/66 206/1/66
f 193/1/1 207/1/1 208/1/1
f 192/1/1 204/1/1 207/1/1
f 205/1/67 193/1/67 208/1/67
f 167/1/68 208/1/68 103/1/68
f 207/1/1 105/1/1 104/1/1
f 208/1/1 104/1/1 103/1/1
f 206/1/69 168/1/69 107/1/69
f 204/1/1 106/1/1 105/1/1
f 106/1/1 206/1/1 107/1/1
f 124/1/1 125/1/1 59/1/1
f 71/1/1 72/1/1 6/1/1
f 32/1/1 31/1/1 97/1/1
f 123/1/1 124/1/1 58/1/1
f 70/1/1 71/1/1 5/1/1
f 31/1/1 30/1/1 96/1/1
f 122/1/1 123/1/1 57/1/1
f 33/1/1 32/1/1 98/1/1
f 6/1/1 72/1/1 73/1/1
f 125/1/1 126/1/1 60/1/1
f 99/1/1 100/1/1 34/1/1
f 7/1/1 73/1/1 74/1/1
f 126/1/1 127/1/1 61/1/1
f 100/1/1 101/1/1 35/1/1
f 8/1/1 74/1/1 75/1/1
f 127/1/1 128/1/1 62/1/1
f 101/1/1 102/1/1 36/1/1
f 9/1/1 75/1/1 76/1/1
f 128/1/1 129/1/1 63/1/1
f 102/1/1 103/1/1 37/1/1
f 10/1/1 76/1/1 77/1/1
f 129/1/1 130/1/1 64/1/1
f 103/1/1 104/1/1 38/1/1
f 11/1/1 77/1/1 78/1/1
f 130/1/1 68/1/1 1/1/1
f 104/1/1 105/1/1 39/1/1
f 12/1/1 78/1/1 79/1/1
f 105/1/1 106/1/1 40/1/1
f 13/1/1 79/1/1 80/1/1
f 106/1/1 107/1/1 41/1/1
f 14/1/1 80/1/1 81/1/1
f 41/1/1 107/1/1 108/1/1
f 15/1/1 81/1/1 82/1/1
f 42/1/1 108/1/1 109/1/1
f 16/1/1 82/1/1 83/1/1
f 43/1/1 109/1/1 110/1/1
f 17/1/1 83/1/1 84/1/1
f 44/1/1 110/1/1 111/1/1
f 18/1/1 84/1/1 85/1/1
f 111/1/1 112/1/1 46/1/1
f 19/1/1 85/1/1 86/1/1
f 112/1/1 113/1/1 47/1/1
f 20/1/1 86/1/1 87/1/1
f 113/1/1 114/1/1 48/1/1
f 21/1/1 87/1/1 88/1/1
f 114/1/1 115/1/1 49/1/1
f 22/1/1 88/1/1 89/1/1
f 115/1/1 116/1/1 50/1/1
f 23/1/1 89/1/1 90/1/1
f 116/1/1 117/1/1 51/1/1
f 24/1/1 90/1/1 91/1/1
f 117/1/1 118/1/1 52/1/1
f 25/1/1 91/1/1 92/1/1
f 118/1/1 119/1/1 53/1/1
f 26/1/1 92/1/1 93/1/1
f 119/1/1 120/1/1 54/1/1
f 27/1/1 93/1/1 94/1/1
f 68/1/1 67/1/1 2/1/1
f 120/1/1 121/1/1 55/1/1
f 28/1/1 94/1/1 95/1/1
f 67/1/1 69/1/1 3/1/1
f 121/1/1 122/1/1 56/1/1
f 30/1/1 29/1/1 95/1/1
f 69/1/1 70/1/1 4/1/1
f 176/1/2 177/1/2 116/1/2
f 89/1/3 153/1/3 154/1/3
f 177/1/4 178/1/4 117/1/4
f 90/1/5 154/1/5 155/1/5
f 117/1/6 178/1/6 179/1/6
f 91/1/7 155/1/7 156/1/7
f 118/1/8 179/1/8 180/1/8
f 92/1/9 156/1/9 157/1/9
f 180/1/10 181/1/10 120/1/10
f 93/1/11 157/1/11 158/1/11
f 132/1/12 131/1/12 67/1/12
f 181/1/13 182/1/13 121/1/13
f 94/1/14 158/1/14 159/1/14
f 131/1/15 133/1/15 69/1/15
f 182/1/16 183/1/16 122/1/16
f 96/1/17 95/1/17 159/1/17
f 133/1/18 134/1/18 70/1/18
f 183/1/19 184/1/19 123/1/19
f 97/1/20 96/1/20 160/1/20
f 134/1/21 135/1/21 71/1/21
f 184/1/22 185/1/22 124/1/22
f 98/1/23 97/1/23 161/1/23
f 135/1/24 136/1/24 72/1/24
f 185/1/25 186/1/25 125/1/25
f 99/1/26 98/1/26 162/1/26
f 136/1/27 137/1/27 73/1/27
f 186/1/28 187/1/28 126/1/28
f 163/1/29 164/1/29 100/1/29
f 73/1/30 137/1/30 138/1/30
f 187/1/31 188/1/31 127/1/31
f 164/1/32 165/1/32 101/1/32
f 74/1/33 138/1/33 139/1/33
f 188/1/34 189/1/34 128/1/34
f 165/1/70 166/1/70 102/1/70
f 75/1/36 139/1/36 140/1/36
f 189/1/37 190/1/37 129/1/37
f 166/1/71 167/1/71 103/1/71
f 76/1/39 140/1/39 141/1/39
f 190/1/40 191/1/40 130/1/40
f 202/1/1 195/1/1 196/1/1
f 77/1/41 141/1/41 142/1/41
f 191/1/42 132/1/42 68/1/42
f 78/1/43 142/1/43 143/1/43
f 194/1/1 195/1/1 202/1/1
f 79/1/44 143/1/44 144/1/44
f 80/1/45 144/1/45 145/1/45
f 107/1/72 168/1/72 169/1/72
f 81/1/47 145/1/47 146/1/47
f 108/1/73 169/1/73 170/1/73
f 82/1/49 146/1/49 147/1/49
f 109/1/74 170/1/74 171/1/74
f 83/1/51 147/1/51 148/1/51
f 110/1/75 171/1/75 172/1/75
f 84/1/53 148/1/53 149/1/53
f 111/1/76 172/1/76 173/1/76
f 85/1/55 149/1/55 150/1/55
f 173/1/77 174/1/77 113/1/77
f 86/1/57 150/1/57 151/1/57
f 174/1/58 175/1/58 114/1/58
f 87/1/59 151/1/59 152/1/59
f 175/1/60 176/1/60 115/1/60
f 88/1/61 152/1/61 153/1/61
f 198/1/78 197/1/78 192/1/78
f 197/1/79 199/1/79 194/1/79
f 194/1/80 199/1/80 200/1/80
f 195/1/81 200/1/81 201/1/81
f 196/1/82 201/1/82 203/1/82
f 193/1/1 192/1/1 207/1/1
f 192/1/1 194/1/1 204/1/1
f 205/1/83 198/1/83 193/1/83
f 167/1/84 205/1/84 208/1/84
f 207/1/1 204/1/1 105/1/1
f 208/1/1 207/1/1 104/1/1
f 206/1/85 203/1/85 168/1/85
f 204/1/1 202/1/1 106/1/1
f 106/1/1 202/1/1 206/1/1
usemtl grass
f 66/1/1 45/1/1 62/1/1
f 64/1/1 1/1/1 2/1/1
f 2/1/1 3/1/1 4/1/1
f 4/1/1 5/1/1 6/1/1
f 6/1/1 7/1/1 8/1/1
f 8/1/1 9/1/1 10/1/1
f 10/1/1 11/1/1 12/1/1
f 12/1/1 13/1/1 14/1/1
f 14/1/1 15/1/1 16/1/1
f 16/1/1 17/1/1 18/1/1
f 18/1/1 19/1/1 20/1/1
f 20/1/1 21/1/1 22/1/1
f 22/1/1 23/1/1 24/1/1
f 24/1/1 25/1/1 65/1/1
f 66/1/1 33/1/1 34/1/1
f 22/1/1 24/1/1 65/1/1
f 66/1/1 34/1/1 35/1/1
f 20/1/1 22/1/1 65/1/1
f 66/1/1 35/1/1 36/1/1
f 18/1/1 20/1/1 65/1/1
f 66/1/1 36/1/1 37/1/1
f 16/1/1 18/1/1 65/1/1
f 66/1/1 37/1/1 38/1/1
f 16/1/1 65/1/1 66/1/1
f 12/1/1 14/1/1 16/1/1
f 8/1/1 10/1/1 12/1/1
f 4/1/1 6/1/1 8/1/1
f 64/1/1 2/1/1 4/1/1
f 62/1/1 63/1/1 64/1/1
f 60/1/1 61/1/1 62/1/1
f 58/1/1 59/1/1 60/1/1
f 56/1/1 57/1/1 58/1/1
f 54/1/1 55/1/1 56/1/1
f 52/1/1 53/1/1 54/1/1
f 50/1/1 51/1/1 52/1/1
f 48/1/1 49/1/1 50/1/1
f 46/1/1 47/1/1 48/1/1
f 43/1/1 44/1/1 45/1/1
f 46/1/1 48/1/1 50/1/1
f 42/1/1 43/1/1 45/1/1
f 45/1/1 46/1/1 50/1/1
f 50/1/1 52/1/1 54/1/1
f 54/1/1 56/1/1 58/1/1
f 58/1/1 60/1/1 62/1/1
f 62/1/1 64/1/1 4/1/1
f 4/1/1 8/1/1 12/1/1
f 12/1/1 16/1/1 66/1/1
f 66/1/1 38/1/1 39/1/1
f 39/1/1 40/1/1 41/1/1
f 41/1/1 42/1/1 45/1/1
f 45/1/1 50/1/1 54/1/1
f 54/1/1 58/1/1 62/1/1
f 62/1/1 4/1/1 12/1/1
f 66/1/1 39/1/1 41/1/1
f 62/1/1 12/1/1 66/1/1
f 45/1/1 54/1/1 62/1/1
f 66/1/1 41/1/1 45/1/1
usemtl Concrete
f 30/1/1 66/1/1 25/1/1
f 25/1/1 26/1/1 27/1/1
f 27/1/1 28/1/1 29/1/1
f 30/1/1 31/1/1 32/1/1
f 25/1/1 27/1/1 29/1/1
f 30/1/1 32/1/1 33/1/1
f 25/1/1 29/1/1 30/1/1
f 66/1/1 65/1/1 25/1/1
f 30/1/1 33/1/1 66/1/1
