# Blender 4.4.3
# www.blender.org
mtllib earth.mtl
o ground_placeholder
v -40.000000 -2.581887 40.000000
v 40.000000 3.746001 40.000000
v -40.000000 0.000000 -40.000000
v 40.000000 0.000000 -40.000000
v -40.000000 0.000000 -32.727272
v -40.000000 0.000000 -25.454544
v -40.000000 0.000000 -18.181816
v -40.000000 0.000000 -10.909089
v -40.000000 -1.133819 -3.636362
v -40.000000 -2.581887 3.636365
v -40.000000 -2.581887 10.909092
v -40.000000 -2.581887 18.181820
v -40.000000 -2.581887 25.454548
v -40.000000 -2.581887 32.727272
v -32.727272 -2.581887 40.000000
v -25.454544 -2.581887 40.000000
v -18.181816 -2.581887 40.000000
v -10.909089 -1.133819 40.000000
v -3.636362 0.000000 40.000000
v 3.636365 0.000000 40.000000
v 10.909092 0.227977 40.000000
v 18.181820 3.746001 40.000000
v 25.454548 6.151756 40.000000
v 32.727272 6.151756 40.000000
v 40.000000 6.151756 32.727272
v 40.000000 6.151756 25.454544
v 40.000000 6.151756 18.181816
v 40.000000 6.151756 10.909089
v 40.000000 3.746002 3.636362
v 40.000000 0.227977 -3.636365
v 40.000000 0.000000 -10.909092
v 40.000000 0.000000 -18.181820
v 40.000000 0.000000 -25.454548
v 40.000000 0.000000 -32.727272
v 32.727272 0.000000 -40.000000
v 25.454544 0.000000 -40.000000
v 18.181816 0.000000 -40.000000
v 10.909089 0.000000 -40.000000
v 3.636362 0.000000 -40.000000
v -3.636365 0.000000 -40.000000
v -10.909092 0.000000 -40.000000
v -18.181820 0.000000 -40.000000
v -25.454548 0.000000 -40.000000
v -32.727272 0.000000 -40.000000
v -32.727272 -2.581887 32.727272
v -32.727272 -2.581887 25.454544
v -32.727272 -2.581887 18.181816
v -32.727272 -2.581887 10.909089
v -32.727272 -2.581887 3.636362
v -32.727272 -1.133819 -3.636365
v -32.727272 0.000000 -10.909092
v -32.727272 0.000000 -18.181820
v -32.727272 0.000000 -25.454548
v -32.727272 0.000000 -32.727272
v -25.454544 -2.581887 32.727272
v -25.454544 -2.581887 25.454544
v -25.454544 -2.581887 18.181816
v -25.454544 -1.133819 10.909089
v -25.454544 -1.133819 3.636362
v -25.454544 -0.361828 -3.636365
v -25.454544 0.000000 -10.909092
v -25.454544 0.000000 -18.181820
v -25.454546 0.000000 -25.454548
v -25.454548 0.000000 -32.727272
v -18.181816 -2.581887 32.727272
v -18.181816 -1.133819 25.454544
v -18.181816 -1.133819 18.181816
v -18.181816 -0.361828 10.909089
v -18.181816 0.000000 3.636362
v -18.181816 0.000000 -3.636365
v -18.181816 0.000000 -10.909092
v -18.181816 0.000000 -18.181820
v -18.181818 0.000000 -25.454548
v -18.181820 0.000000 -32.727272
v -10.909089 -1.133819 32.727272
v -10.909089 -0.361828 25.454544
v -10.909089 0.000000 18.181816
v -10.909089 0.000000 10.909089
v -10.909089 0.000000 3.636362
v -10.909090 0.000000 -3.636365
v -10.909090 0.000000 -10.909092
v -10.909090 0.000000 -18.181820
v -10.909091 0.000000 -25.454548
v -10.909092 0.000000 -32.727272
v -3.636362 0.000000 32.727272
v -3.636363 0.000000 25.454544
v -3.636363 0.000000 18.181816
v -3.636363 0.000000 10.909089
v -3.636363 0.000000 3.636362
v -3.636364 0.000000 -3.636365
v -3.636364 0.000000 -10.909092
v -3.636364 0.000000 -18.181820
v -3.636364 0.000000 -25.454548
v -3.636364 0.000000 -32.727272
v 3.636365 0.000000 32.727272
v 3.636364 0.000000 25.454544
v 3.636364 0.000000 18.181816
v 3.636364 0.000000 10.909089
v 3.636364 0.000000 3.636362
v 3.636364 0.000000 -3.636365
v 3.636363 0.000000 -10.909092
v 3.636363 0.000000 -18.181820
v 3.636363 0.000000 -25.454548
v 3.636363 0.000000 -32.727272
v 10.909092 0.889157 32.727272
v 10.909092 0.889157 25.454544
v 10.909092 0.889157 18.181816
v 10.909092 0.889157 10.909089
v 10.909092 0.227977 3.636362
v 10.909092 0.000000 -3.636365
v 10.909091 0.000000 -10.909092
v 10.909090 0.000000 -18.181820
v 10.909090 0.000000 -25.454548
v 10.909090 0.000000 -32.727272
v 18.181820 6.151756 32.727272
v 18.181820 6.151756 25.454544
v 18.181820 6.151756 18.181816
v 18.181820 6.151756 10.909089
v 18.181820 3.746002 3.636362
v 18.181820 0.227977 -3.636365
v 18.181820 0.000000 -10.909092
v 18.181820 0.000000 -18.181820
v 18.181818 0.000000 -25.454548
v 18.181816 0.000000 -32.727272
v 25.454548 9.626554 32.727272
v 25.454548 9.626554 25.454544
v 25.454548 9.626554 18.181816
v 25.454548 9.626554 10.909089
v 25.454548 6.151756 3.636362
v 25.454548 0.889158 -3.636365
v 25.454548 0.000000 -10.909092
v 25.454548 0.000000 -18.181820
v 25.454546 0.000000 -25.454548
v 25.454544 0.000000 -32.727272
v 32.727272 9.626554 32.727272
v 32.727272 9.626554 25.454544
v 32.727272 9.626554 18.181816
v 32.727272 9.626554 10.909089
v 32.727272 6.151756 3.636362
v 32.727272 0.889158 -3.636365
v 32.727272 0.000000 -10.909092
v 32.727272 0.000000 -18.181820
v 32.727272 0.000000 -25.454548
v 32.727272 0.000000 -32.727272
vn -0.0000 1.0000 -0.0000
vn -0.0000 0.9807 0.1953
vn -0.0000 0.9881 0.1540
vn -0.1953 0.9807 -0.0000
vn -0.1917 0.9626 0.1917
vn -0.1043 0.9827 0.1532
vn -0.1056 0.9944 -0.0000
vn -0.1532 0.9827 0.1043
vn -0.0496 0.9975 0.0496
vn -0.1540 0.9881 -0.0000
vn -0.0313 0.9995 -0.0000
vn -0.1214 0.9926 -0.0000
vn -0.4340 0.8972 0.0816
vn -0.5862 0.8101 -0.0000
vn -0.4340 0.8972 -0.0816
vn -0.0313 0.9990 -0.0313
vn -0.2996 0.9058 0.2996
vn -0.4311 0.9023 -0.0000
vn -0.2996 0.9058 -0.2996
vn -0.0816 0.8972 -0.4340
vn -0.0000 0.9995 -0.0313
vn -0.0000 0.9023 0.4311
vn -0.0000 0.9023 -0.4311
vn -0.0000 0.8101 -0.5862
vn -0.0000 0.9926 -0.1214
vn 0.3959 0.8286 0.3959
vn 0.4311 0.9023 -0.0000
vn 0.3959 0.8286 -0.3959
vn 0.2589 0.7825 -0.5662
vn 0.0899 0.9886 -0.1209
vn -0.1050 0.9889 0.1050
vn -0.0000 0.9988 0.0497
vn -0.1539 0.9869 0.0491
vn -0.0497 0.9988 -0.0000
vn -0.1209 0.9886 0.0899
vn -0.1209 0.9886 -0.0899
vn -0.5662 0.7825 0.2589
vn -0.5662 0.7825 -0.2589
vn -0.3992 0.8254 -0.3992
vn -0.3959 0.8286 0.3959
vn -0.3959 0.8286 -0.3959
vn -0.2589 0.7825 -0.5662
vn -0.0899 0.9886 -0.1209
vn 0.2996 0.9058 0.2996
vn 0.2996 0.9058 -0.2996
vn 0.0816 0.8972 -0.4340
vt 1.000000 0.909091
vt 0.909091 1.000000
vt 0.909091 0.909091
vt 0.090909 0.909091
vt 0.000000 1.000000
vt 0.000000 0.909091
vt 0.181818 0.909091
vt 0.090909 1.000000
vt 0.272727 0.909091
vt 0.181818 1.000000
vt 0.363636 0.909091
vt 0.272727 1.000000
vt 0.454545 0.909091
vt 0.363636 1.000000
vt 0.545455 1.000000
vt 0.454545 1.000000
vt 0.545455 0.909091
vt 0.636364 1.000000
vt 0.727273 0.909091
vt 0.636364 0.909091
vt 0.818182 0.909091
vt 0.727273 1.000000
vt 0.818182 1.000000
vt 0.090909 0.000000
vt 0.000000 0.090909
vt 0.000000 0.000000
vt 0.090909 0.090909
vt 0.000000 0.181818
vt 0.090909 0.181818
vt 0.000000 0.272727
vt 0.090909 0.272727
vt 0.000000 0.363636
vt 0.090909 0.363636
vt 0.000000 0.454545
vt 0.090909 0.454545
vt 0.000000 0.545455
vt 0.090909 0.545455
vt 0.000000 0.636364
vt 0.090909 0.636364
vt 0.000000 0.727273
vt 0.090909 0.727273
vt 0.000000 0.818182
vt 0.090909 0.818182
vt 0.181818 0.000000
vt 0.181818 0.090909
vt 0.181818 0.181818
vt 0.181818 0.272727
vt 0.181818 0.363636
vt 0.181818 0.454545
vt 0.181818 0.545455
vt 0.181818 0.636364
vt 0.181818 0.727273
vt 0.272727 0.000000
vt 0.272727 0.090909
vt 0.272727 0.181818
vt 0.272727 0.272727
vt 0.272727 0.363636
vt 0.272727 0.454545
vt 0.272727 0.545455
vt 0.272727 0.636364
vt 0.272727 0.818182
vt 0.181818 0.818182
vt 0.363636 0.000000
vt 0.363636 0.090909
vt 0.363636 0.181818
vt 0.363636 0.272727
vt 0.363636 0.363636
vt 0.363636 0.454545
vt 0.363636 0.545455
vt 0.363636 0.636364
vt 0.272727 0.727273
vt 0.363636 0.818182
vt 0.454545 0.000000
vt 0.454545 0.090909
vt 0.454545 0.181818
vt 0.454545 0.272727
vt 0.454545 0.363636
vt 0.454545 0.545455
vt 0.454545 0.636364
vt 0.363636 0.727273
vt 0.454545 0.727273
vt 0.454545 0.818182
vt 0.545455 0.000000
vt 0.545455 0.090909
vt 0.545455 0.181818
vt 0.545455 0.272727
vt 0.545455 0.363636
vt 0.454545 0.454545
vt 0.545455 0.454545
vt 0.545455 0.545455
vt 0.545455 0.636364
vt 0.545455 0.727273
vt 0.545455 0.818182
vt 0.636364 0.000000
vt 0.636364 0.090909
vt 0.636364 0.181818
vt 0.636364 0.272727
vt 0.636364 0.454545
vt 0.636364 0.545455
vt 0.636364 0.636364
vt 0.636364 0.727273
vt 0.636364 0.818182
vt 0.727273 0.000000
vt 0.727273 0.090909
vt 0.727273 0.181818
vt 0.727273 0.272727
vt 0.636364 0.363636
vt 0.727273 0.454545
vt 0.727273 0.545455
vt 0.727273 0.636364
vt 0.727273 0.818182
vt 0.818182 0.000000
vt 0.818182 0.090909
vt 0.818182 0.181818
vt 0.818182 0.272727
vt 0.727273 0.363636
vt 0.818182 0.454545
vt 0.818182 0.545455
vt 0.818182 0.636364
vt 0.727273 0.727273
vt 0.818182 0.818182
vt 0.909091 0.000000
vt 0.909091 0.090909
vt 0.909091 0.181818
vt 0.909091 0.272727
vt 0.818182 0.363636
vt 0.909091 0.363636
vt 0.909091 0.454545
vt 0.909091 0.545455
vt 0.909091 0.636364
vt 0.818182 0.727273
vt 0.909091 0.727273
vt 1.000000 0.090909
vt 1.000000 0.181818
vt 1.000000 0.272727
vt 1.000000 0.363636
vt 1.000000 0.454545
vt 1.000000 0.545455
vt 1.000000 0.636364
vt 1.000000 0.727273
vt 0.909091 0.818182
vt 1.000000 0.818182
vt 1.000000 1.000000
vt 1.000000 0.000000
s 0
usemtl Grass
f 34/1/1 35/2/1 144/3/1
f 54/4/1 3/5/1 5/6/1
f 64/7/1 44/8/1 54/4/1
f 74/9/1 43/10/1 64/7/1
f 84/11/1 42/12/1 74/9/1
f 94/13/1 41/14/1 84/11/1
f 104/17/1 38/18/1 39/15/1
f 124/19/1 38/18/1 114/20/1
f 134/21/1 37/22/1 124/19/1
f 144/3/1 36/23/1 134/21/1
f 15/24/1 14/25/1 1/26/1
f 45/27/1 13/28/1 14/25/1
f 46/29/1 12/30/1 13/28/1
f 47/31/1 11/32/1 12/30/1
f 48/33/1 10/34/1 11/32/1
f 49/35/2 9/36/2 10/34/2
f 50/37/3 8/38/3 9/36/3
f 51/39/1 7/40/1 8/38/1
f 52/41/1 6/42/1 7/40/1
f 53/43/1 5/6/1 6/42/1
f 16/44/1 45/27/1 15/24/1
f 55/45/1 46/29/1 45/27/1
f 56/46/1 47/31/1 46/29/1
f 57/47/1 48/33/1 47/31/1
f 58/48/4 49/35/4 48/33/4
f 59/49/5 50/37/5 49/35/5
f 60/50/6 51/39/6 50/37/6
f 61/51/1 52/41/1 51/39/1
f 62/52/1 53/43/1 52/41/1
f 53/43/1 64/7/1 54/4/1
f 17/53/1 55/45/1 16/44/1
f 65/54/1 56/46/1 55/45/1
f 66/55/4 57/47/4 56/46/4
f 67/56/5 58/48/5 57/47/5
f 68/57/7 59/49/7 58/48/7
f 69/58/8 60/50/8 59/49/8
f 70/59/9 61/51/9 60/50/9
f 71/60/1 62/52/1 61/51/1
f 62/52/1 73/61/1 63/62/1
f 63/62/1 74/9/1 64/7/1
f 18/63/4 65/54/4 17/53/4
f 75/64/5 66/55/5 65/54/5
f 76/65/7 67/56/7 66/55/7
f 77/66/8 68/57/8 67/56/8
f 78/67/9 69/58/9 68/57/9
f 79/68/1 70/59/1 69/58/1
f 80/69/1 71/60/1 70/59/1
f 81/70/1 72/71/1 71/60/1
f 72/71/1 83/72/1 73/61/1
f 73/61/1 84/11/1 74/9/1
f 19/73/10 75/64/10 18/63/10
f 85/74/8 76/65/8 75/64/8
f 86/75/9 77/66/9 76/65/9
f 87/76/1 78/67/1 77/66/1
f 88/77/1 79/68/1 78/67/1
f 79/68/1 90/78/1 80/69/1
f 90/78/1 81/70/1 80/69/1
f 91/79/1 82/80/1 81/70/1
f 92/81/1 83/72/1 82/80/1
f 93/82/1 84/11/1 83/72/1
f 21/94/11 95/84/11 20/83/11
f 105/95/12 96/85/12 95/84/12
f 106/96/12 97/86/12 96/85/12
f 107/97/12 98/87/12 97/86/12
f 98/87/11 109/98/11 99/89/11
f 99/89/1 110/99/1 100/90/1
f 110/99/1 101/91/1 100/90/1
f 111/100/1 102/92/1 101/91/1
f 112/101/1 103/93/1 102/92/1
f 113/102/1 104/17/1 103/93/1
f 22/103/13 105/95/13 21/94/13
f 115/104/14 106/96/14 105/95/14
f 116/105/14 107/97/14 106/96/14
f 117/106/14 108/107/14 107/97/14
f 108/107/15 119/108/15 109/98/15
f 109/98/16 120/109/16 110/99/16
f 110/99/1 121/110/1 111/100/1
f 121/110/1 112/101/1 111/100/1
f 112/101/1 123/111/1 113/102/1
f 113/102/1 124/19/1 114/20/1
f 23/112/17 115/104/17 22/103/17
f 125/113/18 116/105/18 115/104/18
f 126/114/18 117/106/18 116/105/18
f 127/115/18 118/116/18 117/106/18
f 118/116/19 129/117/19 119/108/19
f 119/108/20 130/118/20 120/109/20
f 120/109/21 131/119/21 121/110/21
f 131/119/1 122/120/1 121/110/1
f 122/120/1 133/121/1 123/111/1
f 123/111/1 134/21/1 124/19/1
f 24/122/22 125/113/22 23/112/22
f 135/123/1 126/114/1 125/113/1
f 136/124/1 127/115/1 126/114/1
f 137/125/1 128/126/1 127/115/1
f 138/127/23 129/117/23 128/126/23
f 139/128/24 130/118/24 129/117/24
f 140/129/25 131/119/25 130/118/25
f 141/130/1 132/131/1 131/119/1
f 142/132/1 133/121/1 132/131/1
f 133/121/1 144/3/1 134/21/1
f 24/122/26 25/133/26 135/123/26
f 25/133/27 136/124/27 135/123/27
f 26/134/27 137/125/27 136/124/27
f 27/135/27 138/127/27 137/125/27
f 28/136/28 139/128/28 138/127/28
f 29/137/29 140/129/29 139/128/29
f 30/138/30 141/130/30 140/129/30
f 31/139/1 142/132/1 141/130/1
f 32/140/1 143/141/1 142/132/1
f 33/142/1 144/3/1 143/141/1
f 34/1/1 4/143/1 35/2/1
f 54/4/1 44/8/1 3/5/1
f 64/7/1 43/10/1 44/8/1
f 74/9/1 42/12/1 43/10/1
f 84/11/1 41/14/1 42/12/1
f 94/13/1 40/16/1 41/14/1
f 104/17/1 114/20/1 38/18/1
f 124/19/1 37/22/1 38/18/1
f 134/21/1 36/23/1 37/22/1
f 144/3/1 35/2/1 36/23/1
f 15/24/1 45/27/1 14/25/1
f 45/27/1 46/29/1 13/28/1
f 46/29/1 47/31/1 12/30/1
f 47/31/1 48/33/1 11/32/1
f 48/33/1 49/35/1 10/34/1
f 49/35/2 50/37/2 9/36/2
f 50/37/3 51/39/3 8/38/3
f 51/39/1 52/41/1 7/40/1
f 52/41/1 53/43/1 6/42/1
f 53/43/1 54/4/1 5/6/1
f 16/44/1 55/45/1 45/27/1
f 55/45/1 56/46/1 46/29/1
f 56/46/1 57/47/1 47/31/1
f 57/47/5 58/48/5 48/33/5
f 58/48/4 59/49/4 49/35/4
f 59/49/31 60/50/31 50/37/31
f 60/50/32 61/51/32 51/39/32
f 61/51/1 62/52/1 52/41/1
f 62/52/1 63/62/1 53/43/1
f 53/43/1 63/62/1 64/7/1
f 17/53/1 65/54/1 55/45/1
f 65/54/5 66/55/5 56/46/5
f 66/55/4 67/56/4 57/47/4
f 67/56/31 68/57/31 58/48/31
f 68/57/33 69/58/33 59/49/33
f 69/58/34 70/59/34 60/50/34
f 70/59/1 71/60/1 61/51/1
f 71/60/1 72/71/1 62/52/1
f 62/52/1 72/71/1 73/61/1
f 63/62/1 73/61/1 74/9/1
f 18/63/4 75/64/4 65/54/4
f 75/64/31 76/65/31 66/55/31
f 76/65/33 77/66/33 67/56/33
f 77/66/34 78/67/34 68/57/34
f 78/67/1 79/68/1 69/58/1
f 79/68/1 80/69/1 70/59/1
f 80/69/1 81/70/1 71/60/1
f 81/70/1 82/80/1 72/71/1
f 72/71/1 82/80/1 83/72/1
f 73/61/1 83/72/1 84/11/1
f 19/73/10 85/74/10 75/64/10
f 85/74/34 86/75/34 76/65/34
f 86/75/1 87/76/1 77/66/1
f 87/76/1 88/77/1 78/67/1
f 88/77/1 89/88/1 79/68/1
f 79/68/1 89/88/1 90/78/1
f 90/78/1 91/79/1 81/70/1
f 91/79/1 92/81/1 82/80/1
f 92/81/1 93/82/1 83/72/1
f 93/82/1 94/13/1 84/11/1
f 21/94/35 105/95/35 95/84/35
f 105/95/12 106/96/12 96/85/12
f 106/96/12 107/97/12 97/86/12
f 107/97/12 108/107/12 98/87/12
f 98/87/36 108/107/36 109/98/36
f 99/89/16 109/98/16 110/99/16
f 110/99/1 111/100/1 101/91/1
f 111/100/1 112/101/1 102/92/1
f 112/101/1 113/102/1 103/93/1
f 113/102/1 114/20/1 104/17/1
f 22/103/37 115/104/37 105/95/37
f 115/104/14 116/105/14 106/96/14
f 116/105/14 117/106/14 107/97/14
f 117/106/14 118/116/14 108/107/14
f 108/107/38 118/116/38 119/108/38
f 109/98/39 119/108/39 120/109/39
f 110/99/16 120/109/16 121/110/16
f 121/110/1 122/120/1 112/101/1
f 112/101/1 122/120/1 123/111/1
f 113/102/1 123/111/1 124/19/1
f 23/112/40 125/113/40 115/104/40
f 125/113/18 126/114/18 116/105/18
f 126/114/18 127/115/18 117/106/18
f 127/115/18 128/126/18 118/116/18
f 118/116/41 128/126/41 129/117/41
f 119/108/42 129/117/42 130/118/42
f 120/109/43 130/118/43 131/119/43
f 131/119/1 132/131/1 122/120/1
f 122/120/1 132/131/1 133/121/1
f 123/111/1 133/121/1 134/21/1
f 24/122/22 135/123/22 125/113/22
f 135/123/1 136/124/1 126/114/1
f 136/124/1 137/125/1 127/115/1
f 137/125/1 138/127/1 128/126/1
f 138/127/23 139/128/23 129/117/23
f 139/128/24 140/129/24 130/118/24
f 140/129/25 141/130/25 131/119/25
f 141/130/1 142/132/1 132/131/1
f 142/132/1 143/141/1 133/121/1
f 133/121/1 143/141/1 144/3/1
f 24/122/44 2/144/44 25/133/44
f 25/133/27 26/134/27 136/124/27
f 26/134/27 27/135/27 137/125/27
f 27/135/27 28/136/27 138/127/27
f 28/136/45 29/137/45 139/128/45
f 29/137/46 30/138/46 140/129/46
f 30/138/21 31/139/21 141/130/21
f 31/139/1 32/140/1 142/132/1
f 32/140/1 33/142/1 143/141/1
f 33/142/1 34/1/1 144/3/1
usemtl Road
f 94/13/1 39/15/1 40/16/1
f 20/83/1 85/74/1 19/73/1
f 95/84/1 86/75/1 85/74/1
f 96/85/1 87/76/1 86/75/1
f 97/86/1 88/77/1 87/76/1
f 98/87/1 89/88/1 88/77/1
f 99/89/1 90/78/1 89/88/1
f 100/90/1 91/79/1 90/78/1
f 101/91/1 92/81/1 91/79/1
f 102/92/1 93/82/1 92/81/1
f 103/93/1 94/13/1 93/82/1
f 94/13/1 104/17/1 39/15/1
f 20/83/1 95/84/1 85/74/1
f 95/84/1 96/85/1 86/75/1
f 96/85/1 97/86/1 87/76/1
f 97/86/1 98/87/1 88/77/1
f 98/87/1 99/89/1 89/88/1
f 99/89/1 100/90/1 90/78/1
f 100/90/1 101/91/1 91/79/1
f 101/91/1 102/92/1 92/81/1
f 102/92/1 103/93/1 93/82/1
f 103/93/1 104/17/1 94/13/1
