# Blender 4.5.2 LTS
# www.blender.org
mtllib grasstuft2.mtl
o grass_tuft_2
v 0.161424 -0.264458 0.143630
v 0.041397 -0.264458 0.205059
v 0.213884 -0.264458 0.019421
v 0.174230 -0.264458 -0.109450
v 0.061017 -0.264458 -0.182682
v -0.072781 -0.264458 -0.166009
v -0.164560 -0.264458 -0.067233
v -0.171374 -0.264458 0.067429
v -0.090035 -0.264458 0.174965
v -0.016261 0.329251 0.415309
v 0.055129 0.334684 0.393781
v 0.225503 0.343408 -0.047087
v 0.200256 0.343408 -0.129136
v 0.128177 0.343408 -0.175761
v -0.138094 0.362913 -0.139492
v -0.193771 0.362913 -0.079570
v -0.197905 0.362913 0.002121
v -0.086743 0.330972 0.388000
v 0.004386 0.459462 0.589709
v 0.402148 0.519654 -0.324296
v -0.322015 0.560158 -0.227297
v -0.345584 0.563432 -0.196075
v -0.353081 0.565949 -0.170052
v -0.454705 0.556958 -0.258422
v 0.246967 0.472377 -0.099111
v 0.230978 0.473756 -0.152373
v -0.180713 0.488110 -0.144958
v -0.225251 0.488048 -0.039454
v -0.222361 0.488883 -0.100452
v 0.185567 0.475811 -0.182427
v 0.006939 -0.227453 -0.027590
v 0.006070 0.566808 -0.021785
v 0.032061 -0.227453 -0.015492
v 0.026209 0.566808 -0.012087
v 0.038266 -0.227453 0.011693
v 0.031183 0.566808 0.009705
v 0.020881 -0.227453 0.033493
v 0.017246 0.566808 0.027181
v -0.007003 -0.227453 0.033493
v -0.005106 0.566808 0.027181
v -0.024388 -0.227453 0.011693
v -0.019043 0.566808 0.009705
v -0.018183 -0.227453 -0.015492
v -0.014069 0.566808 -0.012087
v 0.000507 0.538933 0.000332
v 0.071974 0.593530 0.052255
v -0.026790 0.593530 0.084346
v -0.087832 0.593530 0.000332
v -0.026790 0.593530 -0.083682
v 0.071974 0.593530 -0.051591
v 0.027805 0.681869 0.084346
v -0.070960 0.681869 0.052255
v -0.070960 0.681869 -0.051591
v 0.027805 0.681869 -0.083682
v 0.088846 0.681869 0.000332
v 0.000507 0.736465 0.000332
vn -0.4375 0.2793 -0.8548
vn -0.1351 0.3207 -0.9375
vn -0.9546 0.0504 0.2937
vn -0.7964 0.0536 0.6024
vn -0.5424 0.0504 0.8386
vn 0.7318 0.0474 0.6799
vn 0.9200 0.0505 0.3886
vn 0.9976 0.0474 0.0505
vn 0.2108 0.3283 -0.9208
vn 0.0345 0.6175 -0.7858
vn -0.2939 0.5131 -0.8065
vn -0.9457 0.1445 0.2910
vn -0.7854 0.1741 0.5940
vn -0.5374 0.1445 0.8308
vn 0.7245 0.1485 0.6731
vn 0.9120 0.1614 0.3771
vn 0.9907 0.1262 0.0501
vn 0.3111 0.5057 -0.8047
vn -0.0062 0.8016 -0.5978
vn -0.1265 0.9825 0.1363
vn 0.2297 0.9692 0.0885
vn 0.1986 0.9801 0.0044
vn 0.3197 0.9475 -0.0017
vn -0.0012 0.9949 -0.1013
vn -0.7839 0.5684 0.2500
vn -0.4660 0.8013 0.3751
vn 0.5871 0.6041 0.5389
vn 0.8828 0.4672 0.0482
vn 0.6757 0.6875 0.2660
vn -0.4067 0.6339 0.6579
vn 0.0003 0.0073 -1.0000
vn -0.0003 0.0073 -1.0000
vn 0.7820 0.0084 -0.6232
vn 0.7816 0.0084 -0.6237
vn 0.9749 0.0093 0.2226
vn 0.9749 0.0093 0.2224
vn 0.4340 0.0091 0.9008
vn 0.4337 0.0091 0.9010
vn -0.4335 0.0082 0.9011
vn -0.4342 0.0082 0.9008
vn -0.9748 0.0071 0.2228
vn -0.9750 0.0071 0.2223
vn -0.7818 0.0067 -0.6235
vn -0.7818 0.0067 -0.6234
vn -0.0000 -1.0000 -0.0000
vn 0.7236 -0.4472 0.5257
vn -0.2764 -0.4472 0.8507
vn -0.8944 -0.4472 -0.0000
vn -0.2764 -0.4472 -0.8507
vn 0.7236 -0.4472 -0.5257
vn 0.2764 0.4472 0.8507
vn -0.7236 0.4472 0.5257
vn -0.7236 0.4472 -0.5257
vn 0.2764 0.4472 -0.8507
vn 0.8944 0.4472 -0.0000
vn -0.0000 1.0000 -0.0000
vt 0.000000 0.000000
vt 1.000000 0.500000
vt 0.857143 1.000000
vt 0.857143 0.500000
vt 0.714286 1.000000
vt 0.714286 0.500000
vt 0.571429 0.500000
vt 0.571429 1.000000
vt 0.428571 0.500000
vt 0.428571 1.000000
vt 0.285714 0.500000
vt 0.285714 1.000000
vt 0.142857 0.500000
vt 0.000000 1.000000
vt 0.000000 0.500000
vt 0.181819 0.000000
vt 0.272728 0.157461
vt 0.090910 0.157461
vt 0.363637 0.000000
vt 0.454546 0.157461
vt 0.909091 0.000000
vt 1.000000 0.157461
vt 0.818182 0.157461
vt 0.727273 0.000000
vt 0.636364 0.157461
vt 0.545455 0.000000
vt 0.363637 0.314921
vt 0.181819 0.314921
vt 0.909091 0.314921
vt 0.727273 0.314921
vt 0.545455 0.314921
vt 0.000000 0.314921
vt 0.272728 0.472382
vt 0.090910 0.472382
vt 0.818182 0.472382
vt 0.636364 0.472382
vt 0.454546 0.472382
vt 1.000000 1.000000
vt 0.142857 1.000000
s 1
usemtl grass_darker
f 15/1/15 7/1/7 6/1/6
f 4/1/4 14/1/14 5/1/5
f 18/1/18 2/1/2 9/1/9
f 7/1/7 17/1/17 8/1/8
f 12/1/12 4/1/4 3/1/3
f 2/1/2 11/1/11 1/1/1
f 27/1/27 16/1/16 15/1/15
f 25/1/25 13/1/13 12/1/12
f 16/1/16 28/1/28 17/1/17
f 13/1/13 30/1/30 14/1/14
f 10/1/10 19/1/19 11/1/11
f 18/1/18 19/1/19 10/1/10
f 22/1/22 24/1/24 23/1/23
f 21/1/21 24/1/24 22/1/22
f 29/1/29 23/1/23 28/1/28
f 21/1/21 29/1/29 27/1/27
f 26/1/26 20/1/20 30/1/30
f 25/1/25 20/1/20 26/1/26
f 15/1/15 16/1/16 7/1/7
f 4/1/4 13/1/13 14/1/14
f 18/1/18 10/1/10 2/1/2
f 7/1/7 16/1/16 17/1/17
f 12/1/12 13/1/13 4/1/4
f 2/1/2 10/1/10 11/1/11
f 27/1/27 29/1/29 16/1/16
f 25/1/25 26/1/26 13/1/13
f 16/1/16 29/1/29 28/1/28
f 13/1/13 26/1/26 30/1/30
f 29/1/29 22/1/22 23/1/23
f 21/1/21 22/1/22 29/1/29
usemtl grass_even_darker
f 31/2/31 34/3/34 33/4/33
f 33/4/33 36/5/36 35/6/35
f 36/5/36 37/7/37 35/6/35
f 38/8/38 39/9/39 37/7/37
f 40/10/40 41/11/41 39/9/39
f 42/12/42 43/13/43 41/11/41
f 43/13/43 32/14/32 31/15/31
f 31/2/31 32/38/32 34/3/34
f 33/4/33 34/3/34 36/5/36
f 36/5/36 38/8/38 37/7/37
f 38/8/38 40/10/40 39/9/39
f 40/10/40 42/12/42 41/11/41
f 42/12/42 44/39/44 43/13/43
f 43/13/43 44/39/44 32/14/32
usemtl white_puff
f 45/16/45 46/17/46 47/18/47
f 46/17/46 45/19/45 50/20/50
f 45/21/45 47/22/47 48/23/48
f 45/24/45 48/23/48 49/25/49
f 45/26/45 49/25/49 50/20/50
f 46/17/46 50/20/50 55/27/55
f 47/18/47 46/17/46 51/28/51
f 48/23/48 47/22/47 52/29/52
f 49/25/49 48/23/48 53/30/53
f 50/20/50 49/25/49 54/31/54
f 46/17/46 55/27/55 51/28/51
f 47/18/47 51/28/51 52/32/52
f 48/23/48 52/29/52 53/30/53
f 49/25/49 53/30/53 54/31/54
f 50/20/50 54/31/54 55/27/55
f 51/28/51 55/27/55 56/33/56
f 52/32/52 51/28/51 56/34/56
f 53/30/53 52/29/52 56/35/56
f 54/31/54 53/30/53 56/36/56
f 55/27/55 54/31/54 56/37/56
