# Blender 4.5.2 LTS
# www.blender.org
mtllib grasstuft1.mtl
o grass_tuft_1
v 0.000000 -0.365858 -0.260670
v -0.167555 -0.365858 -0.199685
v -0.256709 -0.365858 -0.045265
v -0.225747 -0.365858 0.130335
v -0.089154 -0.365858 0.244949
v 0.089154 -0.365858 0.244949
v 0.225747 -0.365858 0.130335
v 0.256709 -0.365858 -0.045265
v 0.167555 -0.365858 -0.199685
v 0.000000 0.453082 -0.300765
v -0.094071 0.453082 -0.266526
v -0.282833 0.431914 0.040113
v -0.263119 0.431914 0.151912
v -0.176155 0.431914 0.224884
v 0.179199 0.453082 0.220832
v 0.262062 0.453082 0.151302
v 0.280846 0.453082 0.044775
v 0.094071 0.453082 -0.266526
v 0.000000 0.753751 -0.377377
v -0.344060 0.665587 0.148231
v -0.335993 0.665587 0.193985
v -0.300402 0.665587 0.223850
v 0.289683 0.725848 0.249225
v 0.330106 0.725848 0.215306
v 0.339269 0.725848 0.163340
v 0.397405 0.774837 0.269581
v -0.431538 0.758370 0.223579
v 0.112081 -0.365762 0.100910
v 0.024999 -0.365762 0.145478
v 0.150141 -0.365762 0.010794
v 0.121372 -0.365762 -0.082703
v 0.039234 -0.365762 -0.135834
v -0.057838 -0.365762 -0.123738
v -0.124425 -0.365762 -0.052074
v -0.129369 -0.365762 0.045625
v -0.070356 -0.365762 0.123644
v -0.016832 0.669146 0.298017
v 0.034963 0.678617 0.282398
v 0.158571 0.693824 -0.037458
v 0.140254 0.693824 -0.096986
v 0.087960 0.693824 -0.130813
v -0.105224 0.727824 -0.104499
v -0.145618 0.727824 -0.061025
v -0.148617 0.727824 -0.001757
v -0.067968 0.672147 0.278204
v -0.001852 0.896121 0.424547
v 0.286729 1.001041 -0.238577
v -0.238661 1.071645 -0.168203
v -0.255761 1.077352 -0.145551
v -0.261200 1.081740 -0.126671
v -0.334929 1.066067 -0.190785
v 0.174143 0.918632 -0.075202
v 0.162544 0.921035 -0.113845
v -0.136144 0.946056 -0.108465
v -0.168457 0.945949 -0.031920
v -0.166360 0.947404 -0.076175
v 0.129597 0.924619 -0.135649
vn 0.8648 0.0540 -0.4993
vn 0.6340 0.1651 -0.7555
vn 0.6420 0.0508 -0.7651
vn -0.3394 0.1237 0.9325
vn -0.0000 0.0489 0.9988
vn -0.3417 0.0460 0.9387
vn -0.8649 0.0511 -0.4993
vn -0.9745 0.1444 -0.1718
vn -0.9837 0.0481 -0.1734
vn 0.9713 0.1651 -0.1713
vn 0.9835 0.0508 -0.1734
vn 0.3394 0.1237 0.9325
vn 0.3417 0.0460 0.9387
vn -0.5402 0.5420 -0.6438
vn -0.8547 0.1903 -0.4831
vn -0.6332 0.1717 -0.7547
vn 0.8597 0.4877 -0.1516
vn 0.8476 0.2050 -0.4894
vn -0.8752 0.4586 -0.1543
vn 0.5775 0.4391 -0.6882
vn 0.7310 0.0657 0.6792
vn 0.9210 0.0210 0.3890
vn 0.7324 0.0198 0.6805
vn -0.0000 0.1520 0.9884
vn -0.0000 0.2469 0.9690
vn -0.6431 0.6735 -0.3643
vn -0.4257 0.8680 -0.2556
vn 0.7033 0.5681 -0.4274
vn 0.6011 0.7257 -0.3346
vn -0.7974 0.0223 0.6031
vn -0.5420 0.0652 0.8379
vn -0.5430 0.0210 0.8395
vn 0.1766 0.1547 -0.9721
vn 0.0778 0.3145 -0.9461
vn -0.1866 0.1442 -0.9718
vn 0.9971 0.0564 0.0505
vn 0.9985 0.0198 0.0505
vn -0.9537 0.0652 0.2935
vn -0.9556 0.0210 0.2940
vn -0.2837 0.3021 -0.9101
vn -0.5005 0.1172 -0.8577
vn 0.6545 0.3939 0.6453
vn 0.9203 0.0678 0.3854
vn -0.8558 0.4324 0.2838
vn -0.7954 0.0731 0.6016
vn 0.9552 0.2916 0.0507
vn -0.4328 0.5166 0.7388
vn 0.8462 0.4259 0.3203
vn 0.5429 0.8393 -0.0277
vn -0.0040 0.4871 -0.8733
vn 0.4122 0.2636 -0.8721
vn 0.3901 0.9207 -0.0133
vn -0.0027 0.9714 -0.2376
vn 0.4889 0.8671 0.0957
vn -0.5853 0.6454 0.4907
vn -0.2815 0.9103 0.3036
vn -0.6420 0.0481 -0.7652
vt 0.000000 0.000000
s 1
usemtl grass_darker
f 4/1/1 14/1/2 5/1/3
f 18/1/4 1/1/5 9/1/6
f 7/1/7 17/1/8 8/1/9
f 12/1/10 4/1/1 3/1/11
f 1/1/5 11/1/12 2/1/13
f 20/1/17 13/1/18 12/1/10
f 16/1/15 25/1/19 17/1/8
f 13/1/18 22/1/20 14/1/2
f 10/1/24 19/1/25 11/1/12
f 18/1/4 19/1/25 10/1/24
f 24/1/26 26/1/27 25/1/19
f 21/1/28 27/1/29 22/1/20
f 20/1/17 27/1/29 21/1/28
f 31/1/30 41/1/31 32/1/32
f 36/1/33 37/1/34 29/1/35
f 39/1/38 31/1/30 30/1/39
f 29/1/35 38/1/40 28/1/41
f 52/1/44 40/1/45 39/1/38
f 40/1/45 57/1/47 41/1/31
f 37/1/34 46/1/50 38/1/40
f 45/1/51 46/1/50 37/1/34
f 53/1/55 47/1/56 57/1/47
f 52/1/44 47/1/56 53/1/55
f 4/1/1 13/1/18 14/1/2
f 18/1/4 10/1/24 1/1/5
f 7/1/7 16/1/15 17/1/8
f 12/1/10 13/1/18 4/1/1
f 1/1/5 10/1/24 11/1/12
f 20/1/17 21/1/28 13/1/18
f 16/1/15 24/1/26 25/1/19
f 13/1/18 21/1/28 22/1/20
f 31/1/30 40/1/45 41/1/31
f 36/1/33 45/1/51 37/1/34
f 39/1/38 40/1/45 31/1/30
f 29/1/35 37/1/34 38/1/40
f 52/1/44 53/1/55 40/1/45
f 40/1/45 53/1/55 57/1/47
usemtl grass_even_darker
f 23/1/14 16/1/15 15/1/16
f 42/1/21 34/1/22 33/1/23
f 23/1/14 26/1/27 24/1/26
f 34/1/22 44/1/36 35/1/37
f 54/1/42 43/1/43 42/1/21
f 43/1/43 55/1/46 44/1/36
f 56/1/48 50/1/49 55/1/46
f 49/1/52 51/1/53 50/1/49
f 48/1/54 51/1/53 49/1/52
f 48/1/54 56/1/48 54/1/42
f 15/1/16 7/1/7 6/1/57
f 23/1/14 24/1/26 16/1/15
f 42/1/21 43/1/43 34/1/22
f 34/1/22 43/1/43 44/1/36
f 54/1/42 56/1/48 43/1/43
f 43/1/43 56/1/48 55/1/46
f 56/1/48 49/1/52 50/1/49
f 48/1/54 49/1/52 56/1/48
f 15/1/16 16/1/15 7/1/7
