# Blender 4.5.2 LTS
# www.blender.org
mtllib streetlight.mtl
o streetlight
v -0.000016 -1.053385 -0.135294
v -0.000016 5.753090 -0.135294
v 0.101236 -1.053385 -0.096037
v 0.101236 5.753090 -0.096037
v 0.143176 -1.053385 -0.001263
v 0.143176 5.753090 -0.001263
v 0.101236 -1.053385 0.093511
v 0.101236 5.753090 0.093511
v -0.000016 -1.053385 0.132767
v -0.000016 5.753090 0.132767
v -0.101268 -1.053385 0.093511
v -0.101268 5.753090 0.093511
v -0.143208 -1.053385 -0.001263
v -0.143208 5.753090 -0.001263
v -0.101268 -1.053385 -0.096037
v -0.101268 5.753090 -0.096037
v -0.296272 5.732294 -1.845128
v 0.296229 5.732294 -1.845128
v 0.143176 5.899990 -0.001263
v 0.101236 5.899990 0.093511
v -0.000016 5.899990 0.132767
v -0.101268 5.899990 0.093511
v -0.143208 5.899990 -0.001263
v -0.296272 5.920786 -1.845128
v 0.296229 5.920786 -1.845128
v -0.278276 5.734739 -0.240560
v 0.278234 5.734739 -0.240560
v -0.278276 5.918341 -0.240560
v 0.278234 5.918341 -0.240560
vn 0.3615 -0.0000 -0.9324
vn 0.9145 -0.0000 -0.4047
vn 0.9145 -0.0000 0.4047
vn 0.3615 -0.0000 0.9324
vn -0.3615 -0.0000 0.9324
vn -0.9145 -0.0000 0.4047
vn -0.0000 -0.0000 -1.0000
vn -0.9145 -0.0000 -0.4047
vn -0.3615 -0.0000 -0.9324
vn -0.0000 -1.0000 -0.0000
vn -0.0000 1.0000 -0.0000
vn -0.0000 1.0000 0.0015
vn 0.8709 -0.0000 0.4915
vn -0.9999 -0.0000 0.0112
vn -0.0000 -1.0000 0.0015
vn -0.0000 -0.9851 0.1717
vn -0.8709 -0.0000 0.4915
vn 0.9999 -0.0000 0.0112
vn -0.0000 0.9971 0.0765
vn 0.0759 -0.9966 0.0336
vn -0.0759 -0.9966 0.0336
vn 0.0332 -0.9958 0.0857
vn -0.0332 -0.9958 0.0857
vt 1.000000 1.000000
vt 0.875000 0.500000
vt 1.000000 0.500000
vt 0.875000 1.000000
vt 0.750000 0.500000
vt 0.750000 1.000000
vt 0.625000 0.500000
vt 0.625000 1.000000
vt 0.500000 0.500000
vt 0.500000 1.000000
vt 0.375000 0.500000
vt 0.375000 1.000000
vt 0.250000 0.500000
vt 0.000000 0.000000
vt 0.250000 1.000000
vt 0.125000 0.500000
vt 0.125000 1.000000
vt 0.000000 0.500000
vt 0.580294 0.080294
vt 0.510000 0.250000
vt 0.580294 0.419706
vt 0.010000 0.250000
vt 0.080294 0.080294
vt 0.250000 0.010000
vt 0.490000 0.250000
vt 0.088179 0.117572
vt 0.000000 1.000000
vt 0.750000 0.490000
vt 0.750000 0.010000
vt 0.919706 0.419706
vt 0.919706 0.080294
vt 0.990000 0.250000
vt 0.419706 0.080294
s 0
usemtl Metal
f 2/1/1 3/2/1 1/3/1
f 4/4/2 5/5/2 3/2/2
f 6/6/3 7/7/3 5/5/3
f 8/8/4 9/9/4 7/7/4
f 10/10/5 11/11/5 9/9/5
f 12/12/6 13/13/6 11/11/6
f 24/14/7 18/14/7 17/14/7
f 14/15/8 15/16/8 13/13/8
f 16/17/9 1/18/9 15/16/9
f 11/19/10 13/20/10 15/21/10
f 6/6/3 20/8/3 8/8/3
f 23/22/11 22/23/11 21/24/11
f 25/25/12 28/22/12 29/25/12
f 14/15/6 22/12/6 23/15/6
f 8/8/4 21/10/4 10/10/4
f 27/14/13 19/14/13 6/14/13
f 28/14/14 17/14/14 26/14/14
f 10/10/5 22/12/5 12/12/5
f 2/27/16 26/14/16 27/26/16
f 23/14/17 26/14/17 14/14/17
f 25/14/18 27/14/18 18/14/18
f 29/25/19 23/22/19 19/25/19
f 2/1/1 4/4/1 3/2/1
f 4/4/2 6/6/2 5/5/2
f 6/6/3 8/8/3 7/7/3
f 8/8/4 10/10/4 9/9/4
f 10/10/5 12/12/5 11/11/5
f 12/12/6 14/15/6 13/13/6
f 24/14/7 25/14/7 18/14/7
f 14/15/8 16/17/8 15/16/8
f 16/17/9 2/27/9 1/18/9
f 15/21/10 1/28/10 9/29/10
f 1/28/10 3/30/10 7/31/10
f 3/30/10 5/32/10 7/31/10
f 7/31/10 9/29/10 1/28/10
f 9/29/10 11/19/10 15/21/10
f 6/6/3 19/6/3 20/8/3
f 20/33/11 19/25/11 21/24/11
f 19/25/11 23/22/11 21/24/11
f 25/25/12 24/22/12 28/22/12
f 14/15/6 12/12/6 22/12/6
f 8/8/4 20/8/4 21/10/4
f 27/14/13 29/14/13 19/14/13
f 28/14/14 24/14/14 17/14/14
f 10/10/5 21/10/5 22/12/5
f 16/17/20 14/14/20 26/14/20
f 27/26/21 6/6/21 4/4/21
f 2/27/22 16/17/22 26/14/22
f 27/26/23 4/4/23 2/27/23
f 23/14/17 28/14/17 26/14/17
f 25/14/18 29/14/18 27/14/18
f 29/25/19 28/22/19 23/22/19
usemtl Streetlight_light
f 26/14/15 18/14/15 27/26/15
f 26/14/15 17/14/15 18/14/15
