# Blender 4.5.2 LTS
# www.blender.org
o streetlight_hitbox_placements
o streetlight_hitbox
v -175.434692 1.843196 -29.067194
v -175.434692 9.146218 -29.067194
v -175.255508 1.843196 -29.095575
v -175.255508 9.146218 -29.095575
v -175.173126 1.843196 -28.933920
v -175.173126 9.146218 -28.933920
v -175.301422 1.843196 -28.805630
v -175.301422 9.146218 -28.805630
v -175.463074 1.843196 -28.887999
v -175.463074 9.146218 -28.887999
vn -0.1564 -0.0000 -0.9877
vn 0.8910 -0.0000 -0.4540
vn 0.7071 -0.0000 0.7071
vn -0.4540 -0.0000 0.8910
vn -0.9877 -0.0000 -0.1564
vt 1.000000 1.000000
vt 0.800000 0.500000
vt 1.000000 0.500000
vt 0.800000 1.000000
vt 0.600000 0.500000
vt 0.600000 1.000000
vt 0.400000 0.500000
vt 0.400000 1.000000
vt 0.200000 0.500000
vt 0.200000 1.000000
vt 0.000000 0.500000
vt 0.000000 1.000000
s 0
f 2/1/1 3/2/1 1/3/1
f 4/4/2 5/5/2 3/2/2
f 6/6/3 7/7/3 5/5/3
f 8/8/4 9/9/4 7/7/4
f 10/10/5 1/11/5 9/9/5
f 2/1/1 4/4/1 3/2/1
f 4/4/2 6/6/2 5/5/2
f 6/6/3 8/8/3 7/7/3
f 8/8/4 10/10/4 9/9/4
f 10/10/5 2/12/5 1/11/5
o streetlight_hitbox
v -180.837387 1.843196 -13.614952
v -180.837387 9.146218 -13.614952
v -180.730743 1.843196 -13.761731
v -180.730743 9.146218 -13.761731
v -180.558197 1.843196 -13.705667
v -180.558197 9.146218 -13.705667
v -180.558197 1.843196 -13.524237
v -180.558197 9.146218 -13.524237
v -180.730743 1.843196 -13.468173
v -180.730743 9.146218 -13.468173
vn -0.8090 -0.0000 -0.5878
vn 0.3090 -0.0000 -0.9511
vn 1.0000 -0.0000 -0.0000
vn 0.3090 -0.0000 0.9511
vn -0.8090 -0.0000 0.5878
vt 1.000000 1.000000
vt 0.800000 0.500000
vt 1.000000 0.500000
vt 0.800000 1.000000
vt 0.600000 0.500000
vt 0.600000 1.000000
vt 0.400000 0.500000
vt 0.400000 1.000000
vt 0.200000 0.500000
vt 0.200000 1.000000
vt 0.000000 0.500000
vt 0.000000 1.000000
s 0
f 12/13/6 13/14/6 11/15/6
f 14/16/7 15/17/7 13/14/7
f 16/18/8 17/19/8 15/17/8
f 18/20/9 19/21/9 17/19/9
f 20/22/10 11/23/10 19/21/10
f 12/13/6 14/16/6 13/14/6
f 14/16/7 16/18/7 15/17/7
f 16/18/8 18/20/8 17/19/8
f 18/20/9 20/22/9 19/21/9
f 20/22/10 12/24/10 11/23/10
o streetlight_hitbox
v -68.954720 1.843196 -34.532669
v -68.954720 9.146218 -34.532669
v -68.807938 1.843196 -34.426029
v -68.807938 9.146218 -34.426029
v -68.864006 1.843196 -34.253479
v -68.864006 9.146218 -34.253479
v -69.045433 1.843196 -34.253479
v -69.045433 9.146218 -34.253479
v -69.101501 1.843196 -34.426029
v -69.101501 9.146218 -34.426029
vn 0.5878 -0.0000 -0.8090
vn 0.9511 -0.0000 0.3090
vn -0.0000 -0.0000 1.0000
vn -0.9511 -0.0000 0.3090
vn -0.5878 -0.0000 -0.8090
vt 1.000000 1.000000
vt 0.800000 0.500000
vt 1.000000 0.500000
vt 0.800000 1.000000
vt 0.600000 0.500000
vt 0.600000 1.000000
vt 0.400000 0.500000
vt 0.400000 1.000000
vt 0.200000 0.500000
vt 0.200000 1.000000
vt 0.000000 0.500000
vt 0.000000 1.000000
s 0
f 22/25/11 23/26/11 21/27/11
f 24/28/12 25/29/12 23/26/12
f 26/30/13 27/31/13 25/29/13
f 28/32/14 29/33/14 27/31/14
f 30/34/15 21/35/15 29/33/15
f 22/25/11 24/28/11 23/26/11
f 24/28/12 26/30/12 25/29/12
f 26/30/13 28/32/13 27/31/13
f 28/32/14 30/34/14 29/33/14
f 30/34/15 22/36/15 21/35/15
o streetlight_hitbox
v -144.200150 1.843196 197.812759
v -144.200150 9.146218 197.812759
v -144.296158 1.843196 197.658813
v -144.296158 9.146218 197.658813
v -144.179413 1.843196 197.519928
v -144.179413 9.146218 197.519928
v -144.011246 1.843196 197.588043
v -144.011246 9.146218 197.588043
v -144.024063 1.843196 197.769012
v -144.024063 9.146218 197.769012
vn -0.8485 -0.0000 0.5292
vn -0.7655 -0.0000 -0.6435
vn 0.3754 -0.0000 -0.9269
vn 0.9975 -0.0000 0.0706
vn 0.2411 -0.0000 0.9705
vt 1.000000 1.000000
vt 0.800000 0.500000
vt 1.000000 0.500000
vt 0.800000 1.000000
vt 0.600000 0.500000
vt 0.600000 1.000000
vt 0.400000 0.500000
vt 0.400000 1.000000
vt 0.200000 0.500000
vt 0.200000 1.000000
vt 0.000000 0.500000
vt 0.000000 1.000000
s 0
f 32/37/16 33/38/16 31/39/16
f 34/40/17 35/41/17 33/38/17
f 36/42/18 37/43/18 35/41/18
f 38/44/19 39/45/19 37/43/19
f 40/46/20 31/47/20 39/45/20
f 32/37/16 34/40/16 33/38/16
f 34/40/17 36/42/17 35/41/17
f 36/42/18 38/44/18 37/43/18
f 38/44/19 40/46/19 39/45/19
f 40/46/20 32/48/20 31/47/20
o streetlight_hitbox
v -196.411118 1.843196 9.894066
v -196.411118 9.146218 9.894066
v -196.517761 1.843196 10.040845
v -196.517761 9.146218 10.040845
v -196.690308 1.843196 9.984781
v -196.690308 9.146218 9.984781
v -196.690308 1.843196 9.803350
v -196.690308 9.146218 9.803350
v -196.517761 1.843196 9.747287
v -196.517761 9.146218 9.747287
vn 0.8090 -0.0000 0.5878
vn -0.3090 -0.0000 0.9511
vn -1.0000 -0.0000 -0.0000
vn -0.3090 -0.0000 -0.9511
vn 0.8090 -0.0000 -0.5878
vt 1.000000 1.000000
vt 0.800000 0.500000
vt 1.000000 0.500000
vt 0.800000 1.000000
vt 0.600000 0.500000
vt 0.600000 1.000000
vt 0.400000 0.500000
vt 0.400000 1.000000
vt 0.200000 0.500000
vt 0.200000 1.000000
vt 0.000000 0.500000
vt 0.000000 1.000000
s 0
f 42/49/21 43/50/21 41/51/21
f 44/52/22 45/53/22 43/50/22
f 46/54/23 47/55/23 45/53/23
f 48/56/24 49/57/24 47/55/24
f 50/58/25 41/59/25 49/57/25
f 42/49/21 44/52/21 43/50/21
f 44/52/22 46/54/22 45/53/22
f 46/54/23 48/56/23 47/55/23
f 48/56/24 50/58/24 49/57/24
f 50/58/25 42/60/25 41/59/25
o streetlight_hitbox
v -86.226151 1.843196 -34.532669
v -86.226151 9.146218 -34.532669
v -86.079369 1.843196 -34.426029
v -86.079369 9.146218 -34.426029
v -86.135437 1.843196 -34.253479
v -86.135437 9.146218 -34.253479
v -86.316864 1.843196 -34.253479
v -86.316864 9.146218 -34.253479
v -86.372932 1.843196 -34.426029
v -86.372932 9.146218 -34.426029
vn 0.5878 -0.0000 -0.8090
vn 0.9511 -0.0000 0.3090
vn -0.0000 -0.0000 1.0000
vn -0.9511 -0.0000 0.3090
vn -0.5878 -0.0000 -0.8090
vt 1.000000 1.000000
vt 0.800000 0.500000
vt 1.000000 0.500000
vt 0.800000 1.000000
vt 0.600000 0.500000
vt 0.600000 1.000000
vt 0.400000 0.500000
vt 0.400000 1.000000
vt 0.200000 0.500000
vt 0.200000 1.000000
vt 0.000000 0.500000
vt 0.000000 1.000000
s 0
f 52/61/26 53/62/26 51/63/26
f 54/64/27 55/65/27 53/62/27
f 56/66/28 57/67/28 55/65/28
f 58/68/29 59/69/29 57/67/29
f 60/70/30 51/71/30 59/69/30
f 52/61/26 54/64/26 53/62/26
f 54/64/27 56/66/27 55/65/27
f 56/66/28 58/68/28 57/67/28
f 58/68/29 60/70/29 59/69/29
f 60/70/30 52/72/30 51/71/30
o streetlight_hitbox
v -105.186981 1.843196 -34.532669
v -105.186981 9.146218 -34.532669
v -105.040199 1.843196 -34.426029
v -105.040199 9.146218 -34.426029
v -105.096268 1.843196 -34.253479
v -105.096268 9.146218 -34.253479
v -105.277695 1.843196 -34.253479
v -105.277695 9.146218 -34.253479
v -105.333763 1.843196 -34.426029
v -105.333763 9.146218 -34.426029
vn 0.5878 -0.0000 -0.8090
vn 0.9511 -0.0000 0.3090
vn -0.0000 -0.0000 1.0000
vn -0.9511 -0.0000 0.3090
vn -0.5878 -0.0000 -0.8090
vt 1.000000 1.000000
vt 0.800000 0.500000
vt 1.000000 0.500000
vt 0.800000 1.000000
vt 0.600000 0.500000
vt 0.600000 1.000000
vt 0.400000 0.500000
vt 0.400000 1.000000
vt 0.200000 0.500000
vt 0.200000 1.000000
vt 0.000000 0.500000
vt 0.000000 1.000000
s 0
f 62/73/31 63/74/31 61/75/31
f 64/76/32 65/77/32 63/74/32
f 66/78/33 67/79/33 65/77/33
f 68/80/34 69/81/34 67/79/34
f 70/82/35 61/83/35 69/81/35
f 62/73/31 64/76/31 63/74/31
f 64/76/32 66/78/32 65/77/32
f 66/78/33 68/80/33 67/79/33
f 68/80/34 70/82/34 69/81/34
f 70/82/35 62/84/35 61/83/35
o streetlight_hitbox
v -122.927567 1.843196 -34.532669
v -122.927567 9.146218 -34.532669
v -122.780785 1.843196 -34.426029
v -122.780785 9.146218 -34.426029
v -122.836853 1.843196 -34.253479
v -122.836853 9.146218 -34.253479
v -123.018280 1.843196 -34.253479
v -123.018280 9.146218 -34.253479
v -123.074348 1.843196 -34.426029
v -123.074348 9.146218 -34.426029
vn 0.5878 -0.0000 -0.8090
vn 0.9511 -0.0000 0.3090
vn -0.0000 -0.0000 1.0000
vn -0.9511 -0.0000 0.3090
vn -0.5878 -0.0000 -0.8090
vt 1.000000 1.000000
vt 0.800000 0.500000
vt 1.000000 0.500000
vt 0.800000 1.000000
vt 0.600000 0.500000
vt 0.600000 1.000000
vt 0.400000 0.500000
vt 0.400000 1.000000
vt 0.200000 0.500000
vt 0.200000 1.000000
vt 0.000000 0.500000
vt 0.000000 1.000000
s 0
f 72/85/36 73/86/36 71/87/36
f 74/88/37 75/89/37 73/86/37
f 76/90/38 77/91/38 75/89/38
f 78/92/39 79/93/39 77/91/39
f 80/94/40 71/95/40 79/93/40
f 72/85/36 74/88/36 73/86/36
f 74/88/37 76/90/37 75/89/37
f 76/90/38 78/92/38 77/91/38
f 78/92/39 80/94/39 79/93/39
f 80/94/40 72/96/40 71/95/40
o streetlight_hitbox
v -144.882645 1.843196 -34.532669
v -144.882645 9.146218 -34.532669
v -144.735870 1.843196 -34.426029
v -144.735870 9.146218 -34.426029
v -144.791931 1.843196 -34.253479
v -144.791931 9.146218 -34.253479
v -144.973358 1.843196 -34.253479
v -144.973358 9.146218 -34.253479
v -145.029419 1.843196 -34.426029
v -145.029419 9.146218 -34.426029
vn 0.5878 -0.0000 -0.8090
vn 0.9511 -0.0000 0.3090
vn -0.0000 -0.0000 1.0000
vn -0.9511 -0.0000 0.3090
vn -0.5878 -0.0000 -0.8090
vt 1.000000 1.000000
vt 0.800000 0.500000
vt 1.000000 0.500000
vt 0.800000 1.000000
vt 0.600000 0.500000
vt 0.600000 1.000000
vt 0.400000 0.500000
vt 0.400000 1.000000
vt 0.200000 0.500000
vt 0.200000 1.000000
vt 0.000000 0.500000
vt 0.000000 1.000000
s 0
f 82/97/41 83/98/41 81/99/41
f 84/100/42 85/101/42 83/98/42
f 86/102/43 87/103/43 85/101/43
f 88/104/44 89/105/44 87/103/44
f 90/106/45 81/107/45 89/105/45
f 82/97/41 84/100/41 83/98/41
f 84/100/42 86/102/42 85/101/42
f 86/102/43 88/104/43 87/103/43
f 88/104/44 90/106/44 89/105/44
f 90/106/45 82/108/45 81/107/45
o streetlight_hitbox
v -160.537186 1.843196 -34.532669
v -160.537186 9.146218 -34.532669
v -160.390411 1.843196 -34.426029
v -160.390411 9.146218 -34.426029
v -160.446472 1.843196 -34.253479
v -160.446472 9.146218 -34.253479
v -160.627899 1.843196 -34.253479
v -160.627899 9.146218 -34.253479
v -160.683960 1.843196 -34.426029
v -160.683960 9.146218 -34.426029
vn 0.5878 -0.0000 -0.8090
vn 0.9511 -0.0000 0.3090
vn -0.0000 -0.0000 1.0000
vn -0.9511 -0.0000 0.3090
vn -0.5878 -0.0000 -0.8090
vt 1.000000 1.000000
vt 0.800000 0.500000
vt 1.000000 0.500000
vt 0.800000 1.000000
vt 0.600000 0.500000
vt 0.600000 1.000000
vt 0.400000 0.500000
vt 0.400000 1.000000
vt 0.200000 0.500000
vt 0.200000 1.000000
vt 0.000000 0.500000
vt 0.000000 1.000000
s 0
f 92/109/46 93/110/46 91/111/46
f 94/112/47 95/113/47 93/110/47
f 96/114/48 97/115/48 95/113/48
f 98/116/49 99/117/49 97/115/49
f 100/118/50 91/119/50 99/117/50
f 92/109/46 94/112/46 93/110/46
f 94/112/47 96/114/47 95/113/47
f 96/114/48 98/116/48 97/115/48
f 98/116/49 100/118/49 99/117/49
f 100/118/50 92/120/50 91/119/50
o streetlight_hitbox
v -17.579851 1.843196 -28.695604
v -17.579851 9.146218 -28.695604
v -17.551470 1.843196 -28.516409
v -17.551470 9.146218 -28.516409
v -17.713125 1.843196 -28.434040
v -17.713125 9.146218 -28.434040
v -17.841415 1.843196 -28.562330
v -17.841415 9.146218 -28.562330
v -17.759047 1.843196 -28.723986
v -17.759047 9.146218 -28.723986
vn 0.9877 -0.0000 -0.1564
vn 0.4540 -0.0000 0.8910
vn -0.7071 -0.0000 0.7071
vn -0.8910 -0.0000 -0.4540
vn 0.1564 -0.0000 -0.9877
vt 1.000000 1.000000
vt 0.800000 0.500000
vt 1.000000 0.500000
vt 0.800000 1.000000
vt 0.600000 0.500000
vt 0.600000 1.000000
vt 0.400000 0.500000
vt 0.400000 1.000000
vt 0.200000 0.500000
vt 0.200000 1.000000
vt 0.000000 0.500000
vt 0.000000 1.000000
s 0
f 102/121/51 103/122/51 101/123/51
f 104/124/52 105/125/52 103/122/52
f 106/126/53 107/127/53 105/125/53
f 108/128/54 109/129/54 107/127/54
f 110/130/55 101/131/55 109/129/55
f 102/121/51 104/124/51 103/122/51
f 104/124/52 106/126/52 105/125/52
f 106/126/53 108/128/53 107/127/53
f 108/128/54 110/130/54 109/129/54
f 110/130/55 102/132/55 101/131/55
o streetlight_hitbox
v -32.655014 1.843196 -34.532669
v -32.655014 9.146218 -34.532669
v -32.508236 1.843196 -34.426029
v -32.508236 9.146218 -34.426029
v -32.564301 1.843196 -34.253479
v -32.564301 9.146218 -34.253479
v -32.745728 1.843196 -34.253479
v -32.745728 9.146218 -34.253479
v -32.801792 1.843196 -34.426029
v -32.801792 9.146218 -34.426029
vn 0.5878 -0.0000 -0.8090
vn 0.9511 -0.0000 0.3090
vn -0.0000 -0.0000 1.0000
vn -0.9511 -0.0000 0.3090
vn -0.5878 -0.0000 -0.8090
vt 1.000000 1.000000
vt 0.800000 0.500000
vt 1.000000 0.500000
vt 0.800000 1.000000
vt 0.600000 0.500000
vt 0.600000 1.000000
vt 0.400000 0.500000
vt 0.400000 1.000000
vt 0.200000 0.500000
vt 0.200000 1.000000
vt 0.000000 0.500000
vt 0.000000 1.000000
s 0
f 112/133/56 113/134/56 111/135/56
f 114/136/57 115/137/57 113/134/57
f 116/138/58 117/139/58 115/137/58
f 118/140/59 119/141/59 117/139/59
f 120/142/60 111/143/60 119/141/60
f 112/133/56 114/136/56 113/134/56
f 114/136/57 116/138/57 115/137/57
f 116/138/58 118/140/58 117/139/58
f 118/140/59 120/142/59 119/141/59
f 120/142/60 112/144/60 111/143/60
o streetlight_hitbox
v -48.269638 1.843196 -34.532669
v -48.269638 9.146218 -34.532669
v -48.122860 1.843196 -34.426029
v -48.122860 9.146218 -34.426029
v -48.178925 1.843196 -34.253479
v -48.178925 9.146218 -34.253479
v -48.360352 1.843196 -34.253479
v -48.360352 9.146218 -34.253479
v -48.416416 1.843196 -34.426029
v -48.416416 9.146218 -34.426029
vn 0.5878 -0.0000 -0.8090
vn 0.9511 -0.0000 0.3090
vn -0.0000 -0.0000 1.0000
vn -0.9511 -0.0000 0.3090
vn -0.5878 -0.0000 -0.8090
vt 1.000000 1.000000
vt 0.800000 0.500000
vt 1.000000 0.500000
vt 0.800000 1.000000
vt 0.600000 0.500000
vt 0.600000 1.000000
vt 0.400000 0.500000
vt 0.400000 1.000000
vt 0.200000 0.500000
vt 0.200000 1.000000
vt 0.000000 0.500000
vt 0.000000 1.000000
s 0
f 122/145/61 123/146/61 121/147/61
f 124/148/62 125/149/62 123/146/62
f 126/150/63 127/151/63 125/149/63
f 128/152/64 129/153/64 127/151/64
f 130/154/65 121/155/65 129/153/65
f 122/145/61 124/148/61 123/146/61
f 124/148/62 126/150/62 125/149/62
f 126/150/63 128/152/63 127/151/63
f 128/152/64 130/154/64 129/153/64
f 130/154/65 122/156/65 121/155/65
o streetlight_hitbox
v -196.411118 1.843196 29.982956
v -196.411118 9.146218 29.982956
v -196.517761 1.843196 30.129736
v -196.517761 9.146218 30.129736
v -196.690308 1.843196 30.073671
v -196.690308 9.146218 30.073671
v -196.690308 1.843196 29.892241
v -196.690308 9.146218 29.892241
v -196.517761 1.843196 29.836176
v -196.517761 9.146218 29.836176
vn 0.8090 -0.0000 0.5878
vn -0.3090 -0.0000 0.9511
vn -1.0000 -0.0000 -0.0000
vn -0.3090 -0.0000 -0.9511
vn 0.8090 -0.0000 -0.5878
vt 1.000000 1.000000
vt 0.800000 0.500000
vt 1.000000 0.500000
vt 0.800000 1.000000
vt 0.600000 0.500000
vt 0.600000 1.000000
vt 0.400000 0.500000
vt 0.400000 1.000000
vt 0.200000 0.500000
vt 0.200000 1.000000
vt 0.000000 0.500000
vt 0.000000 1.000000
s 0
f 132/157/66 133/158/66 131/159/66
f 134/160/67 135/161/67 133/158/67
f 136/162/68 137/163/68 135/161/68
f 138/164/69 139/165/69 137/163/69
f 140/166/70 131/167/70 139/165/70
f 132/157/66 134/160/66 133/158/66
f 134/160/67 136/162/67 135/161/67
f 136/162/68 138/164/68 137/163/68
f 138/164/69 140/166/69 139/165/69
f 140/166/70 132/168/70 131/167/70
o streetlight_hitbox
v -196.411118 1.843196 49.968330
v -196.411118 9.146218 49.968330
v -196.517761 1.843196 50.115108
v -196.517761 9.146218 50.115108
v -196.690308 1.843196 50.059044
v -196.690308 9.146218 50.059044
v -196.690308 1.843196 49.877617
v -196.690308 9.146218 49.877617
v -196.517761 1.843196 49.821552
v -196.517761 9.146218 49.821552
vn 0.8090 -0.0000 0.5878
vn -0.3090 -0.0000 0.9511
vn -1.0000 -0.0000 -0.0000
vn -0.3090 -0.0000 -0.9511
vn 0.8090 -0.0000 -0.5878
vt 1.000000 1.000000
vt 0.800000 0.500000
vt 1.000000 0.500000
vt 0.800000 1.000000
vt 0.600000 0.500000
vt 0.600000 1.000000
vt 0.400000 0.500000
vt 0.400000 1.000000
vt 0.200000 0.500000
vt 0.200000 1.000000
vt 0.000000 0.500000
vt 0.000000 1.000000
s 0
f 142/169/71 143/170/71 141/171/71
f 144/172/72 145/173/72 143/170/72
f 146/174/73 147/175/73 145/173/73
f 148/176/74 149/177/74 147/175/74
f 150/178/75 141/179/75 149/177/75
f 142/169/71 144/172/71 143/170/71
f 144/172/72 146/174/72 145/173/72
f 146/174/73 148/176/73 147/175/73
f 148/176/74 150/178/74 149/177/74
f 150/178/75 142/180/75 141/179/75
o streetlight_hitbox
v -196.411118 1.843196 90.319756
v -196.411118 9.146218 90.319756
v -196.517761 1.843196 90.466537
v -196.517761 9.146218 90.466537
v -196.690308 1.843196 90.410469
v -196.690308 9.146218 90.410469
v -196.690308 1.843196 90.229042
v -196.690308 9.146218 90.229042
v -196.517761 1.843196 90.172974
v -196.517761 9.146218 90.172974
vn 0.8090 -0.0000 0.5878
vn -0.3090 -0.0000 0.9511
vn -1.0000 -0.0000 -0.0000
vn -0.3090 -0.0000 -0.9511
vn 0.8090 -0.0000 -0.5878
vt 1.000000 1.000000
vt 0.800000 0.500000
vt 1.000000 0.500000
vt 0.800000 1.000000
vt 0.600000 0.500000
vt 0.600000 1.000000
vt 0.400000 0.500000
vt 0.400000 1.000000
vt 0.200000 0.500000
vt 0.200000 1.000000
vt 0.000000 0.500000
vt 0.000000 1.000000
s 0
f 152/181/76 153/182/76 151/183/76
f 154/184/77 155/185/77 153/182/77
f 156/186/78 157/187/78 155/185/78
f 158/188/79 159/189/79 157/187/79
f 160/190/80 151/191/80 159/189/80
f 152/181/76 154/184/76 153/182/76
f 154/184/77 156/186/77 155/185/77
f 156/186/78 158/188/78 157/187/78
f 158/188/79 160/190/79 159/189/79
f 160/190/80 152/192/80 151/191/80
o streetlight_hitbox
v -196.411118 1.843196 70.014091
v -196.411118 9.146218 70.014091
v -196.517761 1.843196 70.160873
v -196.517761 9.146218 70.160873
v -196.690308 1.843196 70.104805
v -196.690308 9.146218 70.104805
v -196.690308 1.843196 69.923378
v -196.690308 9.146218 69.923378
v -196.517761 1.843196 69.867310
v -196.517761 9.146218 69.867310
vn 0.8090 -0.0000 0.5878
vn -0.3090 -0.0000 0.9511
vn -1.0000 -0.0000 -0.0000
vn -0.3090 -0.0000 -0.9511
vn 0.8090 -0.0000 -0.5878
vt 1.000000 1.000000
vt 0.800000 0.500000
vt 1.000000 0.500000
vt 0.800000 1.000000
vt 0.600000 0.500000
vt 0.600000 1.000000
vt 0.400000 0.500000
vt 0.400000 1.000000
vt 0.200000 0.500000
vt 0.200000 1.000000
vt 0.000000 0.500000
vt 0.000000 1.000000
s 0
f 162/193/81 163/194/81 161/195/81
f 164/196/82 165/197/82 163/194/82
f 166/198/83 167/199/83 165/197/83
f 168/200/84 169/201/84 167/199/84
f 170/202/85 161/203/85 169/201/85
f 162/193/81 164/196/81 163/194/81
f 164/196/82 166/198/82 165/197/82
f 166/198/83 168/200/83 167/199/83
f 168/200/84 170/202/84 169/201/84
f 170/202/85 162/204/85 161/203/85
o streetlight_hitbox
v -196.411118 1.843196 110.408638
v -196.411118 9.146218 110.408638
v -196.517761 1.843196 110.555420
v -196.517761 9.146218 110.555420
v -196.690308 1.843196 110.499352
v -196.690308 9.146218 110.499352
v -196.690308 1.843196 110.317924
v -196.690308 9.146218 110.317924
v -196.517761 1.843196 110.261856
v -196.517761 9.146218 110.261856
vn 0.8090 -0.0000 0.5878
vn -0.3090 -0.0000 0.9511
vn -1.0000 -0.0000 -0.0000
vn -0.3090 -0.0000 -0.9511
vn 0.8090 -0.0000 -0.5878
vt 1.000000 1.000000
vt 0.800000 0.500000
vt 1.000000 0.500000
vt 0.800000 1.000000
vt 0.600000 0.500000
vt 0.600000 1.000000
vt 0.400000 0.500000
vt 0.400000 1.000000
vt 0.200000 0.500000
vt 0.200000 1.000000
vt 0.000000 0.500000
vt 0.000000 1.000000
s 0
f 172/205/86 173/206/86 171/207/86
f 174/208/87 175/209/87 173/206/87
f 176/210/88 177/211/88 175/209/88
f 178/212/89 179/213/89 177/211/89
f 180/214/90 171/215/90 179/213/90
f 172/205/86 174/208/86 173/206/86
f 174/208/87 176/210/87 175/209/87
f 176/210/88 178/212/88 177/211/88
f 178/212/89 180/214/89 179/213/89
f 180/214/90 172/216/90 171/215/90
o streetlight_hitbox
v -196.411118 1.843196 130.394012
v -196.411118 9.146218 130.394012
v -196.517761 1.843196 130.540787
v -196.517761 9.146218 130.540787
v -196.690308 1.843196 130.484726
v -196.690308 9.146218 130.484726
v -196.690308 1.843196 130.303299
v -196.690308 9.146218 130.303299
v -196.517761 1.843196 130.247238
v -196.517761 9.146218 130.247238
vn 0.8090 -0.0000 0.5878
vn -0.3090 -0.0000 0.9511
vn -1.0000 -0.0000 -0.0000
vn -0.3090 -0.0000 -0.9511
vn 0.8090 -0.0000 -0.5878
vt 1.000000 1.000000
vt 0.800000 0.500000
vt 1.000000 0.500000
vt 0.800000 1.000000
vt 0.600000 0.500000
vt 0.600000 1.000000
vt 0.400000 0.500000
vt 0.400000 1.000000
vt 0.200000 0.500000
vt 0.200000 1.000000
vt 0.000000 0.500000
vt 0.000000 1.000000
s 0
f 182/217/91 183/218/91 181/219/91
f 184/220/92 185/221/92 183/218/92
f 186/222/93 187/223/93 185/221/93
f 188/224/94 189/225/94 187/223/94
f 190/226/95 181/227/95 189/225/95
f 182/217/91 184/220/91 183/218/91
f 184/220/92 186/222/92 185/221/92
f 186/222/93 188/224/93 187/223/93
f 188/224/94 190/226/94 189/225/94
f 190/226/95 182/228/95 181/227/95
o streetlight_hitbox
v -196.411118 1.843196 150.439789
v -196.411118 9.146218 150.439789
v -196.517761 1.843196 150.586563
v -196.517761 9.146218 150.586563
v -196.690308 1.843196 150.530502
v -196.690308 9.146218 150.530502
v -196.690308 1.843196 150.349075
v -196.690308 9.146218 150.349075
v -196.517761 1.843196 150.293015
v -196.517761 9.146218 150.293015
vn 0.8090 -0.0000 0.5878
vn -0.3090 -0.0000 0.9511
vn -1.0000 -0.0000 -0.0000
vn -0.3090 -0.0000 -0.9511
vn 0.8090 -0.0000 -0.5878
vt 1.000000 1.000000
vt 0.800000 0.500000
vt 1.000000 0.500000
vt 0.800000 1.000000
vt 0.600000 0.500000
vt 0.600000 1.000000
vt 0.400000 0.500000
vt 0.400000 1.000000
vt 0.200000 0.500000
vt 0.200000 1.000000
vt 0.000000 0.500000
vt 0.000000 1.000000
s 0
f 192/229/96 193/230/96 191/231/96
f 194/232/97 195/233/97 193/230/97
f 196/234/98 197/235/98 195/233/98
f 198/236/99 199/237/99 197/235/99
f 200/238/100 191/239/100 199/237/100
f 192/229/96 194/232/96 193/230/96
f 194/232/97 196/234/97 195/233/97
f 196/234/98 198/236/98 197/235/98
f 198/236/99 200/238/99 199/237/99
f 200/238/100 192/240/100 191/239/100
o streetlight_hitbox
v -126.160370 1.843196 16.532593
v -126.160370 9.146218 16.532593
v -126.053726 1.843196 16.385813
v -126.053726 9.146218 16.385813
v -125.881172 1.843196 16.441877
v -125.881172 9.146218 16.441877
v -125.881172 1.843196 16.623308
v -125.881172 9.146218 16.623308
v -126.053726 1.843196 16.679373
v -126.053726 9.146218 16.679373
vn -0.8090 -0.0000 -0.5878
vn 0.3090 -0.0000 -0.9511
vn 1.0000 -0.0000 -0.0000
vn 0.3090 -0.0000 0.9511
vn -0.8090 -0.0000 0.5878
vt 1.000000 1.000000
vt 0.800000 0.500000
vt 1.000000 0.500000
vt 0.800000 1.000000
vt 0.600000 0.500000
vt 0.600000 1.000000
vt 0.400000 0.500000
vt 0.400000 1.000000
vt 0.200000 0.500000
vt 0.200000 1.000000
vt 0.000000 0.500000
vt 0.000000 1.000000
s 0
f 202/241/101 203/242/101 201/243/101
f 204/244/102 205/245/102 203/242/102
f 206/246/103 207/247/103 205/245/103
f 208/248/104 209/249/104 207/247/104
f 210/250/105 201/251/105 209/249/105
f 202/241/101 204/244/101 203/242/101
f 204/244/102 206/246/102 205/245/102
f 206/246/103 208/248/103 207/247/103
f 208/248/104 210/250/104 209/249/104
f 210/250/105 202/252/105 201/251/105
o streetlight_hitbox
v -126.160370 1.843196 36.621483
v -126.160370 9.146218 36.621483
v -126.053726 1.843196 36.474705
v -126.053726 9.146218 36.474705
v -125.881172 1.843196 36.530769
v -125.881172 9.146218 36.530769
v -125.881172 1.843196 36.712196
v -125.881172 9.146218 36.712196
v -126.053726 1.843196 36.768261
v -126.053726 9.146218 36.768261
vn -0.8090 -0.0000 -0.5878
vn 0.3090 -0.0000 -0.9511
vn 1.0000 -0.0000 -0.0000
vn 0.3090 -0.0000 0.9511
vn -0.8090 -0.0000 0.5878
vt 1.000000 1.000000
vt 0.800000 0.500000
vt 1.000000 0.500000
vt 0.800000 1.000000
vt 0.600000 0.500000
vt 0.600000 1.000000
vt 0.400000 0.500000
vt 0.400000 1.000000
vt 0.200000 0.500000
vt 0.200000 1.000000
vt 0.000000 0.500000
vt 0.000000 1.000000
s 0
f 212/253/106 213/254/106 211/255/106
f 214/256/107 215/257/107 213/254/107
f 216/258/108 217/259/108 215/257/108
f 218/260/109 219/261/109 217/259/109
f 220/262/110 211/263/110 219/261/110
f 212/253/106 214/256/106 213/254/106
f 214/256/107 216/258/107 215/257/107
f 216/258/108 218/260/108 217/259/108
f 218/260/109 220/262/109 219/261/109
f 220/262/110 212/264/110 211/263/110
o streetlight_hitbox
v -126.160370 1.843196 56.606865
v -126.160370 9.146218 56.606865
v -126.053726 1.843196 56.460087
v -126.053726 9.146218 56.460087
v -125.881172 1.843196 56.516151
v -125.881172 9.146218 56.516151
v -125.881172 1.843196 56.697578
v -125.881172 9.146218 56.697578
v -126.053726 1.843196 56.753643
v -126.053726 9.146218 56.753643
vn -0.8090 -0.0000 -0.5878
vn 0.3090 -0.0000 -0.9511
vn 1.0000 -0.0000 -0.0000
vn 0.3090 -0.0000 0.9511
vn -0.8090 -0.0000 0.5878
vt 1.000000 1.000000
vt 0.800000 0.500000
vt 1.000000 0.500000
vt 0.800000 1.000000
vt 0.600000 0.500000
vt 0.600000 1.000000
vt 0.400000 0.500000
vt 0.400000 1.000000
vt 0.200000 0.500000
vt 0.200000 1.000000
vt 0.000000 0.500000
vt 0.000000 1.000000
s 0
f 222/265/111 223/266/111 221/267/111
f 224/268/112 225/269/112 223/266/112
f 226/270/113 227/271/113 225/269/113
f 228/272/114 229/273/114 227/271/114
f 230/274/115 221/275/115 229/273/115
f 222/265/111 224/268/111 223/266/111
f 224/268/112 226/270/112 225/269/112
f 226/270/113 228/272/113 227/271/113
f 228/272/114 230/274/114 229/273/114
f 230/274/115 222/276/115 221/275/115
o streetlight_hitbox
v -126.160370 1.843196 96.958275
v -126.160370 9.146218 96.958275
v -126.053726 1.843196 96.811493
v -126.053726 9.146218 96.811493
v -125.881172 1.843196 96.867561
v -125.881172 9.146218 96.867561
v -125.881172 1.843196 97.048988
v -125.881172 9.146218 97.048988
v -126.053726 1.843196 97.105057
v -126.053726 9.146218 97.105057
vn -0.8090 -0.0000 -0.5878
vn 0.3090 -0.0000 -0.9511
vn 1.0000 -0.0000 -0.0000
vn 0.3090 -0.0000 0.9511
vn -0.8090 -0.0000 0.5878
vt 1.000000 1.000000
vt 0.800000 0.500000
vt 1.000000 0.500000
vt 0.800000 1.000000
vt 0.600000 0.500000
vt 0.600000 1.000000
vt 0.400000 0.500000
vt 0.400000 1.000000
vt 0.200000 0.500000
vt 0.200000 1.000000
vt 0.000000 0.500000
vt 0.000000 1.000000
s 0
f 232/277/116 233/278/116 231/279/116
f 234/280/117 235/281/117 233/278/117
f 236/282/118 237/283/118 235/281/118
f 238/284/119 239/285/119 237/283/119
f 240/286/120 231/287/120 239/285/120
f 232/277/116 234/280/116 233/278/116
f 234/280/117 236/282/117 235/281/117
f 236/282/118 238/284/118 237/283/118
f 238/284/119 240/286/119 239/285/119
f 240/286/120 232/288/120 231/287/120
o streetlight_hitbox
v -126.160370 1.843196 76.652611
v -126.160370 9.146218 76.652611
v -126.053726 1.843196 76.505829
v -126.053726 9.146218 76.505829
v -125.881172 1.843196 76.561897
v -125.881172 9.146218 76.561897
v -125.881172 1.843196 76.743324
v -125.881172 9.146218 76.743324
v -126.053726 1.843196 76.799393
v -126.053726 9.146218 76.799393
vn -0.8090 -0.0000 -0.5878
vn 0.3090 -0.0000 -0.9511
vn 1.0000 -0.0000 -0.0000
vn 0.3090 -0.0000 0.9511
vn -0.8090 -0.0000 0.5878
vt 1.000000 1.000000
vt 0.800000 0.500000
vt 1.000000 0.500000
vt 0.800000 1.000000
vt 0.600000 0.500000
vt 0.600000 1.000000
vt 0.400000 0.500000
vt 0.400000 1.000000
vt 0.200000 0.500000
vt 0.200000 1.000000
vt 0.000000 0.500000
vt 0.000000 1.000000
s 0
f 242/289/121 243/290/121 241/291/121
f 244/292/122 245/293/122 243/290/122
f 246/294/123 247/295/123 245/293/123
f 248/296/124 249/297/124 247/295/124
f 250/298/125 241/299/125 249/297/125
f 242/289/121 244/292/121 243/290/121
f 244/292/122 246/294/122 245/293/122
f 246/294/123 248/296/123 247/295/123
f 248/296/124 250/298/124 249/297/124
f 250/298/125 242/300/125 241/299/125
o streetlight_hitbox
v -126.160370 1.843196 117.047173
v -126.160370 9.146218 117.047173
v -126.053726 1.843196 116.900391
v -126.053726 9.146218 116.900391
v -125.881172 1.843196 116.956459
v -125.881172 9.146218 116.956459
v -125.881172 1.843196 117.137886
v -125.881172 9.146218 117.137886
v -126.053726 1.843196 117.193954
v -126.053726 9.146218 117.193954
vn -0.8090 -0.0000 -0.5878
vn 0.3090 -0.0000 -0.9511
vn 1.0000 -0.0000 -0.0000
vn 0.3090 -0.0000 0.9511
vn -0.8090 -0.0000 0.5878
vt 1.000000 1.000000
vt 0.800000 0.500000
vt 1.000000 0.500000
vt 0.800000 1.000000
vt 0.600000 0.500000
vt 0.600000 1.000000
vt 0.400000 0.500000
vt 0.400000 1.000000
vt 0.200000 0.500000
vt 0.200000 1.000000
vt 0.000000 0.500000
vt 0.000000 1.000000
s 0
f 252/301/126 253/302/126 251/303/126
f 254/304/127 255/305/127 253/302/127
f 256/306/128 257/307/128 255/305/128
f 258/308/129 259/309/129 257/307/129
f 260/310/130 251/311/130 259/309/130
f 252/301/126 254/304/126 253/302/126
f 254/304/127 256/306/127 255/305/127
f 256/306/128 258/308/128 257/307/128
f 258/308/129 260/310/129 259/309/129
f 260/310/130 252/312/130 251/311/130
o streetlight_hitbox
v -126.160370 1.843196 137.032532
v -126.160370 9.146218 137.032532
v -126.053726 1.843196 136.885757
v -126.053726 9.146218 136.885757
v -125.881172 1.843196 136.941818
v -125.881172 9.146218 136.941818
v -125.881172 1.843196 137.123245
v -125.881172 9.146218 137.123245
v -126.053726 1.843196 137.179306
v -126.053726 9.146218 137.179306
vn -0.8090 -0.0000 -0.5878
vn 0.3090 -0.0000 -0.9511
vn 1.0000 -0.0000 -0.0000
vn 0.3090 -0.0000 0.9511
vn -0.8090 -0.0000 0.5878
vt 1.000000 1.000000
vt 0.800000 0.500000
vt 1.000000 0.500000
vt 0.800000 1.000000
vt 0.600000 0.500000
vt 0.600000 1.000000
vt 0.400000 0.500000
vt 0.400000 1.000000
vt 0.200000 0.500000
vt 0.200000 1.000000
vt 0.000000 0.500000
vt 0.000000 1.000000
s 0
f 262/313/131 263/314/131 261/315/131
f 264/316/132 265/317/132 263/314/132
f 266/318/133 267/319/133 265/317/133
f 268/320/134 269/321/134 267/319/134
f 270/322/135 261/323/135 269/321/135
f 262/313/131 264/316/131 263/314/131
f 264/316/132 266/318/132 265/317/132
f 266/318/133 268/320/133 267/319/133
f 268/320/134 270/322/134 269/321/134
f 270/322/135 262/324/135 261/323/135
o streetlight_hitbox
v -126.160370 1.843196 -3.937416
v -126.160370 9.146218 -3.937416
v -126.053726 1.843196 -4.084196
v -126.053726 9.146218 -4.084196
v -125.881172 1.843196 -4.028131
v -125.881172 9.146218 -4.028131
v -125.881172 1.843196 -3.846701
v -125.881172 9.146218 -3.846701
v -126.053726 1.843196 -3.790637
v -126.053726 9.146218 -3.790637
vn -0.8090 -0.0000 -0.5878
vn 0.3090 -0.0000 -0.9511
vn 1.0000 -0.0000 -0.0000
vn 0.3090 -0.0000 0.9511
vn -0.8090 -0.0000 0.5878
vt 1.000000 1.000000
vt 0.800000 0.500000
vt 1.000000 0.500000
vt 0.800000 1.000000
vt 0.600000 0.500000
vt 0.600000 1.000000
vt 0.400000 0.500000
vt 0.400000 1.000000
vt 0.200000 0.500000
vt 0.200000 1.000000
vt 0.000000 0.500000
vt 0.000000 1.000000
s 0
f 272/325/136 273/326/136 271/327/136
f 274/328/137 275/329/137 273/326/137
f 276/330/138 277/331/138 275/329/138
f 278/332/139 279/333/139 277/331/139
f 280/334/140 271/335/140 279/333/140
f 272/325/136 274/328/136 273/326/136
f 274/328/137 276/330/137 275/329/137
f 276/330/138 278/332/138 277/331/138
f 278/332/139 280/334/139 279/333/139
f 280/334/140 272/336/140 271/335/140
o streetlight_hitbox
v -14.060930 1.843196 76.966789
v -14.060930 9.146218 76.966789
v -14.167573 1.843196 77.113571
v -14.167573 9.146218 77.113571
v -14.340124 1.843196 77.057503
v -14.340124 9.146218 77.057503
v -14.340123 1.843196 76.876076
v -14.340123 9.146218 76.876076
v -14.167573 1.843196 76.820007
v -14.167573 9.146218 76.820007
vn 0.8090 -0.0000 0.5878
vn -0.3090 -0.0000 0.9511
vn -1.0000 -0.0000 -0.0000
vn -0.3090 -0.0000 -0.9511
vn 0.8090 -0.0000 -0.5878
vt 1.000000 1.000000
vt 0.800000 0.500000
vt 1.000000 0.500000
vt 0.800000 1.000000
vt 0.600000 0.500000
vt 0.600000 1.000000
vt 0.400000 0.500000
vt 0.400000 1.000000
vt 0.200000 0.500000
vt 0.200000 1.000000
vt 0.000000 0.500000
vt 0.000000 1.000000
s 0
f 282/337/141 283/338/141 281/339/141
f 284/340/142 285/341/142 283/338/142
f 286/342/143 287/343/143 285/341/143
f 288/344/144 289/345/144 287/343/144
f 290/346/145 281/347/145 289/345/145
f 282/337/141 284/340/141 283/338/141
f 284/340/142 286/342/142 285/341/142
f 286/342/143 288/344/143 287/343/143
f 288/344/144 290/346/144 289/345/144
f 290/346/145 282/348/145 281/347/145
o streetlight_hitbox
v -14.060930 1.843196 117.318214
v -14.060930 9.146218 117.318214
v -14.167573 1.843196 117.464996
v -14.167573 9.146218 117.464996
v -14.340124 1.843196 117.408928
v -14.340124 9.146218 117.408928
v -14.340123 1.843196 117.227501
v -14.340123 9.146218 117.227501
v -14.167573 1.843196 117.171432
v -14.167573 9.146218 117.171432
vn 0.8090 -0.0000 0.5878
vn -0.3090 -0.0000 0.9511
vn -1.0000 -0.0000 -0.0000
vn -0.3090 -0.0000 -0.9511
vn 0.8090 -0.0000 -0.5878
vt 1.000000 1.000000
vt 0.800000 0.500000
vt 1.000000 0.500000
vt 0.800000 1.000000
vt 0.600000 0.500000
vt 0.600000 1.000000
vt 0.400000 0.500000
vt 0.400000 1.000000
vt 0.200000 0.500000
vt 0.200000 1.000000
vt 0.000000 0.500000
vt 0.000000 1.000000
s 0
f 292/349/146 293/350/146 291/351/146
f 294/352/147 295/353/147 293/350/147
f 296/354/148 297/355/148 295/353/148
f 298/356/149 299/357/149 297/355/149
f 300/358/150 291/359/150 299/357/150
f 292/349/146 294/352/146 293/350/146
f 294/352/147 296/354/147 295/353/147
f 296/354/148 298/356/148 297/355/148
f 298/356/149 300/358/149 299/357/149
f 300/358/150 292/360/150 291/359/150
o streetlight_hitbox
v -14.060930 1.843196 97.012550
v -14.060930 9.146218 97.012550
v -14.167573 1.843196 97.159332
v -14.167573 9.146218 97.159332
v -14.340124 1.843196 97.103264
v -14.340124 9.146218 97.103264
v -14.340123 1.843196 96.921837
v -14.340123 9.146218 96.921837
v -14.167573 1.843196 96.865768
v -14.167573 9.146218 96.865768
vn 0.8090 -0.0000 0.5878
vn -0.3090 -0.0000 0.9511
vn -1.0000 -0.0000 -0.0000
vn -0.3090 -0.0000 -0.9511
vn 0.8090 -0.0000 -0.5878
vt 1.000000 1.000000
vt 0.800000 0.500000
vt 1.000000 0.500000
vt 0.800000 1.000000
vt 0.600000 0.500000
vt 0.600000 1.000000
vt 0.400000 0.500000
vt 0.400000 1.000000
vt 0.200000 0.500000
vt 0.200000 1.000000
vt 0.000000 0.500000
vt 0.000000 1.000000
s 0
f 302/361/151 303/362/151 301/363/151
f 304/364/152 305/365/152 303/362/152
f 306/366/153 307/367/153 305/365/153
f 308/368/154 309/369/154 307/367/154
f 310/370/155 301/371/155 309/369/155
f 302/361/151 304/364/151 303/362/151
f 304/364/152 306/366/152 305/365/152
f 306/366/153 308/368/153 307/367/153
f 308/368/154 310/370/154 309/369/154
f 310/370/155 302/372/155 301/371/155
o streetlight_hitbox
v -14.060930 1.843196 137.407104
v -14.060930 9.146218 137.407104
v -14.167573 1.843196 137.553879
v -14.167573 9.146218 137.553879
v -14.340124 1.843196 137.497818
v -14.340124 9.146218 137.497818
v -14.340123 1.843196 137.316391
v -14.340123 9.146218 137.316391
v -14.167573 1.843196 137.260330
v -14.167573 9.146218 137.260330
vn 0.8090 -0.0000 0.5878
vn -0.3090 -0.0000 0.9511
vn -1.0000 -0.0000 -0.0000
vn -0.3090 -0.0000 -0.9511
vn 0.8090 -0.0000 -0.5878
vt 1.000000 1.000000
vt 0.800000 0.500000
vt 1.000000 0.500000
vt 0.800000 1.000000
vt 0.600000 0.500000
vt 0.600000 1.000000
vt 0.400000 0.500000
vt 0.400000 1.000000
vt 0.200000 0.500000
vt 0.200000 1.000000
vt 0.000000 0.500000
vt 0.000000 1.000000
s 0
f 312/373/156 313/374/156 311/375/156
f 314/376/157 315/377/157 313/374/157
f 316/378/158 317/379/158 315/377/158
f 318/380/159 319/381/159 317/379/159
f 320/382/160 311/383/160 319/381/160
f 312/373/156 314/376/156 313/374/156
f 314/376/157 316/378/157 315/377/157
f 316/378/158 318/380/158 317/379/158
f 318/380/159 320/382/159 319/381/159
f 320/382/160 312/384/160 311/383/160
o streetlight_hitbox
v -14.060930 1.843196 157.392456
v -14.060930 9.146218 157.392456
v -14.167573 1.843196 157.539230
v -14.167573 9.146218 157.539230
v -14.340124 1.843196 157.483170
v -14.340124 9.146218 157.483170
v -14.340123 1.843196 157.301743
v -14.340123 9.146218 157.301743
v -14.167573 1.843196 157.245682
v -14.167573 9.146218 157.245682
vn 0.8090 -0.0000 0.5878
vn -0.3090 -0.0000 0.9511
vn -1.0000 -0.0000 -0.0000
vn -0.3090 -0.0000 -0.9511
vn 0.8090 -0.0000 -0.5878
vt 1.000000 1.000000
vt 0.800000 0.500000
vt 1.000000 0.500000
vt 0.800000 1.000000
vt 0.600000 0.500000
vt 0.600000 1.000000
vt 0.400000 0.500000
vt 0.400000 1.000000
vt 0.200000 0.500000
vt 0.200000 1.000000
vt 0.000000 0.500000
vt 0.000000 1.000000
s 0
f 322/385/161 323/386/161 321/387/161
f 324/388/162 325/389/162 323/386/162
f 326/390/163 327/391/163 325/389/163
f 328/392/164 329/393/164 327/391/164
f 330/394/165 321/395/165 329/393/165
f 322/385/161 324/388/161 323/386/161
f 324/388/162 326/390/162 325/389/162
f 326/390/163 328/392/163 327/391/163
f 328/392/164 330/394/164 329/393/164
f 330/394/165 322/396/165 321/395/165
o streetlight_hitbox
v -14.060930 1.843196 177.438232
v -14.060930 9.146218 177.438232
v -14.167573 1.843196 177.585007
v -14.167573 9.146218 177.585007
v -14.340124 1.843196 177.528946
v -14.340124 9.146218 177.528946
v -14.340123 1.843196 177.347519
v -14.340123 9.146218 177.347519
v -14.167573 1.843196 177.291458
v -14.167573 9.146218 177.291458
vn 0.8090 -0.0000 0.5878
vn -0.3090 -0.0000 0.9511
vn -1.0000 -0.0000 -0.0000
vn -0.3090 -0.0000 -0.9511
vn 0.8090 -0.0000 -0.5878
vt 1.000000 1.000000
vt 0.800000 0.500000
vt 1.000000 0.500000
vt 0.800000 1.000000
vt 0.600000 0.500000
vt 0.600000 1.000000
vt 0.400000 0.500000
vt 0.400000 1.000000
vt 0.200000 0.500000
vt 0.200000 1.000000
vt 0.000000 0.500000
vt 0.000000 1.000000
s 0
f 332/397/166 333/398/166 331/399/166
f 334/400/167 335/401/167 333/398/167
f 336/402/168 337/403/168 335/401/168
f 338/404/169 339/405/169 337/403/169
f 340/406/170 331/407/170 339/405/170
f 332/397/166 334/400/166 333/398/166
f 334/400/167 336/402/167 335/401/167
f 336/402/168 338/404/168 337/403/168
f 338/404/169 340/406/169 339/405/169
f 340/406/170 332/408/170 331/407/170
o streetlight_hitbox
v -14.060930 1.843196 197.428375
v -14.060930 9.146218 197.428375
v -14.167573 1.843196 197.575150
v -14.167573 9.146218 197.575150
v -14.340124 1.843196 197.519089
v -14.340124 9.146218 197.519089
v -14.340123 1.843196 197.337662
v -14.340123 9.146218 197.337662
v -14.167573 1.843196 197.281601
v -14.167573 9.146218 197.281601
vn 0.8090 -0.0000 0.5878
vn -0.3090 -0.0000 0.9511
vn -1.0000 -0.0000 -0.0000
vn -0.3090 -0.0000 -0.9511
vn 0.8090 -0.0000 -0.5878
vt 1.000000 1.000000
vt 0.800000 0.500000
vt 1.000000 0.500000
vt 0.800000 1.000000
vt 0.600000 0.500000
vt 0.600000 1.000000
vt 0.400000 0.500000
vt 0.400000 1.000000
vt 0.200000 0.500000
vt 0.200000 1.000000
vt 0.000000 0.500000
vt 0.000000 1.000000
s 0
f 342/409/171 343/410/171 341/411/171
f 344/412/172 345/413/172 343/410/172
f 346/414/173 347/415/173 345/413/173
f 348/416/174 349/417/174 347/415/174
f 350/418/175 341/419/175 349/417/175
f 342/409/171 344/412/171 343/410/171
f 344/412/172 346/414/172 345/413/172
f 346/414/173 348/416/173 347/415/173
f 348/416/174 350/418/174 349/417/174
f 350/418/175 342/420/175 341/419/175
o streetlight_hitbox
v -160.742966 1.843196 190.256790
v -160.742966 9.146218 190.256790
v -160.838974 1.843196 190.102844
v -160.838974 9.146218 190.102844
v -160.722229 1.843196 189.963959
v -160.722229 9.146218 189.963959
v -160.554062 1.843196 190.032074
v -160.554062 9.146218 190.032074
v -160.566879 1.843196 190.213043
v -160.566879 9.146218 190.213043
vn -0.8485 -0.0000 0.5292
vn -0.7655 -0.0000 -0.6435
vn 0.3754 -0.0000 -0.9269
vn 0.9975 -0.0000 0.0706
vn 0.2411 -0.0000 0.9705
vt 1.000000 1.000000
vt 0.800000 0.500000
vt 1.000000 0.500000
vt 0.800000 1.000000
vt 0.600000 0.500000
vt 0.600000 1.000000
vt 0.400000 0.500000
vt 0.400000 1.000000
vt 0.200000 0.500000
vt 0.200000 1.000000
vt 0.000000 0.500000
vt 0.000000 1.000000
s 0
f 352/421/176 353/422/176 351/423/176
f 354/424/177 355/425/177 353/422/177
f 356/426/178 357/427/178 355/425/178
f 358/428/179 359/429/179 357/427/179
f 360/430/180 351/431/180 359/429/180
f 352/421/176 354/424/176 353/422/176
f 354/424/177 356/426/177 355/425/177
f 356/426/178 358/428/178 357/427/178
f 358/428/179 360/430/179 359/429/179
f 360/430/180 352/432/180 351/431/180
o streetlight_hitbox
v -177.335815 1.843196 182.677933
v -177.335815 9.146218 182.677933
v -177.431824 1.843196 182.523987
v -177.431824 9.146218 182.523987
v -177.315079 1.843196 182.385101
v -177.315079 9.146218 182.385101
v -177.146912 1.843196 182.453217
v -177.146912 9.146218 182.453217
v -177.159729 1.843196 182.634186
v -177.159729 9.146218 182.634186
vn -0.8485 -0.0000 0.5292
vn -0.7655 -0.0000 -0.6435
vn 0.3754 -0.0000 -0.9269
vn 0.9975 -0.0000 0.0706
vn 0.2411 -0.0000 0.9705
vt 1.000000 1.000000
vt 0.800000 0.500000
vt 1.000000 0.500000
vt 0.800000 1.000000
vt 0.600000 0.500000
vt 0.600000 1.000000
vt 0.400000 0.500000
vt 0.400000 1.000000
vt 0.200000 0.500000
vt 0.200000 1.000000
vt 0.000000 0.500000
vt 0.000000 1.000000
s 0
f 362/433/181 363/434/181 361/435/181
f 364/436/182 365/437/182 363/434/182
f 366/438/183 367/439/183 365/437/183
f 368/440/184 369/441/184 367/439/184
f 370/442/185 361/443/185 369/441/185
f 362/433/181 364/436/181 363/434/181
f 364/436/182 366/438/182 365/437/182
f 366/438/183 368/440/183 367/439/183
f 368/440/184 370/442/184 369/441/184
f 370/442/185 362/444/185 361/443/185
o streetlight_hitbox
v 50.732063 1.686700 273.060181
v 50.732063 8.989722 273.060181
v 50.578911 1.686700 272.962891
v 50.578911 8.989722 272.962891
v 50.624092 1.686700 272.787170
v 50.624092 8.989722 272.787170
v 50.805168 1.686700 272.775848
v 50.805168 8.989722 272.775848
v 50.871899 1.686700 272.944580
v 50.871899 8.989722 272.944580
vn -0.5361 -0.0000 0.8441
vn -0.9685 -0.0000 -0.2490
vn -0.0624 -0.0000 -0.9980
vn 0.9299 -0.0000 -0.3678
vn 0.6372 -0.0000 0.7707
vt 1.000000 1.000000
vt 0.800000 0.500000
vt 1.000000 0.500000
vt 0.800000 1.000000
vt 0.600000 0.500000
vt 0.600000 1.000000
vt 0.400000 0.500000
vt 0.400000 1.000000
vt 0.200000 0.500000
vt 0.200000 1.000000
vt 0.000000 0.500000
vt 0.000000 1.000000
s 0
f 372/445/186 373/446/186 371/447/186
f 374/448/187 375/449/187 373/446/187
f 376/450/188 377/451/188 375/449/188
f 378/452/189 379/453/189 377/451/189
f 380/454/190 371/455/190 379/453/190
f 372/445/186 374/448/186 373/446/186
f 374/448/187 376/450/187 375/449/187
f 376/450/188 378/452/188 377/451/188
f 378/452/189 380/454/189 379/453/189
f 380/454/190 372/456/190 371/455/190
o streetlight_hitbox
v 30.405964 1.686700 272.973877
v 30.405964 8.989722 272.973877
v 30.277138 1.686700 272.846100
v 30.277138 8.989722 272.846100
v 30.358828 1.686700 272.684113
v 30.358828 8.989722 272.684113
v 30.538141 1.686700 272.711731
v 30.538141 8.989722 272.711731
v 30.567272 1.686700 272.890808
v 30.567272 8.989722 272.890808
vn -0.7041 -0.0000 0.7101
vn -0.8929 -0.0000 -0.4503
vn 0.1523 -0.0000 -0.9883
vn 0.9870 -0.0000 -0.1606
vn 0.4577 -0.0000 0.8891
vt 1.000000 1.000000
vt 0.800000 0.500000
vt 1.000000 0.500000
vt 0.800000 1.000000
vt 0.600000 0.500000
vt 0.600000 1.000000
vt 0.400000 0.500000
vt 0.400000 1.000000
vt 0.200000 0.500000
vt 0.200000 1.000000
vt 0.000000 0.500000
vt 0.000000 1.000000
s 0
f 382/457/191 383/458/191 381/459/191
f 384/460/192 385/461/192 383/458/192
f 386/462/193 387/463/193 385/461/193
f 388/464/194 389/465/194 387/463/194
f 390/466/195 381/467/195 389/465/195
f 382/457/191 384/460/191 383/458/191
f 384/460/192 386/462/192 385/461/192
f 386/462/193 388/464/193 387/463/193
f 388/464/194 390/466/194 389/465/194
f 390/466/195 382/468/195 381/467/195
o streetlight_hitbox
v 10.640956 1.686700 268.420319
v 10.640956 8.989722 268.420319
v 10.544948 1.686700 268.266388
v 10.544948 8.989722 268.266388
v 10.661690 1.686700 268.127502
v 10.661690 8.989722 268.127502
v 10.829849 1.686700 268.195618
v 10.829849 8.989722 268.195618
v 10.817035 1.686700 268.376587
v 10.817035 8.989722 268.376587
vn -0.8485 -0.0000 0.5292
vn -0.7655 -0.0000 -0.6435
vn 0.3754 -0.0000 -0.9269
vn 0.9975 -0.0000 0.0706
vn 0.2411 -0.0000 0.9705
vt 1.000000 1.000000
vt 0.800000 0.500000
vt 1.000000 0.500000
vt 0.800000 1.000000
vt 0.600000 0.500000
vt 0.600000 1.000000
vt 0.400000 0.500000
vt 0.400000 1.000000
vt 0.200000 0.500000
vt 0.200000 1.000000
vt 0.000000 0.500000
vt 0.000000 1.000000
s 0
f 392/469/196 393/470/196 391/471/196
f 394/472/197 395/473/197 393/470/197
f 396/474/198 397/475/198 395/473/198
f 398/476/199 399/477/199 397/475/199
f 400/478/200 391/479/200 399/477/200
f 392/469/196 394/472/196 393/470/196
f 394/472/197 396/474/197 395/473/197
f 396/474/198 398/476/198 397/475/198
f 398/476/199 400/478/199 399/477/199
f 400/478/200 392/480/200 391/479/200
o streetlight_hitbox
v 72.251793 1.686700 268.552734
v 72.251793 8.989722 268.552734
v 72.075577 1.686700 268.509552
v 72.075577 8.989722 268.509552
v 72.062195 1.686700 268.328613
v 72.062195 8.989722 268.328613
v 72.230141 1.686700 268.259979
v 72.230141 8.989722 268.259979
v 72.347313 1.686700 268.398468
v 72.347313 8.989722 268.398468
vn -0.2380 -0.0000 0.9713
vn -0.9973 -0.0000 0.0738
vn -0.3783 -0.0000 -0.9257
vn 0.7635 -0.0000 -0.6459
vn 0.8502 -0.0000 0.5265
vt 1.000000 1.000000
vt 0.800000 0.500000
vt 1.000000 0.500000
vt 0.800000 1.000000
vt 0.600000 0.500000
vt 0.600000 1.000000
vt 0.400000 0.500000
vt 0.400000 1.000000
vt 0.200000 0.500000
vt 0.200000 1.000000
vt 0.000000 0.500000
vt 0.000000 1.000000
s 0
f 402/481/201 403/482/201 401/483/201
f 404/484/202 405/485/202 403/482/202
f 406/486/203 407/487/203 405/485/203
f 408/488/204 409/489/204 407/487/204
f 410/490/205 401/491/205 409/489/205
f 402/481/201 404/484/201 403/482/201
f 404/484/202 406/486/202 405/485/202
f 406/486/203 408/488/203 407/487/203
f 408/488/204 410/490/204 409/489/204
f 410/490/205 402/492/205 401/491/205
o streetlight_hitbox
v 92.394348 1.686700 259.582977
v 92.394348 8.989722 259.582977
v 92.214058 1.686700 259.562683
v 92.214058 8.989722 259.562683
v 92.177635 1.686700 259.384949
v 92.177635 8.989722 259.384949
v 92.335419 1.686700 259.295380
v 92.335419 8.989722 259.295380
v 92.469353 1.686700 259.417786
v 92.469353 8.989722 259.417786
vn -0.1118 -0.0000 0.9937
vn -0.9796 -0.0000 0.2007
vn -0.4936 -0.0000 -0.8697
vn 0.6746 -0.0000 -0.7382
vn 0.9105 -0.0000 0.4134
vt 1.000000 1.000000
vt 0.800000 0.500000
vt 1.000000 0.500000
vt 0.800000 1.000000
vt 0.600000 0.500000
vt 0.600000 1.000000
vt 0.400000 0.500000
vt 0.400000 1.000000
vt 0.200000 0.500000
vt 0.200000 1.000000
vt 0.000000 0.500000
vt 0.000000 1.000000
s 0
f 412/493/206 413/494/206 411/495/206
f 414/496/207 415/497/207 413/494/207
f 416/498/208 417/499/208 415/497/208
f 418/500/209 419/501/209 417/499/209
f 420/502/210 411/503/210 419/501/210
f 412/493/206 414/496/206 413/494/206
f 414/496/207 416/498/207 415/497/207
f 416/498/208 418/500/208 417/499/208
f 418/500/209 420/502/209 419/501/209
f 420/502/210 412/504/210 411/503/210
o streetlight_hitbox
v 110.441849 1.686700 242.545837
v 110.441849 8.989722 242.545837
v 110.267220 1.686700 242.595062
v 110.267220 8.989722 242.595062
v 110.166451 1.686700 242.444183
v 110.166451 8.989722 242.444183
v 110.278801 1.686700 242.301727
v 110.278801 8.989722 242.301727
v 110.449005 1.686700 242.364548
v 110.449005 8.989722 242.364548
vn 0.2713 -0.0000 0.9625
vn -0.8316 -0.0000 0.5554
vn -0.7852 -0.0000 -0.6192
vn 0.3463 -0.0000 -0.9381
vn 0.9992 -0.0000 0.0394
vt 1.000000 1.000000
vt 0.800000 0.500000
vt 1.000000 0.500000
vt 0.800000 1.000000
vt 0.600000 0.500000
vt 0.600000 1.000000
vt 0.400000 0.500000
vt 0.400000 1.000000
vt 0.200000 0.500000
vt 0.200000 1.000000
vt 0.000000 0.500000
vt 0.000000 1.000000
s 0
f 422/505/211 423/506/211 421/507/211
f 424/508/212 425/509/212 423/506/212
f 426/510/213 427/511/213 425/509/213
f 428/512/214 429/513/214 427/511/214
f 430/514/215 421/515/215 429/513/215
f 422/505/211 424/508/211 423/506/211
f 424/508/212 426/510/212 425/509/212
f 426/510/213 428/512/213 427/511/213
f 428/512/214 430/514/214 429/513/214
f 430/514/215 422/516/215 421/515/215
o streetlight_hitbox
v 120.141037 1.843196 223.339935
v 120.141037 9.146218 223.339935
v 120.000740 1.843196 223.454971
v 120.000740 9.146218 223.454971
v 119.847977 1.843196 223.357086
v 119.847977 9.146218 223.357086
v 119.893867 1.843196 223.181564
v 119.893867 9.146218 223.181564
v 120.074982 1.843196 223.170959
v 120.074982 9.146218 223.170959
vn 0.6341 -0.0000 0.7733
vn -0.5395 -0.0000 0.8420
vn -0.9675 -0.0000 -0.2529
vn -0.0584 -0.0000 -0.9983
vn 0.9314 -0.0000 -0.3641
vt 1.000000 1.000000
vt 0.800000 0.500000
vt 1.000000 0.500000
vt 0.800000 1.000000
vt 0.600000 0.500000
vt 0.600000 1.000000
vt 0.400000 0.500000
vt 0.400000 1.000000
vt 0.200000 0.500000
vt 0.200000 1.000000
vt 0.000000 0.500000
vt 0.000000 1.000000
s 0
f 432/517/216 433/518/216 431/519/216
f 434/520/217 435/521/217 433/518/217
f 436/522/218 437/523/218 435/521/218
f 438/524/219 439/525/219 437/523/219
f 440/526/220 431/527/220 439/525/220
f 432/517/216 434/520/216 433/518/216
f 434/520/217 436/522/217 435/521/217
f 436/522/218 438/524/218 437/523/218
f 438/524/219 440/526/219 439/525/219
f 440/526/220 432/528/220 431/527/220
o streetlight_hitbox
v 123.913330 1.843196 204.515411
v 123.913330 9.146218 204.515411
v 123.813591 1.843196 204.666962
v 123.813591 9.146218 204.666962
v 123.638626 1.843196 204.618942
v 123.638626 9.146218 204.618942
v 123.630241 1.843196 204.437714
v 123.630241 9.146218 204.437714
v 123.800018 1.843196 204.373718
v 123.800018 9.146218 204.373718
vn 0.8353 -0.0000 0.5498
vn -0.2647 -0.0000 0.9643
vn -0.9989 -0.0000 0.0462
vn -0.3527 -0.0000 -0.9358
vn 0.7810 -0.0000 -0.6246
vt 1.000000 1.000000
vt 0.800000 0.500000
vt 1.000000 0.500000
vt 0.800000 1.000000
vt 0.600000 0.500000
vt 0.600000 1.000000
vt 0.400000 0.500000
vt 0.400000 1.000000
vt 0.200000 0.500000
vt 0.200000 1.000000
vt 0.000000 0.500000
vt 0.000000 1.000000
s 0
f 442/529/221 443/530/221 441/531/221
f 444/532/222 445/533/222 443/530/222
f 446/534/223 447/535/223 445/533/223
f 448/536/224 449/537/224 447/535/224
f 450/538/225 441/539/225 449/537/225
f 442/529/221 444/532/221 443/530/221
f 444/532/222 446/534/222 445/533/222
f 446/534/223 448/536/223 447/535/223
f 448/536/224 450/538/224 449/537/224
f 450/538/225 442/540/225 441/539/225
o streetlight_hitbox
v 121.136765 1.843196 184.650818
v 121.136765 9.146218 184.650818
v 121.062187 1.843196 184.816208
v 121.062187 9.146218 184.816208
v 120.881844 1.843196 184.796402
v 120.881844 9.146218 184.796402
v 120.844955 1.843196 184.618759
v 120.844955 9.146218 184.618759
v 121.002510 1.843196 184.528778
v 121.002510 9.146218 184.528778
vn 0.9116 -0.0000 0.4110
vn -0.1092 -0.0000 0.9940
vn -0.9791 -0.0000 0.2033
vn -0.4959 -0.0000 -0.8684
vn 0.6726 -0.0000 -0.7400
vt 1.000000 1.000000
vt 0.800000 0.500000
vt 1.000000 0.500000
vt 0.800000 1.000000
vt 0.600000 0.500000
vt 0.600000 1.000000
vt 0.400000 0.500000
vt 0.400000 1.000000
vt 0.200000 0.500000
vt 0.200000 1.000000
vt 0.000000 0.500000
vt 0.000000 1.000000
s 0
f 452/541/226 453/542/226 451/543/226
f 454/544/227 455/545/227 453/542/227
f 456/546/228 457/547/228 455/545/228
f 458/548/229 459/549/229 457/547/229
f 460/550/230 451/551/230 459/549/230
f 452/541/226 454/544/226 453/542/226
f 454/544/227 456/546/227 455/545/227
f 456/546/228 458/548/228 457/547/228
f 458/548/229 460/550/229 459/549/229
f 460/550/230 452/552/230 451/551/230
o streetlight_hitbox
v 115.241882 1.843196 168.245071
v 115.241882 9.146218 168.245071
v 115.193123 1.843196 168.419815
v 115.193123 9.146218 168.419815
v 115.011856 1.843196 168.427444
v 115.011856 9.146218 168.427444
v 114.948578 1.843196 168.257416
v 114.948578 9.146218 168.257416
v 115.090752 1.843196 168.144684
v 115.090752 9.146218 168.144684
vn 0.9632 -0.0000 0.2688
vn 0.0421 -0.0000 0.9991
vn -0.9372 -0.0000 0.3487
vn -0.6213 -0.0000 -0.7836
vn 0.5532 -0.0000 -0.8330
vt 1.000000 1.000000
vt 0.800000 0.500000
vt 1.000000 0.500000
vt 0.800000 1.000000
vt 0.600000 0.500000
vt 0.600000 1.000000
vt 0.400000 0.500000
vt 0.400000 1.000000
vt 0.200000 0.500000
vt 0.200000 1.000000
vt 0.000000 0.500000
vt 0.000000 1.000000
s 0
f 462/553/231 463/554/231 461/555/231
f 464/556/232 465/557/232 463/554/232
f 466/558/233 467/559/233 465/557/233
f 468/560/234 469/561/234 467/559/234
f 470/562/235 461/563/235 469/561/235
f 462/553/231 464/556/231 463/554/231
f 464/556/232 466/558/232 465/557/232
f 466/558/233 468/560/233 467/559/233
f 468/560/234 470/562/234 469/561/234
f 470/562/235 462/564/235 461/563/235
o streetlight_hitbox
v 111.111160 1.844548 148.906021
v 111.111160 9.147570 148.906021
v 111.030174 1.844548 149.068375
v 111.030174 9.147570 149.068375
v 110.850739 1.844548 149.041519
v 110.850739 9.147570 149.041519
v 110.820831 1.844548 148.862579
v 110.820831 9.147570 148.862579
v 110.981773 1.844548 148.778824
v 110.981773 9.147570 148.778824
vn 0.8949 -0.0000 0.4464
vn -0.1480 -0.0000 0.9890
vn -0.9863 -0.0000 0.1649
vn -0.4616 -0.0000 -0.8871
vn 0.7010 -0.0000 -0.7131
vt 1.000000 1.000000
vt 0.800000 0.500000
vt 1.000000 0.500000
vt 0.800000 1.000000
vt 0.600000 0.500000
vt 0.600000 1.000000
vt 0.400000 0.500000
vt 0.400000 1.000000
vt 0.200000 0.500000
vt 0.200000 1.000000
vt 0.000000 0.500000
vt 0.000000 1.000000
s 0
f 472/565/236 473/566/236 471/567/236
f 474/568/237 475/569/237 473/566/237
f 476/570/238 477/571/238 475/569/238
f 478/572/239 479/573/239 477/571/239
f 480/574/240 471/575/240 479/573/240
f 472/565/236 474/568/236 473/566/236
f 474/568/237 476/570/237 475/569/237
f 476/570/238 478/572/238 477/571/238
f 478/572/239 480/574/239 479/573/239
f 480/574/240 472/576/240 471/575/240
o streetlight_hitbox
v 110.514420 1.834400 128.702499
v 110.514420 9.137422 128.702499
v 110.394127 1.834400 128.838318
v 110.394127 9.137422 128.838318
v 110.227783 1.834400 128.765884
v 110.227783 9.137422 128.765884
v 110.245270 1.834400 128.585297
v 110.245270 9.137422 128.585297
v 110.422417 1.834400 128.546127
v 110.422417 9.137422 128.546127
vn 0.7486 -0.0000 0.6630
vn -0.3992 -0.0000 0.9169
vn -0.9953 -0.0000 -0.0964
vn -0.2159 -0.0000 -0.9764
vn 0.8619 -0.0000 -0.5071
vt 1.000000 1.000000
vt 0.800000 0.500000
vt 1.000000 0.500000
vt 0.800000 1.000000
vt 0.600000 0.500000
vt 0.600000 1.000000
vt 0.400000 0.500000
vt 0.400000 1.000000
vt 0.200000 0.500000
vt 0.200000 1.000000
vt 0.000000 0.500000
vt 0.000000 1.000000
s 0
f 482/577/241 483/578/241 481/579/241
f 484/580/242 485/581/242 483/578/242
f 486/582/243 487/583/243 485/581/243
f 488/584/244 489/585/244 487/583/244
f 490/586/245 481/587/245 489/585/245
f 482/577/241 484/580/241 483/578/241
f 484/580/242 486/582/242 485/581/242
f 486/582/243 488/584/243 487/583/243
f 488/584/244 490/586/244 489/585/244
f 490/586/245 482/588/245 481/587/245
o streetlight_hitbox
v 113.515167 1.833509 109.459267
v 113.515167 9.136532 109.459267
v 113.367317 1.833509 109.564415
v 113.367317 9.136532 109.564415
v 113.221619 1.833509 109.456291
v 113.221619 9.136532 109.456291
v 113.279434 1.833509 109.284317
v 113.279434 9.136532 109.284317
v 113.460854 1.833509 109.286156
v 113.460854 9.136532 109.286156
vn 0.5796 -0.0000 0.8149
vn -0.5959 -0.0000 0.8030
vn -0.9479 -0.0000 -0.3186
vn 0.0101 -0.0000 -0.9999
vn 0.9541 -0.0000 -0.2994
vt 1.000000 1.000000
vt 0.800000 0.500000
vt 1.000000 0.500000
vt 0.800000 1.000000
vt 0.600000 0.500000
vt 0.600000 1.000000
vt 0.400000 0.500000
vt 0.400000 1.000000
vt 0.200000 0.500000
vt 0.200000 1.000000
vt 0.000000 0.500000
vt 0.000000 1.000000
s 0
f 492/589/246 493/590/246 491/591/246
f 494/592/247 495/593/247 493/590/247
f 496/594/248 497/595/248 495/593/248
f 498/596/249 499/597/249 497/595/249
f 500/598/250 491/599/250 499/597/250
f 492/589/246 494/592/246 493/590/246
f 494/592/247 496/594/247 495/593/247
f 496/594/248 498/596/248 497/595/248
f 498/596/249 500/598/249 499/597/249
f 500/598/250 492/600/250 491/599/250
o streetlight_hitbox
v 121.388115 1.844650 90.375816
v 121.388115 9.147672 90.375816
v 121.233185 1.844650 90.470230
v 121.233185 9.147672 90.470230
v 121.095512 1.844650 90.352066
v 121.095512 9.147672 90.352066
v 121.165352 1.844650 90.184616
v 121.165352 9.147672 90.184616
v 121.346191 1.844650 90.199295
v 121.346191 9.147672 90.199295
vn 0.5204 -0.0000 0.8539
vn -0.6513 -0.0000 0.7588
vn -0.9229 -0.0000 -0.3849
vn 0.0809 -0.0000 -0.9967
vn 0.9729 -0.0000 -0.2311
vt 1.000000 1.000000
vt 0.800000 0.500000
vt 1.000000 0.500000
vt 0.800000 1.000000
vt 0.600000 0.500000
vt 0.600000 1.000000
vt 0.400000 0.500000
vt 0.400000 1.000000
vt 0.200000 0.500000
vt 0.200000 1.000000
vt 0.000000 0.500000
vt 0.000000 1.000000
s 0
f 502/601/251 503/602/251 501/603/251
f 504/604/252 505/605/252 503/602/252
f 506/606/253 507/607/253 505/605/253
f 508/608/254 509/609/254 507/607/254
f 510/610/255 501/611/255 509/609/255
f 502/601/251 504/604/251 503/602/251
f 504/604/252 506/606/252 505/605/252
f 506/606/253 508/608/253 507/607/253
f 508/608/254 510/610/254 509/609/254
f 510/610/255 502/612/255 501/611/255
o streetlight_hitbox
v 130.065369 1.858875 73.851540
v 130.065369 9.161898 73.851540
v 129.893784 1.858875 73.910522
v 129.893784 9.161898 73.910522
v 129.784668 1.858875 73.765564
v 129.784668 9.161898 73.765564
v 129.888824 1.858875 73.617004
v 129.888824 9.161898 73.617004
v 130.062286 1.858875 73.670135
v 130.062286 9.161898 73.670135
vn 0.3251 -0.0000 0.9457
vn -0.7989 -0.0000 0.6014
vn -0.8189 -0.0000 -0.5740
vn 0.2929 -0.0000 -0.9562
vn 0.9999 -0.0000 -0.0169
vt 1.000000 1.000000
vt 0.800000 0.500000
vt 1.000000 0.500000
vt 0.800000 1.000000
vt 0.600000 0.500000
vt 0.600000 1.000000
vt 0.400000 0.500000
vt 0.400000 1.000000
vt 0.200000 0.500000
vt 0.200000 1.000000
vt 0.000000 0.500000
vt 0.000000 1.000000
s 0
f 512/613/256 513/614/256 511/615/256
f 514/616/257 515/617/257 513/614/257
f 516/618/258 517/619/258 515/617/258
f 518/620/259 519/621/259 517/619/259
f 520/622/260 511/623/260 519/621/260
f 512/613/256 514/616/256 513/614/256
f 514/616/257 516/618/257 515/617/257
f 516/618/258 518/620/258 517/619/258
f 518/620/259 520/622/259 519/621/259
f 520/622/260 512/624/260 511/623/260
o streetlight_hitbox
v 158.550476 1.843196 -260.264282
v 158.550476 9.146218 -260.264282
v 158.598877 1.843196 -260.089447
v 158.598877 9.146218 -260.089447
v 158.447525 1.843196 -259.989380
v 158.447525 9.146218 -259.989380
v 158.305603 1.843196 -260.102386
v 158.305603 9.146218 -260.102386
v 158.369232 1.843196 -260.272308
v 158.369232 9.146218 -260.272308
vn 0.9638 -0.0000 -0.2667
vn 0.5515 -0.0000 0.8342
vn -0.6229 -0.0000 0.7823
vn -0.9365 -0.0000 -0.3507
vn 0.0441 -0.0000 -0.9990
vt 1.000000 1.000000
vt 0.800000 0.500000
vt 1.000000 0.500000
vt 0.800000 1.000000
vt 0.600000 0.500000
vt 0.600000 1.000000
vt 0.400000 0.500000
vt 0.400000 1.000000
vt 0.200000 0.500000
vt 0.200000 1.000000
vt 0.000000 0.500000
vt 0.000000 1.000000
s 0
f 522/625/261 523/626/261 521/627/261
f 524/628/262 525/629/262 523/626/262
f 526/630/263 527/631/263 525/629/263
f 528/632/264 529/633/264 527/631/264
f 530/634/265 521/635/265 529/633/265
f 522/625/261 524/628/261 523/626/261
f 524/628/262 526/630/262 525/629/262
f 526/630/263 528/632/263 527/631/263
f 528/632/264 530/634/264 529/633/264
f 530/634/265 522/636/265 521/635/265
o streetlight_hitbox
v 140.053192 1.843196 -274.360291
v 140.053192 9.146218 -274.360291
v 140.126755 1.843196 -274.194427
v 140.126755 9.146218 -274.194427
v 139.991745 1.843196 -274.073242
v 139.991745 9.146218 -274.073242
v 139.834747 1.843196 -274.164154
v 139.834747 9.146218 -274.164154
v 139.872726 1.843196 -274.341583
v 139.872726 9.146218 -274.341583
vn 0.9141 -0.0000 -0.4055
vn 0.6681 -0.0000 0.7441
vn -0.5012 -0.0000 0.8653
vn -0.9779 -0.0000 -0.2093
vn -0.1031 -0.0000 -0.9947
vt 1.000000 1.000000
vt 0.800000 0.500000
vt 1.000000 0.500000
vt 0.800000 1.000000
vt 0.600000 0.500000
vt 0.600000 1.000000
vt 0.400000 0.500000
vt 0.400000 1.000000
vt 0.200000 0.500000
vt 0.200000 1.000000
vt 0.000000 0.500000
vt 0.000000 1.000000
s 0
f 532/637/266 533/638/266 531/639/266
f 534/640/267 535/641/267 533/638/267
f 536/642/268 537/643/268 535/641/268
f 538/644/269 539/645/269 537/643/269
f 540/646/270 531/647/270 539/645/270
f 532/637/266 534/640/266 533/638/266
f 534/640/267 536/642/267 535/641/267
f 536/642/268 538/644/268 537/643/268
f 538/644/269 540/646/269 539/645/269
f 540/646/270 532/648/270 531/647/270
o streetlight_hitbox
v 121.218369 1.843196 -286.490021
v 121.218369 9.146218 -286.490021
v 121.291931 1.843196 -286.324158
v 121.291931 9.146218 -286.324158
v 121.156937 1.843196 -286.202972
v 121.156937 9.146218 -286.202972
v 120.999939 1.843196 -286.293884
v 120.999939 9.146218 -286.293884
v 121.037910 1.843196 -286.471313
v 121.037910 9.146218 -286.471313
vn 0.9141 -0.0000 -0.4055
vn 0.6681 -0.0000 0.7441
vn -0.5012 -0.0000 0.8653
vn -0.9779 -0.0000 -0.2093
vn -0.1031 -0.0000 -0.9947
vt 1.000000 1.000000
vt 0.800000 0.500000
vt 1.000000 0.500000
vt 0.800000 1.000000
vt 0.600000 0.500000
vt 0.600000 1.000000
vt 0.400000 0.500000
vt 0.400000 1.000000
vt 0.200000 0.500000
vt 0.200000 1.000000
vt 0.000000 0.500000
vt 0.000000 1.000000
s 0
f 542/649/271 543/650/271 541/651/271
f 544/652/272 545/653/272 543/650/272
f 546/654/273 547/655/273 545/653/273
f 548/656/274 549/657/274 547/655/274
f 550/658/275 541/659/275 549/657/275
f 542/649/271 544/652/271 543/650/271
f 544/652/272 546/654/272 545/653/272
f 546/654/273 548/656/273 547/655/273
f 548/656/274 550/658/274 549/657/274
f 550/658/275 542/660/275 541/659/275
o streetlight_hitbox
v 175.852142 1.843196 -245.269562
v 175.852142 9.146218 -245.269562
v 175.900543 1.843196 -245.094696
v 175.900543 9.146218 -245.094696
v 175.749191 1.843196 -244.994644
v 175.749191 9.146218 -244.994644
v 175.607269 1.843196 -245.107651
v 175.607269 9.146218 -245.107651
v 175.670898 1.843196 -245.277557
v 175.670898 9.146218 -245.277557
vn 0.9638 -0.0000 -0.2667
vn 0.5515 -0.0000 0.8342
vn -0.6229 -0.0000 0.7823
vn -0.9365 -0.0000 -0.3507
vn 0.0441 -0.0000 -0.9990
vt 1.000000 1.000000
vt 0.800000 0.500000
vt 1.000000 0.500000
vt 0.800000 1.000000
vt 0.600000 0.500000
vt 0.600000 1.000000
vt 0.400000 0.500000
vt 0.400000 1.000000
vt 0.200000 0.500000
vt 0.200000 1.000000
vt 0.000000 0.500000
vt 0.000000 1.000000
s 0
f 552/661/276 553/662/276 551/663/276
f 554/664/277 555/665/277 553/662/277
f 556/666/278 557/667/278 555/665/278
f 558/668/279 559/669/279 557/667/279
f 560/670/280 551/671/280 559/669/280
f 552/661/276 554/664/276 553/662/276
f 554/664/277 556/666/277 555/665/277
f 556/666/278 558/668/278 557/667/278
f 558/668/279 560/670/279 559/669/279
f 560/670/280 552/672/280 551/671/280
o streetlight_hitbox
v 190.442352 1.843196 -228.109177
v 190.442352 9.146218 -228.109177
v 190.470505 1.843196 -227.929947
v 190.470505 9.146218 -227.929947
v 190.308746 1.843196 -227.847778
v 190.308746 9.146218 -227.847778
v 190.180618 1.843196 -227.976227
v 190.180618 9.146218 -227.976227
v 190.263184 1.843196 -228.137787
v 190.263184 9.146218 -228.137787
vn 0.9879 -0.0000 -0.1552
vn 0.4529 -0.0000 0.8916
vn -0.7080 -0.0000 0.7062
vn -0.8904 -0.0000 -0.4551
vn 0.1576 -0.0000 -0.9875
vt 1.000000 1.000000
vt 0.800000 0.500000
vt 1.000000 0.500000
vt 0.800000 1.000000
vt 0.600000 0.500000
vt 0.600000 1.000000
vt 0.400000 0.500000
vt 0.400000 1.000000
vt 0.200000 0.500000
vt 0.200000 1.000000
vt 0.000000 0.500000
vt 0.000000 1.000000
s 0
f 562/673/281 563/674/281 561/675/281
f 564/676/282 565/677/282 563/674/282
f 566/678/283 567/679/283 565/677/283
f 568/680/284 569/681/284 567/679/284
f 570/682/285 561/683/285 569/681/285
f 562/673/281 564/676/281 563/674/281
f 564/676/282 566/678/282 565/677/282
f 566/678/283 568/680/283 567/679/283
f 568/680/284 570/682/284 569/681/284
f 570/682/285 562/684/285 561/683/285
o streetlight_hitbox
v 204.118729 1.843196 -210.882034
v 204.118729 9.146218 -210.882034
v 204.111984 1.843196 -210.700729
v 204.111984 9.146218 -210.700729
v 203.937469 1.843196 -210.651123
v 203.937469 9.146218 -210.651123
v 203.836349 1.843196 -210.801758
v 203.836349 9.146218 -210.801758
v 203.948380 1.843196 -210.944473
v 203.948380 9.146218 -210.944473
vn 0.9993 -0.0000 0.0372
vn 0.2735 -0.0000 0.9619
vn -0.8303 -0.0000 0.5573
vn -0.7866 -0.0000 -0.6175
vn 0.3441 -0.0000 -0.9389
vt 1.000000 1.000000
vt 0.800000 0.500000
vt 1.000000 0.500000
vt 0.800000 1.000000
vt 0.600000 0.500000
vt 0.600000 1.000000
vt 0.400000 0.500000
vt 0.400000 1.000000
vt 0.200000 0.500000
vt 0.200000 1.000000
vt 0.000000 0.500000
vt 0.000000 1.000000
s 0
f 572/685/286 573/686/286 571/687/286
f 574/688/287 575/689/287 573/686/287
f 576/690/288 577/691/288 575/689/288
f 578/692/289 579/693/289 577/691/289
f 580/694/290 571/695/290 579/693/290
f 572/685/286 574/688/286 573/686/286
f 574/688/287 576/690/287 575/689/287
f 576/690/288 578/692/288 577/691/288
f 578/692/289 580/694/289 579/693/289
f 580/694/290 572/696/290 571/695/290
o streetlight_hitbox
v 216.808655 1.843196 -192.423752
v 216.808655 9.146218 -192.423752
v 216.794388 1.843196 -192.242874
v 216.794388 9.146218 -192.242874
v 216.617966 1.843196 -192.200562
v 216.617966 9.146218 -192.200562
v 216.523193 1.843196 -192.355270
v 216.523193 9.146218 -192.355270
v 216.641037 1.843196 -192.493210
v 216.641037 9.146218 -192.493210
vn 0.9969 -0.0000 0.0786
vn 0.2333 -0.0000 0.9724
vn -0.8527 -0.0000 0.5223
vn -0.7603 -0.0000 -0.6496
vn 0.3828 -0.0000 -0.9238
vt 1.000000 1.000000
vt 0.800000 0.500000
vt 1.000000 0.500000
vt 0.800000 1.000000
vt 0.600000 0.500000
vt 0.600000 1.000000
vt 0.400000 0.500000
vt 0.400000 1.000000
vt 0.200000 0.500000
vt 0.200000 1.000000
vt 0.000000 0.500000
vt 0.000000 1.000000
s 0
f 582/697/291 583/698/291 581/699/291
f 584/700/292 585/701/292 583/698/292
f 586/702/293 587/703/293 585/701/293
f 588/704/294 589/705/294 587/703/294
f 590/706/295 581/707/295 589/705/295
f 582/697/291 584/700/291 583/698/291
f 584/700/292 586/702/292 585/701/292
f 586/702/293 588/704/293 587/703/293
f 588/704/294 590/706/294 589/705/294
f 590/706/295 582/708/295 581/707/295
o streetlight_hitbox
v 227.962189 1.843196 -172.039871
v 227.962189 9.146218 -172.039871
v 227.933472 1.843196 -171.860733
v 227.933472 9.146218 -171.860733
v 227.754211 1.843196 -171.832687
v 227.754211 9.146218 -171.832687
v 227.672150 1.843196 -171.994507
v 227.672150 9.146218 -171.994507
v 227.800690 1.843196 -172.122543
v 227.800690 9.146218 -172.122543
vn 0.9874 -0.0000 0.1583
vn 0.1545 -0.0000 0.9880
vn -0.8919 -0.0000 0.4523
vn -0.7057 -0.0000 -0.7085
vn 0.4557 -0.0000 -0.8901
vt 1.000000 1.000000
vt 0.800000 0.500000
vt 1.000000 0.500000
vt 0.800000 1.000000
vt 0.600000 0.500000
vt 0.600000 1.000000
vt 0.400000 0.500000
vt 0.400000 1.000000
vt 0.200000 0.500000
vt 0.200000 1.000000
vt 0.000000 0.500000
vt 0.000000 1.000000
s 0
f 592/709/296 593/710/296 591/711/296
f 594/712/297 595/713/297 593/710/297
f 596/714/298 597/715/298 595/713/298
f 598/716/299 599/717/299 597/715/299
f 600/718/300 591/719/300 599/717/300
f 592/709/296 594/712/296 593/710/296
f 594/712/297 596/714/297 595/713/297
f 596/714/298 598/716/298 597/715/298
f 598/716/299 600/718/299 599/717/299
f 600/718/300 592/720/300 591/719/300
o streetlight_hitbox
v 238.199463 1.843196 -150.124451
v 238.199463 9.146218 -150.124451
v 238.170746 1.843196 -149.945312
v 238.170746 9.146218 -149.945312
v 237.991486 1.843196 -149.917267
v 237.991486 9.146218 -149.917267
v 237.909424 1.843196 -150.079086
v 237.909424 9.146218 -150.079086
v 238.037964 1.843196 -150.207123
v 238.037964 9.146218 -150.207123
vn 0.9874 -0.0000 0.1583
vn 0.1545 -0.0000 0.9880
vn -0.8919 -0.0000 0.4523
vn -0.7057 -0.0000 -0.7085
vn 0.4557 -0.0000 -0.8901
vt 1.000000 1.000000
vt 0.800000 0.500000
vt 1.000000 0.500000
vt 0.800000 1.000000
vt 0.600000 0.500000
vt 0.600000 1.000000
vt 0.400000 0.500000
vt 0.400000 1.000000
vt 0.200000 0.500000
vt 0.200000 1.000000
vt 0.000000 0.500000
vt 0.000000 1.000000
s 0
f 602/721/301 603/722/301 601/723/301
f 604/724/302 605/725/302 603/722/302
f 606/726/303 607/727/303 605/725/303
f 608/728/304 609/729/304 607/727/304
f 610/730/305 601/731/305 609/729/305
f 602/721/301 604/724/301 603/722/301
f 604/724/302 606/726/302 605/725/302
f 606/726/303 608/728/303 607/727/303
f 608/728/304 610/730/304 609/729/304
f 610/730/305 602/732/305 601/731/305
o streetlight_hitbox
v 246.630234 1.843196 -128.500931
v 246.630234 9.146218 -128.500931
v 246.601517 1.843196 -128.321793
v 246.601517 9.146218 -128.321793
v 246.422256 1.843196 -128.293747
v 246.422256 9.146218 -128.293747
v 246.340195 1.843196 -128.455566
v 246.340195 9.146218 -128.455566
v 246.468735 1.843196 -128.583603
v 246.468735 9.146218 -128.583603
vn 0.9874 -0.0000 0.1583
vn 0.1545 -0.0000 0.9880
vn -0.8919 -0.0000 0.4523
vn -0.7057 -0.0000 -0.7085
vn 0.4557 -0.0000 -0.8901
vt 1.000000 1.000000
vt 0.800000 0.500000
vt 1.000000 0.500000
vt 0.800000 1.000000
vt 0.600000 0.500000
vt 0.600000 1.000000
vt 0.400000 0.500000
vt 0.400000 1.000000
vt 0.200000 0.500000
vt 0.200000 1.000000
vt 0.000000 0.500000
vt 0.000000 1.000000
s 0
f 612/733/306 613/734/306 611/735/306
f 614/736/307 615/737/307 613/734/307
f 616/738/308 617/739/308 615/737/308
f 618/740/309 619/741/309 617/739/309
f 620/742/310 611/743/310 619/741/310
f 612/733/306 614/736/306 613/734/306
f 614/736/307 616/738/307 615/737/307
f 616/738/308 618/740/308 617/739/308
f 618/740/309 620/742/309 619/741/309
f 620/742/310 612/744/310 611/743/310
o streetlight_hitbox
v 254.435715 1.843196 -107.766777
v 254.435715 9.146218 -107.766777
v 254.406998 1.843196 -107.587631
v 254.406998 9.146218 -107.587631
v 254.227737 1.843196 -107.559593
v 254.227737 9.146218 -107.559593
v 254.145676 1.843196 -107.721405
v 254.145676 9.146218 -107.721405
v 254.274216 1.843196 -107.849449
v 254.274216 9.146218 -107.849449
vn 0.9874 -0.0000 0.1583
vn 0.1545 -0.0000 0.9880
vn -0.8919 -0.0000 0.4523
vn -0.7057 -0.0000 -0.7085
vn 0.4557 -0.0000 -0.8901
vt 1.000000 1.000000
vt 0.800000 0.500000
vt 1.000000 0.500000
vt 0.800000 1.000000
vt 0.600000 0.500000
vt 0.600000 1.000000
vt 0.400000 0.500000
vt 0.400000 1.000000
vt 0.200000 0.500000
vt 0.200000 1.000000
vt 0.000000 0.500000
vt 0.000000 1.000000
s 0
f 622/745/311 623/746/311 621/747/311
f 624/748/312 625/749/312 623/746/312
f 626/750/313 627/751/313 625/749/313
f 628/752/314 629/753/314 627/751/314
f 630/754/315 621/755/315 629/753/315
f 622/745/311 624/748/311 623/746/311
f 624/748/312 626/750/312 625/749/312
f 626/750/313 628/752/313 627/751/313
f 628/752/314 630/754/314 629/753/314
f 630/754/315 622/756/315 621/755/315
o streetlight_hitbox
v 261.738647 1.843196 -89.542488
v 261.738647 9.146218 -89.542488
v 261.709930 1.843196 -89.363342
v 261.709930 9.146218 -89.363342
v 261.530670 1.843196 -89.335304
v 261.530670 9.146218 -89.335304
v 261.448608 1.843196 -89.497116
v 261.448608 9.146218 -89.497116
v 261.577148 1.843196 -89.625160
v 261.577148 9.146218 -89.625160
vn 0.9874 -0.0000 0.1583
vn 0.1545 -0.0000 0.9880
vn -0.8919 -0.0000 0.4523
vn -0.7057 -0.0000 -0.7085
vn 0.4557 -0.0000 -0.8901
vt 1.000000 1.000000
vt 0.800000 0.500000
vt 1.000000 0.500000
vt 0.800000 1.000000
vt 0.600000 0.500000
vt 0.600000 1.000000
vt 0.400000 0.500000
vt 0.400000 1.000000
vt 0.200000 0.500000
vt 0.200000 1.000000
vt 0.000000 0.500000
vt 0.000000 1.000000
s 0
f 632/757/316 633/758/316 631/759/316
f 634/760/317 635/761/317 633/758/317
f 636/762/318 637/763/318 635/761/318
f 638/764/319 639/765/319 637/763/319
f 640/766/320 631/767/320 639/765/320
f 632/757/316 634/760/316 633/758/316
f 634/760/317 636/762/317 635/761/317
f 636/762/318 638/764/318 637/763/318
f 638/764/319 640/766/319 639/765/319
f 640/766/320 632/768/320 631/767/320
o streetlight_hitbox
v -44.534454 1.843196 -126.507515
v -44.534454 9.146218 -126.507515
v -44.681232 1.843196 -126.614159
v -44.681232 9.146218 -126.614159
v -44.625168 1.843196 -126.786713
v -44.625168 9.146218 -126.786713
v -44.443741 1.843196 -126.786713
v -44.443741 9.146218 -126.786713
v -44.387676 1.843196 -126.614159
v -44.387676 9.146218 -126.614159
vn -0.5878 -0.0000 0.8090
vn -0.9511 -0.0000 -0.3090
vn -0.0000 -0.0000 -1.0000
vn 0.9511 -0.0000 -0.3090
vn 0.5878 -0.0000 0.8090
vt 1.000000 1.000000
vt 0.800000 0.500000
vt 1.000000 0.500000
vt 0.800000 1.000000
vt 0.600000 0.500000
vt 0.600000 1.000000
vt 0.400000 0.500000
vt 0.400000 1.000000
vt 0.200000 0.500000
vt 0.200000 1.000000
vt 0.000000 0.500000
vt 0.000000 1.000000
s 0
f 642/769/321 643/770/321 641/771/321
f 644/772/322 645/773/322 643/770/322
f 646/774/323 647/775/323 645/773/323
f 648/776/324 649/777/324 647/775/324
f 650/778/325 641/779/325 649/777/325
f 642/769/321 644/772/321 643/770/321
f 644/772/322 646/774/322 645/773/322
f 646/774/323 648/776/323 647/775/323
f 648/776/324 650/778/324 649/777/324
f 650/778/325 642/780/325 641/779/325
o streetlight_hitbox
v -61.803307 1.843196 -126.208984
v -61.803307 9.146218 -126.208984
v -61.950085 1.843196 -126.315628
v -61.950085 9.146218 -126.315628
v -61.894020 1.843196 -126.488182
v -61.894020 9.146218 -126.488182
v -61.712593 1.843196 -126.488182
v -61.712593 9.146218 -126.488182
v -61.656528 1.843196 -126.315628
v -61.656528 9.146218 -126.315628
vn -0.5878 -0.0000 0.8090
vn -0.9511 -0.0000 -0.3090
vn -0.0000 -0.0000 -1.0000
vn 0.9511 -0.0000 -0.3090
vn 0.5878 -0.0000 0.8090
vt 1.000000 1.000000
vt 0.800000 0.500000
vt 1.000000 0.500000
vt 0.800000 1.000000
vt 0.600000 0.500000
vt 0.600000 1.000000
vt 0.400000 0.500000
vt 0.400000 1.000000
vt 0.200000 0.500000
vt 0.200000 1.000000
vt 0.000000 0.500000
vt 0.000000 1.000000
s 0
f 652/781/326 653/782/326 651/783/326
f 654/784/327 655/785/327 653/782/327
f 656/786/328 657/787/328 655/785/328
f 658/788/329 659/789/329 657/787/329
f 660/790/330 651/791/330 659/789/330
f 652/781/326 654/784/326 653/782/326
f 654/784/327 656/786/327 655/785/327
f 656/786/328 658/788/328 657/787/328
f 658/788/329 660/790/329 659/789/329
f 660/790/330 652/792/330 651/791/330
o streetlight_hitbox
v -81.013077 1.843196 -124.370636
v -81.013077 9.146218 -124.370636
v -81.159859 1.843196 -124.477280
v -81.159859 9.146218 -124.477280
v -81.103790 1.843196 -124.649834
v -81.103790 9.146218 -124.649834
v -80.922363 1.843196 -124.649834
v -80.922363 9.146218 -124.649834
v -80.866295 1.843196 -124.477280
v -80.866295 9.146218 -124.477280
vn -0.5878 -0.0000 0.8090
vn -0.9511 -0.0000 -0.3090
vn -0.0000 -0.0000 -1.0000
vn 0.9511 -0.0000 -0.3090
vn 0.5878 -0.0000 0.8090
vt 1.000000 1.000000
vt 0.800000 0.500000
vt 1.000000 0.500000
vt 0.800000 1.000000
vt 0.600000 0.500000
vt 0.600000 1.000000
vt 0.400000 0.500000
vt 0.400000 1.000000
vt 0.200000 0.500000
vt 0.200000 1.000000
vt 0.000000 0.500000
vt 0.000000 1.000000
s 0
f 662/793/331 663/794/331 661/795/331
f 664/796/332 665/797/332 663/794/332
f 666/798/333 667/799/333 665/797/333
f 668/800/334 669/801/334 667/799/334
f 670/802/335 661/803/335 669/801/335
f 662/793/331 664/796/331 663/794/331
f 664/796/332 666/798/332 665/797/332
f 666/798/333 668/800/333 667/799/333
f 668/800/334 670/802/334 669/801/334
f 670/802/335 662/804/335 661/803/335
o streetlight_hitbox
v -98.983421 1.843196 -121.044861
v -98.983421 9.146218 -121.044861
v -99.149521 1.843196 -121.117844
v -99.149521 9.146218 -121.117844
v -99.131439 1.843196 -121.298370
v -99.131439 9.146218 -121.298370
v -98.954163 1.843196 -121.336960
v -98.954163 9.146218 -121.336960
v -98.862679 1.843196 -121.180283
v -98.862679 9.146218 -121.180283
vn -0.4023 -0.0000 0.9155
vn -0.9950 -0.0000 -0.0997
vn -0.2127 -0.0000 -0.9771
vn 0.8636 -0.0000 -0.5042
vn 0.7464 -0.0000 0.6655
vt 1.000000 1.000000
vt 0.800000 0.500000
vt 1.000000 0.500000
vt 0.800000 1.000000
vt 0.600000 0.500000
vt 0.600000 1.000000
vt 0.400000 0.500000
vt 0.400000 1.000000
vt 0.200000 0.500000
vt 0.200000 1.000000
vt 0.000000 0.500000
vt 0.000000 1.000000
s 0
f 672/805/336 673/806/336 671/807/336
f 674/808/337 675/809/337 673/806/337
f 676/810/338 677/811/338 675/809/338
f 678/812/339 679/813/339 677/811/339
f 680/814/340 671/815/340 679/813/340
f 672/805/336 674/808/336 673/806/336
f 674/808/337 676/810/337 675/809/337
f 676/810/338 678/812/338 677/811/338
f 678/812/339 680/814/339 679/813/339
f 680/814/340 672/816/340 671/815/340
o streetlight_hitbox
v -6.477796 1.843196 -127.386719
v -6.477796 9.146218 -127.386719
v -6.624575 1.843196 -127.493362
v -6.624575 9.146218 -127.493362
v -6.568511 1.843196 -127.665916
v -6.568511 9.146218 -127.665916
v -6.387081 1.843196 -127.665916
v -6.387081 9.146218 -127.665916
v -6.331016 1.843196 -127.493362
v -6.331016 9.146218 -127.493362
vn -0.5878 -0.0000 0.8090
vn -0.9511 -0.0000 -0.3090
vn -0.0000 -0.0000 -1.0000
vn 0.9511 -0.0000 -0.3090
vn 0.5878 -0.0000 0.8090
vt 1.000000 1.000000
vt 0.800000 0.500000
vt 1.000000 0.500000
vt 0.800000 1.000000
vt 0.600000 0.500000
vt 0.600000 1.000000
vt 0.400000 0.500000
vt 0.400000 1.000000
vt 0.200000 0.500000
vt 0.200000 1.000000
vt 0.000000 0.500000
vt 0.000000 1.000000
s 0
f 682/817/341 683/818/341 681/819/341
f 684/820/342 685/821/342 683/818/342
f 686/822/343 687/823/343 685/821/343
f 688/824/344 689/825/344 687/823/344
f 690/826/345 681/827/345 689/825/345
f 682/817/341 684/820/341 683/818/341
f 684/820/342 686/822/342 685/821/342
f 686/822/343 688/824/343 687/823/343
f 688/824/344 690/826/344 689/825/344
f 690/826/345 682/828/345 681/827/345
o streetlight_hitbox
v -23.852465 1.843196 -126.865051
v -23.852465 9.146218 -126.865051
v -23.999245 1.843196 -126.971695
v -23.999245 9.146218 -126.971695
v -23.943180 1.843196 -127.144249
v -23.943180 9.146218 -127.144249
v -23.761749 1.843196 -127.144249
v -23.761749 9.146218 -127.144249
v -23.705685 1.843196 -126.971695
v -23.705685 9.146218 -126.971695
vn -0.5878 -0.0000 0.8090
vn -0.9511 -0.0000 -0.3090
vn -0.0000 -0.0000 -1.0000
vn 0.9511 -0.0000 -0.3090
vn 0.5878 -0.0000 0.8090
vt 1.000000 1.000000
vt 0.800000 0.500000
vt 1.000000 0.500000
vt 0.800000 1.000000
vt 0.600000 0.500000
vt 0.600000 1.000000
vt 0.400000 0.500000
vt 0.400000 1.000000
vt 0.200000 0.500000
vt 0.200000 1.000000
vt 0.000000 0.500000
vt 0.000000 1.000000
s 0
f 692/829/346 693/830/346 691/831/346
f 694/832/347 695/833/347 693/830/347
f 696/834/348 697/835/348 695/833/348
f 698/836/349 699/837/349 697/835/349
f 700/838/350 691/839/350 699/837/350
f 692/829/346 694/832/346 693/830/346
f 694/832/347 696/834/347 695/833/347
f 696/834/348 698/836/348 697/835/348
f 698/836/349 700/838/349 699/837/349
f 700/838/350 692/840/350 691/839/350
o streetlight_hitbox
v -115.825958 1.843196 -114.005341
v -115.825958 9.146218 -114.005341
v -116.006348 1.843196 -114.024780
v -116.006348 9.146218 -114.024780
v -116.043602 1.843196 -114.202347
v -116.043602 9.146218 -114.202347
v -115.886246 1.843196 -114.292648
v -115.886246 9.146218 -114.292648
v -115.751732 1.843196 -114.170898
v -115.751732 9.146218 -114.170898
vn -0.1071 -0.0000 0.9942
vn -0.9787 -0.0000 0.2054
vn -0.4977 -0.0000 -0.8673
vn 0.6711 -0.0000 -0.7414
vn 0.9125 -0.0000 0.4091
vt 1.000000 1.000000
vt 0.800000 0.500000
vt 1.000000 0.500000
vt 0.800000 1.000000
vt 0.600000 0.500000
vt 0.600000 1.000000
vt 0.400000 0.500000
vt 0.400000 1.000000
vt 0.200000 0.500000
vt 0.200000 1.000000
vt 0.000000 0.500000
vt 0.000000 1.000000
s 0
f 702/841/351 703/842/351 701/843/351
f 704/844/352 705/845/352 703/842/352
f 706/846/353 707/847/353 705/845/353
f 708/848/354 709/849/354 707/847/354
f 710/850/355 701/851/355 709/849/355
f 702/841/351 704/844/351 703/842/351
f 704/844/352 706/846/352 705/845/352
f 706/846/353 708/848/353 707/847/353
f 708/848/354 710/850/354 709/849/354
f 710/850/355 702/852/355 701/851/355
o streetlight_hitbox
v -127.136864 1.843196 -103.948807
v -127.136864 9.146218 -103.948807
v -127.316231 1.843196 -103.921494
v -127.316231 9.146218 -103.921494
v -127.397636 1.843196 -104.083633
v -127.397636 9.146218 -104.083633
v -127.268585 1.843196 -104.211159
v -127.268585 9.146218 -104.211159
v -127.107422 1.843196 -104.127831
v -127.107422 9.146218 -104.127831
vn 0.1506 -0.0000 0.9886
vn -0.8937 -0.0000 0.4487
vn -0.7029 -0.0000 -0.7113
vn 0.4593 -0.0000 -0.8883
vn 0.9867 -0.0000 0.1623
vt 1.000000 1.000000
vt 0.800000 0.500000
vt 1.000000 0.500000
vt 0.800000 1.000000
vt 0.600000 0.500000
vt 0.600000 1.000000
vt 0.400000 0.500000
vt 0.400000 1.000000
vt 0.200000 0.500000
vt 0.200000 1.000000
vt 0.000000 0.500000
vt 0.000000 1.000000
s 0
f 712/853/356 713/854/356 711/855/356
f 714/856/357 715/857/357 713/854/357
f 716/858/358 717/859/358 715/857/358
f 718/860/359 719/861/359 717/859/359
f 720/862/360 711/863/360 719/861/360
f 712/853/356 714/856/356 713/854/356
f 714/856/357 716/858/357 715/857/357
f 716/858/358 718/860/358 717/859/358
f 718/860/359 720/862/359 719/861/359
f 720/862/360 712/864/360 711/863/360
