# Blender 4.4.3
# www.blender.org
mtllib test_cube.mtl
o Plane
v 1.000000 1.000000 -1.000000
v 1.000000 -1.000000 -1.000000
v 1.000000 1.000000 1.000000
v 1.000000 -1.000000 1.000000
v -1.000000 1.000000 -1.000000
v -1.000000 -1.000000 -1.000000
v -1.000000 1.000000 1.000000
v -1.000000 -1.000000 1.000000
vn -0.0000 1.0000 -0.0000
vn -0.0000 -1.0000 -0.0000
vn -0.0000 -0.0000 1.0000
vn 1.0000 -0.0000 -0.0000
vn -0.0000 -0.0000 -1.0000
vn -1.0000 -0.0000 -0.0000
vt 0.375000 0.000000
vt 0.625000 0.000000
vt 0.625000 0.250000
vt 0.375000 0.250000
vt 0.625000 0.500000
vt 0.375000 0.500000
vt 0.625000 0.750000
vt 0.375000 0.750000
vt 0.625000 1.000000
vt 0.375000 1.000000
vt 0.125000 0.500000
vt 0.125000 0.750000
vt 0.875000 0.500000
vt 0.875000 0.750000
s 0
usemtl White
f 1/1/1 5/2/1 7/3/1 3/4/1
f 6/4/2 2/3/2 4/5/2 8/6/2
f 4/6/3 3/5/3 7/7/3 8/8/3
f 2/8/4 1/7/4 3/9/4 4/10/4
f 8/5/6 7/13/6 5/14/6 6/7/6
usemtl Green
f 6/11/5 5/6/5 1/8/5 2/12/5
