# Blender 4.5.2 LTS
# www.blender.org
mtllib tree1.mtl
o tree1
v -0.000000 -0.634729 -0.239454
v -0.000000 2.906530 -0.239454
v 0.207373 -0.634729 -0.119727
v 0.207373 2.906530 -0.119727
v 0.207373 -0.634729 0.119727
v 0.207373 2.906530 0.119727
v -0.000000 -0.634729 0.239454
v -0.000000 2.906530 0.239454
v -0.207373 -0.634729 0.119727
v -0.207373 2.906530 0.119727
v -0.207373 -0.634729 -0.119727
v -0.207373 2.906530 -0.119727
v 0.000000 0.972309 0.000000
v 1.051225 2.435966 0.763751
v -0.401524 2.435964 1.235786
v -1.299383 2.435976 0.000000
v -0.401524 2.435964 -1.235786
v 1.051225 2.435966 -0.763751
v 0.401524 5.075394 1.235786
v -1.051225 5.075392 0.763751
v -1.051225 5.075392 -0.763751
v 0.401524 5.075394 -1.235786
v 1.299383 5.075376 0.000000
v 0.000000 7.765778 0.000000
v -0.236008 1.367746 0.726371
v 0.617890 1.367748 0.448918
v 0.381884 2.228063 1.175297
v 1.235784 2.228069 0.000000
v 0.617890 1.367748 -0.448918
v -0.763757 1.367753 0.000000
v -0.999771 2.228067 0.726374
v -0.236008 1.367746 -0.726371
v -0.999771 2.228067 -0.726374
v 0.381884 2.228063 -1.175297
v 1.381655 3.620117 0.448920
v 1.381655 3.620117 -0.448920
v 0.000000 3.620117 1.452756
v 0.853909 3.620117 1.175304
v -1.381655 3.620117 0.448920
v -0.853909 3.620117 1.175304
v -0.853909 3.620117 -1.175304
v -1.381655 3.620117 -0.448920
v 0.853909 3.620117 -1.175304
v 0.000000 3.620117 -1.452756
v 0.999771 5.437684 0.726374
v -0.381884 5.437690 1.175297
v -1.235784 5.437683 0.000000
v -0.381884 5.437690 -1.175297
v 0.999771 5.437685 -0.726374
v 0.236008 6.977003 0.726371
v 0.763757 6.976988 0.000000
v -0.617890 6.977000 0.448918
v -0.617890 6.977000 -0.448918
v 0.236008 6.977003 -0.726371
vn 0.5000 -0.0000 -0.8660
vn 1.0000 -0.0000 -0.0000
vn 0.5000 -0.0000 0.8660
vn -0.5000 -0.0000 0.8660
vn -1.0000 -0.0000 -0.0000
vn -0.5000 -0.0000 -0.8660
vn 0.1666 -0.8423 0.5127
vn 0.8406 -0.4358 0.3218
vn -0.4361 -0.8423 0.3168
vn -0.4361 -0.8423 -0.3168
vn 0.1666 -0.8423 -0.5127
vn 0.9416 -0.1886 0.2789
vn 0.0257 -0.1886 0.9817
vn -0.9257 -0.1886 0.3278
vn -0.5979 -0.1886 -0.7791
vn 0.5562 -0.1886 -0.8094
vn 0.8071 -0.0693 0.5864
vn -0.3083 -0.0693 0.9488
vn -0.9976 -0.0693 -0.0000
vn -0.3083 -0.0693 -0.9488
vn 0.8071 -0.0693 -0.5864
vn 0.5286 0.2623 0.8073
vn -0.6045 0.2623 0.7522
vn -0.9022 0.2623 -0.3424
vn 0.0469 0.2623 -0.9639
vn 0.9312 0.2623 -0.2533
vn 0.6369 0.6167 -0.4627
vn 0.7508 0.3725 -0.5455
vn 0.5286 0.2623 -0.8073
vn -0.2433 0.6167 -0.7487
vn -0.2868 0.3725 -0.8826
vn -0.6045 0.2623 -0.7522
vn -0.7872 0.6167 -0.0000
vn -0.9280 0.3725 -0.0000
vn -0.9022 0.2623 0.3424
vn -0.2433 0.6167 0.7487
vn -0.2868 0.3725 0.8826
vn 0.0469 0.2623 0.9639
vn 0.6369 0.6167 0.4627
vn 0.7508 0.3725 0.5455
vn 0.9312 0.2623 0.2533
vn 0.9381 0.1494 -0.3124
vn 0.8064 0.0800 -0.5859
vn 0.5870 0.1494 -0.7957
vn -0.0072 0.1494 -0.9887
vn -0.3080 0.0800 -0.9480
vn -0.5753 0.1494 -0.8042
vn -0.9426 0.1494 -0.2987
vn -0.9968 0.0800 -0.0000
vn -0.9426 0.1494 0.2987
vn -0.5753 0.1494 0.8042
vn -0.3080 0.0800 0.9480
vn -0.0072 0.1494 0.9887
vn 0.5870 0.1494 0.7957
vn 0.8064 0.0800 0.5859
vn 0.9381 0.1494 0.3124
vn 0.3085 0.0564 -0.9495
vn 0.3073 -0.1042 -0.9459
vn 0.0257 -0.1886 -0.9817
vn -0.8077 0.0564 -0.5868
vn -0.8046 -0.1042 -0.5846
vn -0.9257 -0.1886 -0.3278
vn -0.8077 0.0564 0.5868
vn -0.8046 -0.1042 0.5846
vn -0.5979 -0.1886 0.7791
vn 0.3085 0.0564 0.9495
vn 0.3073 -0.1042 0.9459
vn 0.5562 -0.1886 0.8094
vn 0.9984 0.0564 -0.0000
vn 0.9946 -0.1042 -0.0000
vn 0.9416 -0.1886 -0.2789
vn 0.5658 -0.4358 -0.7000
vn 0.2510 -0.5834 -0.7725
vn -0.0463 -0.4358 -0.8988
vn -0.4909 -0.4358 -0.7544
vn -0.6571 -0.5834 -0.4774
vn -0.8692 -0.4358 -0.2338
vn -0.8692 -0.4358 0.2338
vn -0.6571 -0.5834 0.4774
vn -0.4909 -0.4358 0.7544
vn 0.8406 -0.4358 -0.3218
vn 0.8122 -0.5833 -0.0000
vn 0.5390 -0.8423 -0.0000
vn -0.0463 -0.4358 0.8988
vn 0.2510 -0.5834 0.7725
vn 0.5658 -0.4358 0.7000
vt 1.000000 1.000000
vt 0.833333 0.500000
vt 1.000000 0.500000
vt 0.833333 1.000000
vt 0.666667 0.500000
vt 0.666667 1.000000
vt 0.500000 0.500000
vt 0.500000 1.000000
vt 0.333333 0.500000
vt 0.333333 1.000000
vt 0.166667 0.500000
vt 0.166667 1.000000
vt -0.000000 0.500000
vt 0.181819 0.000000
vt 0.227273 0.078731
vt 0.136365 0.078731
vt 0.272728 0.157461
vt 0.318182 0.078731
vt 0.363637 0.157461
vt 0.909091 0.000000
vt 0.954545 0.078731
vt 0.863636 0.078731
vt 0.727273 0.000000
vt 0.772727 0.078731
vt 0.681818 0.078731
vt 0.545455 0.000000
vt 0.590909 0.078731
vt 0.500000 0.078731
vt 0.318182 0.236191
vt 0.090910 0.157461
vt 0.181819 0.157461
vt 0.136365 0.236191
vt 0.818182 0.157461
vt 0.909091 0.157461
vt 0.863636 0.236191
vt 0.636364 0.157461
vt 0.727273 0.157461
vt 0.681818 0.236191
vt 0.454546 0.157461
vt 0.545455 0.157461
vt 0.500000 0.236191
vt 0.227273 0.236191
vt 0.045455 0.236191
vt 0.772727 0.236191
vt 0.590909 0.236191
vt 0.409092 0.236191
vt 0.181819 0.314921
vt 0.272728 0.314921
vt 0.227273 0.393651
vt 0.000000 0.314921
vt 0.090910 0.314921
vt 0.045455 0.393651
vt 0.727273 0.314921
vt 0.818182 0.314921
vt 0.772727 0.393651
vt 0.545455 0.314921
vt 0.636364 0.314921
vt 0.590909 0.393651
vt 0.363637 0.314921
vt 0.454546 0.314921
vt 0.409092 0.393651
vt 0.500000 0.393651
vt 0.454546 0.472382
vt 0.681818 0.393651
vt 0.636364 0.472382
vt 0.863636 0.393651
vt 0.818182 0.472382
vt 0.909091 0.314921
vt 0.136365 0.393651
vt 0.090910 0.472382
vt 0.318182 0.393651
vt 0.272728 0.472382
vt 0.954545 0.236191
vt 1.000000 0.157461
vt 0.409092 0.078731
vt 0.363637 0.000000
vt -0.000000 1.000000
s 0
usemtl Tree_trunk
f 2/1/1 3/2/1 1/3/1
f 4/4/2 5/5/2 3/2/2
f 6/6/3 7/7/3 5/5/3
f 8/8/4 9/9/4 7/7/4
f 10/10/5 11/11/5 9/9/5
f 12/12/6 1/13/6 11/11/6
f 2/1/1 4/4/1 3/2/1
f 4/4/2 6/6/2 5/5/2
f 6/6/3 8/8/3 7/7/3
f 8/8/4 10/10/4 9/9/4
f 10/10/5 12/12/5 11/11/5
f 12/12/6 2/77/6 1/13/6
usemtl Tree_leaves
f 13/14/7 26/15/7 25/16/7
f 14/17/8 26/18/8 28/19/8
f 13/20/9 25/21/9 30/22/9
f 13/23/10 30/24/10 32/25/10
f 13/26/11 32/27/11 29/28/11
f 14/17/12 28/19/12 35/29/12
f 15/30/13 27/31/13 37/32/13
f 16/33/14 31/34/14 39/35/14
f 17/36/15 33/37/15 41/38/15
f 18/39/16 34/40/16 43/41/16
f 14/17/17 35/29/17 38/42/17
f 15/30/18 37/32/18 40/43/18
f 16/33/19 39/35/19 42/44/19
f 17/36/20 41/38/20 44/45/20
f 18/39/21 43/41/21 36/46/21
f 19/47/22 45/48/22 50/49/22
f 20/50/23 46/51/23 52/52/23
f 21/53/24 47/54/24 53/55/24
f 22/56/25 48/57/25 54/58/25
f 23/59/26 49/60/26 51/61/26
f 51/61/27 54/62/27 24/63/27
f 51/61/28 49/60/28 54/62/28
f 49/60/29 22/56/29 54/62/29
f 54/58/30 53/64/30 24/65/30
f 54/58/31 48/57/31 53/64/31
f 48/57/32 21/53/32 53/64/32
f 53/55/33 52/66/33 24/67/33
f 53/55/34 47/54/34 52/66/34
f 47/54/35 20/68/35 52/66/35
f 52/52/36 50/69/36 24/70/36
f 52/52/37 46/51/37 50/69/37
f 46/51/38 19/47/38 50/69/38
f 50/49/39 51/71/39 24/72/39
f 50/49/40 45/48/40 51/71/40
f 45/48/41 23/59/41 51/71/41
f 36/46/42 49/60/42 23/59/42
f 36/46/43 43/41/43 49/60/43
f 43/41/44 22/56/44 49/60/44
f 44/45/45 48/57/45 22/56/45
f 44/45/46 41/38/46 48/57/46
f 41/38/47 21/53/47 48/57/47
f 42/44/48 47/54/48 21/53/48
f 42/44/49 39/35/49 47/54/49
f 39/35/50 20/68/50 47/54/50
f 40/43/51 46/51/51 20/50/51
f 40/43/52 37/32/52 46/51/52
f 37/32/53 19/47/53 46/51/53
f 38/42/54 45/48/54 19/47/54
f 38/42/55 35/29/55 45/48/55
f 35/29/56 23/59/56 45/48/56
f 43/41/57 44/45/57 22/56/57
f 43/41/58 34/40/58 44/45/58
f 34/40/59 17/36/59 44/45/59
f 41/38/60 42/44/60 21/53/60
f 41/38/61 33/37/61 42/44/61
f 33/37/62 16/33/62 42/44/62
f 39/35/63 40/73/63 20/68/63
f 39/35/64 31/34/64 40/73/64
f 31/34/65 15/74/65 40/73/65
f 37/32/66 38/42/66 19/47/66
f 37/32/67 27/31/67 38/42/67
f 27/31/68 14/17/68 38/42/68
f 35/29/69 36/46/69 23/59/69
f 35/29/70 28/19/70 36/46/70
f 28/19/71 18/39/71 36/46/71
f 29/28/72 34/40/72 18/39/72
f 29/28/73 32/27/73 34/40/73
f 32/27/74 17/36/74 34/40/74
f 32/25/75 33/37/75 17/36/75
f 32/25/76 30/24/76 33/37/76
f 30/24/77 16/33/77 33/37/77
f 30/22/78 31/34/78 16/33/78
f 30/22/79 25/21/79 31/34/79
f 25/21/80 15/74/80 31/34/80
f 28/19/81 29/75/81 18/39/81
f 28/19/82 26/18/82 29/75/82
f 26/18/83 13/76/83 29/75/83
f 25/16/84 27/31/84 15/30/84
f 25/16/85 26/15/85 27/31/85
f 26/15/86 14/17/86 27/31/86
