# Blender 4.5.2 LTS
# www.blender.org
mtllib tree2.mtl
o tree2
v 0.000000 -0.000001 -1.454789
v -0.000000 1.393665 -0.812167
v 1.137400 -0.000001 -0.907046
v 0.634977 1.393665 -0.506378
v 1.418315 -0.000001 0.323721
v 0.791804 1.393665 0.180724
v 0.631209 -0.000001 1.310720
v 0.352386 1.393665 0.731737
v -0.631209 -0.000001 1.310720
v -0.352386 1.393665 0.731737
v -1.418315 -0.000001 0.323721
v -0.791804 1.393665 0.180724
v -1.137400 -0.000001 -0.907046
v -0.634977 1.393665 -0.506378
v 0.000000 4.718968 -0.571906
v 0.447134 4.718968 -0.356578
v 0.557567 4.718968 0.127261
v 0.248141 4.718968 0.515269
v -0.248141 4.718968 0.515269
v -0.557567 4.718968 0.127261
v -0.447134 4.718968 -0.356578
v 0.000000 4.593925 0.000000
v 2.464420 5.685550 1.790485
v -0.941306 5.685549 2.897092
v -3.046185 5.685559 0.000000
v -0.941306 5.685549 -2.897092
v 2.464420 5.685550 -1.790485
v 0.941306 7.939220 2.897092
v -2.464420 7.939219 1.790485
v -2.464420 7.939219 -1.790485
v 0.941306 7.939220 -2.897092
v 3.046185 7.939210 0.000000
v 0.000000 9.332031 0.000000
v -0.553282 4.780064 1.702855
v 1.448539 4.780064 1.052413
v 0.895263 5.487711 2.755285
v 2.897087 5.487716 0.000000
v 1.448539 4.780064 -1.052413
v -1.790500 4.780068 0.000000
v -2.343796 5.487715 1.702860
v -0.553282 4.780064 -1.702855
v -2.343796 5.487715 -1.702860
v 0.895263 5.487711 -2.755285
v 3.239058 6.812385 1.052417
v 3.239058 6.812385 -1.052417
v 0.000000 6.812385 3.405742
v 2.001846 6.812385 2.755302
v -3.239058 6.812385 1.052417
v -2.001846 6.812385 2.755302
v -2.001846 6.812385 -2.755302
v -3.239058 6.812385 -1.052417
v 2.001846 6.812385 -2.755302
v 0.000000 6.812385 -3.405742
v 2.343796 8.137054 1.702860
v -0.895263 8.137058 2.755285
v -2.897087 8.137053 0.000000
v -0.895263 8.137058 -2.755285
v 2.343796 8.137054 -1.702860
v 0.553282 8.955732 1.702855
v 1.790500 8.955727 0.000000
v -1.448539 8.955732 1.052413
v -1.448539 8.955732 -1.052413
v 0.553282 8.955732 -1.702855
vn -0.0000 0.4187 -0.9081
vn -0.0000 0.2623 -0.9650
vn 0.7100 0.4187 -0.5662
vn 0.7545 0.2623 -0.6017
vn 0.8853 0.4187 0.2021
vn 0.9408 0.2623 0.2147
vn 0.3940 0.4187 0.8182
vn 0.4187 0.2623 0.8694
vn -0.3940 0.4187 0.8182
vn -0.4187 0.2623 0.8694
vn -0.8853 0.4187 0.2021
vn -0.9408 0.2623 0.2147
vn -0.7100 0.4187 -0.5662
vn -0.7545 0.2623 -0.6017
vn -0.0000 0.0721 -0.9974
vn 0.7798 0.0721 -0.6219
vn 0.9724 0.0721 0.2219
vn 0.4328 0.0721 0.8986
vn -0.4328 0.0721 0.8986
vn -0.9724 0.0721 0.2219
vn -0.7798 0.0721 -0.6219
vn -0.0000 -1.0000 -0.0000
vn 0.6750 -0.5512 0.4904
vn -0.2578 -0.5512 0.7935
vn -0.8344 -0.5512 -0.0000
vn -0.2578 -0.5512 -0.7935
vn 0.6750 -0.5512 -0.4904
vn 0.2615 0.5330 0.8047
vn -0.6845 0.5330 0.4973
vn -0.6845 0.5330 -0.4973
vn 0.2615 0.5330 -0.8047
vn 0.8461 0.5330 -0.0000
vn -0.0000 1.0000 -0.0000
vn -0.1150 -0.9281 0.3540
vn 0.3011 -0.9281 0.2188
vn 0.2392 -0.6330 0.7362
vn 0.7741 -0.6330 -0.0000
vn 0.3012 -0.9281 -0.2188
vn -0.3722 -0.9281 -0.0000
vn -0.6263 -0.6330 0.4550
vn -0.1150 -0.9281 -0.3540
vn -0.6263 -0.6330 -0.4550
vn 0.2392 -0.6330 -0.7362
vn 0.9511 -0.0000 0.3090
vn 0.9511 -0.0000 -0.3090
vn -0.0000 -0.0000 1.0000
vn 0.5878 -0.0000 0.8090
vn -0.9511 -0.0000 0.3090
vn -0.5878 -0.0000 0.8090
vn -0.5878 -0.0000 -0.8090
vn -0.9511 -0.0000 -0.3090
vn 0.5878 -0.0000 -0.8090
vn -0.0000 -0.0000 -1.0000
vn 0.6406 0.6107 0.4654
vn -0.2447 0.6107 0.7531
vn -0.7918 0.6107 -0.0000
vn -0.2447 0.6107 -0.7531
vn 0.6406 0.6107 -0.4654
vn 0.1337 0.9015 0.4116
vn 0.4328 0.9015 -0.0000
vn -0.3501 0.9015 0.2544
vn -0.3501 0.9015 -0.2544
vn 0.1337 0.9015 -0.4116
vt 1.000000 1.000000
vt 0.857143 0.500000
vt 1.000000 0.500000
vt 0.857143 1.000000
vt 0.714286 0.500000
vt 0.714286 1.000000
vt 0.571429 0.500000
vt 0.571429 1.000000
vt 0.428571 0.500000
vt 0.428571 1.000000
vt 0.285714 0.500000
vt 0.142857 1.000000
vt 0.285714 1.000000
vt 0.142857 0.500000
vt 0.000000 0.500000
vt 0.000000 1.000000
vt 0.181819 0.000000
vt 0.227273 0.078731
vt 0.136365 0.078731
vt 0.272728 0.157461
vt 0.318182 0.078731
vt 0.363637 0.157461
vt 0.909091 0.000000
vt 0.954545 0.078731
vt 0.863636 0.078731
vt 0.727273 0.000000
vt 0.772727 0.078731
vt 0.681818 0.078731
vt 0.545455 0.000000
vt 0.590909 0.078731
vt 0.500000 0.078731
vt 0.318182 0.236191
vt 0.090910 0.157461
vt 0.181819 0.157461
vt 0.136365 0.236191
vt 0.818182 0.157461
vt 0.909091 0.157461
vt 0.863636 0.236191
vt 0.636364 0.157461
vt 0.727273 0.157461
vt 0.681818 0.236191
vt 0.454546 0.157461
vt 0.545455 0.157461
vt 0.500000 0.236191
vt 0.227273 0.236191
vt 0.045455 0.236191
vt 0.772727 0.236191
vt 0.590909 0.236191
vt 0.409092 0.236191
vt 0.181819 0.314921
vt 0.272728 0.314921
vt 0.227273 0.393651
vt 0.000000 0.314921
vt 0.090910 0.314921
vt 0.045455 0.393651
vt 0.727273 0.314921
vt 0.818182 0.314921
vt 0.772727 0.393651
vt 0.545455 0.314921
vt 0.636364 0.314921
vt 0.590909 0.393651
vt 0.363637 0.314921
vt 0.454546 0.314921
vt 0.409092 0.393651
vt 0.500000 0.393651
vt 0.454546 0.472382
vt 0.681818 0.393651
vt 0.636364 0.472382
vt 0.863636 0.393651
vt 0.818182 0.472382
vt 0.909091 0.314921
vt 0.136365 0.393651
vt 0.090910 0.472382
vt 0.318182 0.393651
vt 0.272728 0.472382
vt 0.954545 0.236191
vt 1.000000 0.157461
vt 0.409092 0.078731
vt 0.363637 0.000000
s 1
usemtl Tree_trunk
f 2/1/2 3/2/3 1/3/1
f 4/4/4 5/5/5 3/2/3
f 6/6/6 7/7/7 5/5/5
f 8/8/8 9/9/9 7/7/7
f 10/10/10 11/11/11 9/9/9
f 14/12/14 20/13/20 21/12/21
f 11/11/11 14/12/14 13/14/13
f 14/12/14 1/15/1 13/14/13
f 8/8/8 19/10/19 10/10/10
f 2/16/2 21/12/21 15/16/15
f 6/6/6 16/4/16 17/6/17
f 10/10/10 20/13/20 12/13/12
f 4/4/4 15/1/15 16/4/16
f 6/6/6 18/8/18 8/8/8
f 2/1/2 4/4/4 3/2/3
f 4/4/4 6/6/6 5/5/5
f 6/6/6 8/8/8 7/7/7
f 8/8/8 10/10/10 9/9/9
f 10/10/10 12/13/12 11/11/11
f 14/12/14 12/13/12 20/13/20
f 11/11/11 12/13/12 14/12/14
f 14/12/14 2/16/2 1/15/1
f 8/8/8 18/8/18 19/10/19
f 2/16/2 14/12/14 21/12/21
f 6/6/6 4/4/4 16/4/16
f 10/10/10 19/10/19 20/13/20
f 4/4/4 2/1/2 15/1/15
f 6/6/6 17/6/17 18/8/18
usemtl Tree_leaves
f 22/17/22 35/18/35 34/19/34
f 23/20/23 35/21/35 37/22/37
f 22/23/22 34/24/34 39/25/39
f 22/26/22 39/27/39 41/28/41
f 22/29/22 41/30/41 38/31/38
f 23/20/23 37/22/37 44/32/44
f 24/33/24 36/34/36 46/35/46
f 25/36/25 40/37/40 48/38/48
f 26/39/26 42/40/42 50/41/50
f 27/42/27 43/43/43 52/44/52
f 23/20/23 44/32/44 47/45/47
f 24/33/24 46/35/46 49/46/49
f 25/36/25 48/38/48 51/47/51
f 26/39/26 50/41/50 53/48/53
f 27/42/27 52/44/52 45/49/45
f 28/50/28 54/51/54 59/52/59
f 29/53/29 55/54/55 61/55/61
f 30/56/30 56/57/56 62/58/62
f 31/59/31 57/60/57 63/61/63
f 32/62/32 58/63/58 60/64/60
f 60/64/60 63/65/63 33/66/33
f 60/64/60 58/63/58 63/65/63
f 58/63/58 31/59/31 63/65/63
f 63/61/63 62/67/62 33/68/33
f 63/61/63 57/60/57 62/67/62
f 57/60/57 30/56/30 62/67/62
f 62/58/62 61/69/61 33/70/33
f 62/58/62 56/57/56 61/69/61
f 56/57/56 29/71/29 61/69/61
f 61/55/61 59/72/59 33/73/33
f 61/55/61 55/54/55 59/72/59
f 55/54/55 28/50/28 59/72/59
f 59/52/59 60/74/60 33/75/33
f 59/52/59 54/51/54 60/74/60
f 54/51/54 32/62/32 60/74/60
f 45/49/45 58/63/58 32/62/32
f 45/49/45 52/44/52 58/63/58
f 52/44/52 31/59/31 58/63/58
f 53/48/53 57/60/57 31/59/31
f 53/48/53 50/41/50 57/60/57
f 50/41/50 30/56/30 57/60/57
f 51/47/51 56/57/56 30/56/30
f 51/47/51 48/38/48 56/57/56
f 48/38/48 29/71/29 56/57/56
f 49/46/49 55/54/55 29/53/29
f 49/46/49 46/35/46 55/54/55
f 46/35/46 28/50/28 55/54/55
f 47/45/47 54/51/54 28/50/28
f 47/45/47 44/32/44 54/51/54
f 44/32/44 32/62/32 54/51/54
f 52/44/52 53/48/53 31/59/31
f 52/44/52 43/43/43 53/48/53
f 43/43/43 26/39/26 53/48/53
f 50/41/50 51/47/51 30/56/30
f 50/41/50 42/40/42 51/47/51
f 42/40/42 25/36/25 51/47/51
f 48/38/48 49/76/49 29/71/29
f 48/38/48 40/37/40 49/76/49
f 40/37/40 24/77/24 49/76/49
f 46/35/46 47/45/47 28/50/28
f 46/35/46 36/34/36 47/45/47
f 36/34/36 23/20/23 47/45/47
f 44/32/44 45/49/45 32/62/32
f 44/32/44 37/22/37 45/49/45
f 37/22/37 27/42/27 45/49/45
f 38/31/38 43/43/43 27/42/27
f 38/31/38 41/30/41 43/43/43
f 41/30/41 26/39/26 43/43/43
f 41/28/41 42/40/42 26/39/26
f 41/28/41 39/27/39 42/40/42
f 39/27/39 25/36/25 42/40/42
f 39/25/39 40/37/40 25/36/25
f 39/25/39 34/24/34 40/37/40
f 34/24/34 24/77/24 40/37/40
f 37/22/37 38/78/38 27/42/27
f 37/22/37 35/21/35 38/78/38
f 35/21/35 22/79/22 38/78/38
f 34/19/34 36/34/36 24/33/24
f 34/19/34 35/18/35 36/34/36
f 35/18/35 23/20/23 36/34/36
